<svg width="51" height="50" viewBox="0 0 51 50" fill="none" xmlns="http://www.w3.org/2000/svg">
<path d="M35.7996 28.9371C36.3477 28.9371 36.8735 28.7193 37.2611 28.3317C37.6487 27.944 37.8665 27.4183 37.8665 26.8701C37.8665 26.322 37.6487 25.7962 37.2611 25.4086C36.8735 25.021 36.3477 24.8032 35.7996 24.8032C35.2514 24.8032 34.7257 25.021 34.338 25.4086C33.9504 25.7962 33.7326 26.322 33.7326 26.8701C33.7326 27.4183 33.9504 27.944 34.338 28.3317C34.7257 28.7193 35.2514 28.9371 35.7996 28.9371ZM35.7996 37.2047C36.3477 37.2047 36.8735 36.987 37.2611 36.5993C37.6487 36.2117 37.8665 35.686 37.8665 35.1378C37.8665 34.5896 37.6487 34.0639 37.2611 33.6763C36.8735 33.2887 36.3477 33.0709 35.7996 33.0709C35.2514 33.0709 34.7257 33.2887 34.338 33.6763C33.9504 34.0639 33.7326 34.5896 33.7326 35.1378C33.7326 35.686 33.9504 36.2117 34.338 36.5993C34.7257 36.987 35.2514 37.2047 35.7996 37.2047ZM27.5319 26.8701C27.5319 27.4183 27.3141 27.944 26.9265 28.3317C26.5389 28.7193 26.0132 28.9371 25.465 28.9371C24.9168 28.9371 24.3911 28.7193 24.0034 28.3317C23.6158 27.944 23.3981 27.4183 23.3981 26.8701C23.3981 26.322 23.6158 25.7962 24.0034 25.4086C24.3911 25.021 24.9168 24.8032 25.465 24.8032C26.0132 24.8032 26.5389 25.021 26.9265 25.4086C27.3141 25.7962 27.5319 26.322 27.5319 26.8701ZM27.5319 35.1378C27.5319 35.686 27.3141 36.2117 26.9265 36.5993C26.5389 36.987 26.0132 37.2047 25.465 37.2047C24.9168 37.2047 24.3911 36.987 24.0034 36.5993C23.6158 36.2117 23.3981 35.686 23.3981 35.1378C23.3981 34.5896 23.6158 34.0639 24.0034 33.6763C24.3911 33.2887 24.9168 33.0709 25.465 33.0709C26.0132 33.0709 26.5389 33.2887 26.9265 33.6763C27.3141 34.0639 27.5319 34.5896 27.5319 35.1378ZM15.1304 28.9371C15.6786 28.9371 16.2043 28.7193 16.5919 28.3317C16.9795 27.944 17.1973 27.4183 17.1973 26.8701C17.1973 26.322 16.9795 25.7962 16.5919 25.4086C16.2043 25.021 15.6786 24.8032 15.1304 24.8032C14.5822 24.8032 14.0565 25.021 13.6689 25.4086C13.2812 25.7962 13.0635 26.322 13.0635 26.8701C13.0635 27.4183 13.2812 27.944 13.6689 28.3317C14.0565 28.7193 14.5822 28.9371 15.1304 28.9371ZM15.1304 37.2047C15.6786 37.2047 16.2043 36.987 16.5919 36.5993C16.9795 36.2117 17.1973 35.686 17.1973 35.1378C17.1973 34.5896 16.9795 34.0639 16.5919 33.6763C16.2043 33.2887 15.6786 33.0709 15.1304 33.0709C14.5822 33.0709 14.0565 33.2887 13.6689 33.6763C13.2812 34.0639 13.0635 34.5896 13.0635 35.1378C13.0635 35.686 13.2812 36.2117 13.6689 36.5993C14.0565 36.987 14.5822 37.2047 15.1304 37.2047Z" fill="white"/>
<path fill-rule="evenodd" clip-rule="evenodd" d="M15.1305 3.61768C15.5416 3.61768 15.9359 3.781 16.2267 4.07172C16.5174 4.36243 16.6807 4.75673 16.6807 5.16786V6.74492C18.049 6.71805 19.5558 6.71805 21.2134 6.71805H29.7147C31.3744 6.71805 32.8812 6.71805 34.2495 6.74492V5.16786C34.2495 4.75673 34.4128 4.36243 34.7035 4.07172C34.9942 3.781 35.3885 3.61768 35.7997 3.61768C36.2108 3.61768 36.6051 3.781 36.8958 4.07172C37.1865 4.36243 37.3499 4.75673 37.3499 5.16786V6.8772C37.8873 6.91854 38.3964 6.9709 38.8773 7.03429C41.2997 7.36086 43.2612 8.04708 44.8094 9.59313C46.3554 11.1413 47.0416 13.1028 47.3682 15.5252C47.6844 17.8815 47.6844 20.8888 47.6844 24.6878V29.0532C47.6844 32.8521 47.6844 35.8616 47.3682 38.2158C47.0416 40.6382 46.3554 42.5997 44.8094 44.1479C43.2612 45.6939 41.2997 46.3801 38.8773 46.7067C36.521 47.0229 33.5137 47.0229 29.7147 47.0229H21.2176C17.4186 47.0229 14.4092 47.0229 12.0549 46.7067C9.63251 46.3801 7.671 45.6939 6.12288 44.1479C4.57683 42.5997 3.89061 40.6382 3.56404 38.2158C3.2478 35.8595 3.2478 32.8521 3.2478 29.0532V24.6878C3.2478 20.8888 3.2478 17.8794 3.56404 15.5252C3.89061 13.1028 4.57683 11.1413 6.12288 9.59313C7.671 8.04708 9.63251 7.36086 12.0549 7.03429C12.5372 6.9709 13.0464 6.91854 13.5824 6.8772V5.16786C13.5824 4.75709 13.7454 4.3631 14.0357 4.07245C14.326 3.78179 14.7197 3.61822 15.1305 3.61768ZM12.4642 10.1078C10.3869 10.3868 9.18812 10.9118 8.31382 11.7861C7.43951 12.6604 6.91451 13.8592 6.63548 15.9365C6.58863 16.2879 6.54867 16.6592 6.5156 17.0506H44.4146C44.3815 16.6592 44.3416 16.2872 44.2947 15.9344C44.0157 13.8572 43.4907 12.6584 42.6164 11.7841C41.7421 10.9098 40.5432 10.3848 38.4639 10.1057C36.3412 9.82049 33.5405 9.81636 29.5989 9.81636H21.3313C17.3896 9.81636 14.591 9.82256 12.4642 10.1078ZM6.34611 24.8036C6.34611 23.0384 6.34611 21.5027 6.37298 20.153H44.5572C44.5841 21.5027 44.5841 23.0384 44.5841 24.8036V28.9374C44.5841 32.879 44.5799 35.6797 44.2947 37.8045C44.0157 39.8817 43.4907 41.0805 42.6164 41.9549C41.7421 42.8292 40.5432 43.3542 38.4639 43.6332C36.3412 43.9184 33.5405 43.9226 29.5989 43.9226H21.3313C17.3896 43.9226 14.591 43.9184 12.4642 43.6332C10.3869 43.3542 9.18812 42.8292 8.31382 41.9549C7.43951 41.0805 6.91451 39.8817 6.63548 37.8024C6.35024 35.6797 6.34611 32.879 6.34611 28.9374V24.8036Z" fill="white"/>
</svg>
