<svg width="45" height="60" viewBox="0 0 45 60" fill="none" xmlns="http://www.w3.org/2000/svg">
<path d="M7.5 0C5.51088 0 3.60322 0.790177 2.1967 2.1967C0.790176 3.60322 0 5.51088 0 7.5V52.5C0 54.4891 0.790176 56.3968 2.1967 57.8033C3.60322 59.2098 5.51088 60 7.5 60H37.5C39.4891 60 41.3968 59.2098 42.8033 57.8033C44.2098 56.3968 45 54.4891 45 52.5V7.5C45 5.51088 44.2098 3.60322 42.8033 2.1967C41.3968 0.790177 39.4891 0 37.5 0L7.5 0ZM7.5 3.75H37.5C38.4946 3.75 39.4484 4.14509 40.1516 4.84835C40.8549 5.55161 41.25 6.50544 41.25 7.5V52.5C41.25 53.4946 40.8549 54.4484 40.1516 55.1517C39.4484 55.8549 38.4946 56.25 37.5 56.25H7.5C6.50544 56.25 5.55161 55.8549 4.84835 55.1517C4.14509 54.4484 3.75 53.4946 3.75 52.5V7.5C3.75 6.50544 4.14509 5.55161 4.84835 4.84835C5.55161 4.14509 6.50544 3.75 7.5 3.75Z" fill="white"/>
<path d="M9.48009 46.3393C8.72954 46.0443 8.1255 45.4665 7.79849 44.7309C7.04983 43.245 7.29938 41.759 8.10563 40.5106C8.86581 39.3348 10.1251 38.3353 11.5495 37.4966C13.3539 36.4764 15.2611 35.6484 17.2393 35.0265C18.7731 32.27 20.1348 29.4216 21.3166 26.4977C20.6123 24.8996 20.0596 23.2392 19.6657 21.5383C19.3355 20.0064 19.2088 18.4899 19.4891 17.1878C19.777 15.8321 20.5411 14.6142 21.9846 14.0359C22.7218 13.7411 23.5203 13.5764 24.2959 13.7411C24.686 13.8239 25.0527 13.9923 25.3695 14.2341C25.6862 14.4759 25.9451 14.7849 26.1272 15.1389C26.4651 15.767 26.5879 16.5023 26.6148 17.1993C26.6417 17.9154 26.5687 18.712 26.4344 19.5507C26.1119 21.5038 25.3978 23.8936 24.4379 26.4212C25.498 28.6803 26.7571 30.8411 28.2004 32.878C29.9093 32.745 31.6279 32.8092 33.322 33.0695C34.7195 33.3184 36.1401 33.8163 37.0078 34.8503C37.4685 35.4018 37.7487 36.0758 37.7756 36.8341C37.8025 37.5694 37.5952 38.297 37.2458 38.9902C36.9432 39.6325 36.4739 40.1826 35.8867 40.5833C35.3058 40.9601 34.6207 41.145 33.9286 41.1118C32.6578 41.0582 31.4178 40.3612 30.3466 39.5148C29.0438 38.4409 27.8701 37.22 26.849 35.8766C24.2525 36.1696 21.687 36.6899 19.182 37.4315C18.0336 39.4612 16.7227 41.3951 15.2621 43.2143C14.1487 44.5547 12.9278 45.7228 11.7069 46.2283C11.0048 46.5422 10.2101 46.5818 9.48009 46.3393ZM14.7745 39.0591C14.1346 39.3527 13.5472 39.6565 13.0122 39.9706C11.7529 40.7135 10.9352 41.4373 10.5282 42.0654C10.1673 42.6207 10.1596 43.0228 10.3746 43.4479C10.4156 43.5296 10.4489 43.5858 10.4745 43.6164L10.6088 43.5705C11.1348 43.356 11.9718 42.6705 13.0468 41.3799C13.659 40.6338 14.2355 39.8594 14.7745 39.0591ZM21.0709 33.9656C22.3532 33.6683 23.6467 33.4218 24.9486 33.2265C24.2505 32.1588 23.5972 31.0625 22.9905 29.9406C22.388 31.2984 21.7479 32.6393 21.0709 33.9618V33.9656ZM30.4618 35.689C31.0402 36.3119 31.5969 36.8353 32.1319 37.2592C33.0533 37.9868 33.6945 38.2281 34.0438 38.2396C34.1374 38.2541 34.2332 38.2337 34.3126 38.1821C34.4732 38.0572 34.5977 37.892 34.6735 37.7034C34.8094 37.4699 34.8871 37.2072 34.9 36.9375C34.8961 36.8479 34.8607 36.7625 34.8002 36.6962C34.6005 36.4588 34.0323 36.1141 32.8114 35.8958C32.0346 35.7682 31.249 35.7003 30.4618 35.6928V35.689ZM22.8216 22.2621C23.1418 21.2216 23.3983 20.1627 23.5895 19.0911C23.7072 18.3712 23.7558 17.7776 23.7354 17.3103C23.7373 17.0525 23.6958 16.7961 23.6125 16.5521C23.4202 16.5748 23.2326 16.6265 23.0558 16.7052C22.7218 16.8393 22.4492 17.1112 22.3033 17.789C22.1497 18.5243 22.1881 19.5852 22.4799 20.937C22.572 21.3634 22.6872 21.8051 22.8254 22.2621H22.8216Z" fill="white"/>
</svg>
