<svg width="38" height="44" viewBox="0 0 38 44" fill="none" xmlns="http://www.w3.org/2000/svg">
<path d="M30.4618 21.3812C31.7927 21.4687 33.1106 21.0782 34.1704 20.2825C35.2302 19.4867 35.9597 18.3398 36.2232 17.0551C35.8969 16.5582 35.449 16.1496 34.9204 15.8668C34.3918 15.5839 33.7995 15.4359 33.1976 15.4362C30.0165 15.3646 28.3098 19.0827 30.4632 21.3826L30.4618 21.3812ZM17.613 6.4567L25.1162 2.18706L22.7248 0.862431L12.3767 6.75107L13.2013 7.20224L14.768 8.06745L17.613 6.44983V6.4567ZM26.078 1.79366C26.2027 1.8308 26.3035 1.93122 26.3413 2.05226L29.8191 12.4966C29.8511 12.5832 29.8511 12.678 29.8191 12.7645C29.7871 12.851 29.7252 12.9237 29.6441 12.9698C28.3034 13.7443 27.2594 14.9307 26.6732 16.3459C26.0869 17.7611 25.9909 19.3266 26.4001 20.8007C26.8431 22.3916 27.8461 23.7766 29.2307 24.7092C30.6154 25.6419 32.2919 26.0618 33.962 25.8943C34.055 25.8873 34.1478 25.911 34.2256 25.9615C34.3035 26.0121 34.3619 26.0867 34.3918 26.1735L37.9803 36.9068C38.0084 36.9936 38.0064 37.087 37.9747 37.1726C37.9431 37.2582 37.8835 37.3311 37.8053 37.38L26.8019 43.9426C26.7454 43.9727 26.6827 43.9896 26.6185 43.9921C26.5697 44.0024 26.5193 44.0026 26.4704 43.9929C26.4215 43.9832 26.3752 43.9638 26.3343 43.9357L22.463 41.4639C22.3959 41.4203 22.3429 41.3587 22.3104 41.2865L14.7554 23.5476L3.24803 30.2533C3.22563 30.2685 3.19623 30.2822 3.17523 30.2974C3.11605 30.32 3.05243 30.3292 2.98913 30.3242C2.92584 30.3192 2.86453 30.3001 2.8098 30.2685L0.207015 28.765C0.115359 28.7161 0.0470473 28.6336 0.0169034 28.5355C-0.0132406 28.4374 -0.00278426 28.3315 0.0460032 28.2409L11.181 6.57775C11.22 6.49737 11.2871 6.43342 11.37 6.39756L22.5134 0.0577472C22.5748 0.0211734 22.645 0.00126675 22.7169 5.84821e-05C22.7887 -0.00114978 22.8596 0.0163836 22.9222 0.0508696L26.078 1.79366ZM14.4264 8.80886L11.7214 7.31091L0.950467 28.2588L2.90501 29.3909L12.1891 16.9905C12.2303 16.9309 12.2877 16.8838 12.3547 16.8546C12.4218 16.8254 12.4959 16.8153 12.5685 16.8254C12.6405 16.8335 12.7089 16.8603 12.7668 16.9031C12.8246 16.9459 12.8698 17.0032 12.8975 17.0689L23.0174 40.86L25.7238 42.5808L14.4348 8.80886H14.4264ZM33.1962 23.3303C30.0375 23.3303 27.894 20.1776 29.1037 17.311C30.3077 14.4458 34.0922 13.7085 36.3226 15.9011C37.1556 16.7168 37.6219 17.8213 37.6219 18.9754C37.6232 19.5471 37.5096 20.1135 37.2878 20.6421C37.0659 21.1706 36.7401 21.651 36.329 22.0557C35.9179 22.4603 35.4295 22.7813 34.892 23.0003C34.3544 23.2193 33.7781 23.3305 33.1962 23.3303Z" fill="white"/>
</svg>
