<svg width="38" height="60" viewBox="0 0 38 60" fill="none" xmlns="http://www.w3.org/2000/svg">
<path d="M8.76923 0C6.44349 0 4.213 0.948212 2.56845 2.63604C0.923902 4.32387 3.3367e-06 6.61305 3.3367e-06 9C3.3367e-06 11.3869 0.923902 13.6761 2.56845 15.364C4.213 17.0518 6.44349 18 8.76923 18H29.2308C31.5565 18 33.787 17.0518 35.4316 15.364C37.0761 13.6761 38 11.3869 38 9C38 6.61305 37.0761 4.32387 35.4316 2.63604C33.787 0.948212 31.5565 0 29.2308 0H8.76923ZM29.2308 21C26.905 21 24.6745 21.9482 23.03 23.636C21.3854 25.3239 20.4615 27.613 20.4615 30C20.4615 32.3869 21.3854 34.6761 23.03 36.364C24.6745 38.0518 26.905 39 29.2308 39C31.5565 39 33.787 38.0518 35.4316 36.364C37.0761 34.6761 38 32.3869 38 30C38 27.613 37.0761 25.3239 35.4316 23.636C33.787 21.9482 31.5565 21 29.2308 21ZM3.3367e-06 30C3.3367e-06 27.613 0.923902 25.3239 2.56845 23.636C4.213 21.9482 6.44349 21 8.76923 21H17.5385V39H8.76923C6.44349 39 4.213 38.0518 2.56845 36.364C0.923902 34.6761 3.3367e-06 32.3869 3.3367e-06 30ZM8.76923 42C7.03484 42 5.3394 42.5278 3.89731 43.5168C2.45522 44.5057 1.33124 45.9113 0.667522 47.5558C0.00379958 49.2004 -0.16986 51.01 0.168502 52.7558C0.506865 54.5016 1.34205 56.1053 2.56845 57.364C3.79485 58.6226 5.35738 59.4798 7.05844 59.8271C8.75951 60.1743 10.5227 59.9961 12.1251 59.3149C13.7274 58.6337 15.097 57.4802 16.0606 56.0001C17.0242 54.5201 17.5385 52.78 17.5385 51V42H8.76923Z" fill="white"/>
</svg>
