<svg width="44" height="60" viewBox="0 0 44 60" fill="none" xmlns="http://www.w3.org/2000/svg">
<path d="M44 48.4201L23.925 59.4681C22.55 60.1773 21.175 60.1773 19.8 59.4681L0 48.4201L35.8875 12.5483L36.85 12.2755C37.675 12.2755 38.1425 12.6301 38.225 13.3667L44 48.4201ZM14.7125 13.0939L2.2 33.6895L7.425 1.09116C7.5075 0.354626 7.975 0 8.8 0C9.35 0 9.7075 0.163674 9.9 0.681973L15.8125 11.4571L14.7125 13.0939ZM27.0875 16.531L0.825001 42.6915L20.7625 9.13844C21.0375 8.59286 21.45 8.34735 22 8.34735C22.55 8.34735 22.9075 8.59286 23.1 9.13844L27.0875 16.531Z" fill="white"/>
</svg>
