<svg width="54" height="54" viewBox="0 0 54 54" fill="none" xmlns="http://www.w3.org/2000/svg">
<path d="M13.1587 23.2781C10.2191 24.2709 8.4013 25.641 8.4013 27.1545C8.4013 29.2181 11.7813 31.0164 16.7723 31.9509C14.918 32.8877 13.8108 34.0777 13.8108 35.3747C13.8108 38.3995 19.8628 40.8548 27.3286 40.8548C29.251 40.8548 31.0809 40.6918 32.7381 40.3973M16.7748 31.9509C19.0987 32.3864 21.7755 32.6322 24.625 32.6322C28.7813 32.6322 32.5702 32.1066 35.4416 31.2403M38.1428 22.7719C34.7092 23.7842 29.9202 24.4145 24.625 24.4145C14.1734 24.4145 5.69775 21.9616 5.69775 18.9344C5.69775 16.5983 10.752 14.6029 17.8649 13.8145" stroke="white" stroke-width="4.32515" stroke-linecap="round" stroke-linejoin="round"/>
<path d="M51.6687 44.5386C51.6687 48.4759 40.7742 51.6686 27.3344 51.6686C13.8945 51.6686 3 48.4759 3 44.5386C3 41.7402 7.15388 39.3165 15.1672 38.1484" stroke="white" stroke-width="4.32515" stroke-linecap="round"/>
<path d="M43.784 19.5182C54.0385 16.856 55.5034 32.8242 40.8517 38.1485M40.859 3C39.0582 3.29931 35.6685 4.98325 36.5323 9.3099C37.3986 13.6341 36.1722 15.9191 35.4519 16.5202M30.0423 3C28.2392 3.36015 24.8494 5.3799 25.7157 10.5704C26.582 15.7609 25.3556 17.1504 24.6353 17.8707" stroke="white" stroke-width="4.32515" stroke-linecap="round" stroke-linejoin="round"/>
</svg>
