<svg width="60" height="60" viewBox="0 0 60 60" fill="none" xmlns="http://www.w3.org/2000/svg">
<path fill-rule="evenodd" clip-rule="evenodd" d="M60 0H0V60H60V0ZM32 32C32 29.8783 32.8429 27.8434 34.3431 26.3431C35.8434 24.8429 37.8783 24 40 24H44.668C48.716 24 52 27.28 52 31.332V32H48V31.332C48 30.8944 47.9138 30.4612 47.7464 30.0569C47.5789 29.6526 47.3335 29.2853 47.0241 28.9759C46.7147 28.6665 46.3474 28.4211 45.9431 28.2536C45.5388 28.0862 45.1056 28 44.668 28H40C38.9391 28 37.9217 28.4214 37.1716 29.1716C36.4214 29.9217 36 30.9391 36 32C36 33.0609 36.4214 34.0783 37.1716 34.8284C37.9217 35.5786 38.9391 36 40 36H44C46.1217 36 48.1566 36.8429 49.6569 38.3431C51.1571 39.8434 52 41.8783 52 44C52 46.1217 51.1571 48.1566 49.6569 49.6569C48.1566 51.1571 46.1217 52 44 52H40C37.8783 52 35.8434 51.1571 34.3431 49.6569C32.8429 48.1566 32 46.1217 32 44H36C36 45.0609 36.4214 46.0783 37.1716 46.8284C37.9217 47.5786 38.9391 48 40 48H44C45.0609 48 46.0783 47.5786 46.8284 46.8284C47.5786 46.0783 48 45.0609 48 44C48 42.9391 47.5786 41.9217 46.8284 41.1716C46.0783 40.4214 45.0609 40 44 40H40C37.8783 40 35.8434 39.1571 34.3431 37.6569C32.8429 36.1566 32 34.1217 32 32ZM24 24V44C24 45.0609 23.5786 46.0783 22.8284 46.8284C22.0783 47.5786 21.0609 48 20 48C18.9391 48 17.9217 47.5786 17.1716 46.8284C16.4214 46.0783 16 45.0609 16 44H12C12 46.1217 12.8429 48.1566 14.3431 49.6569C15.8434 51.1571 17.8783 52 20 52C22.1217 52 24.1566 51.1571 25.6569 49.6569C27.1571 48.1566 28 46.1217 28 44V24H24Z" fill="white"/>
</svg>
