<svg width="39" height="39" viewBox="0 0 39 39" fill="none" xmlns="http://www.w3.org/2000/svg">
<path d="M18.2831 0C18.2831 4.59832 22.0069 8.32168 26.6048 8.32168H29.9976V11.6056C29.9976 16.2039 33.721 19.9272 38.3193 19.9272V1.58786C38.3191 1.16687 38.1518 0.763171 37.8542 0.465447C37.5565 0.167723 37.1529 0.000317278 36.7319 0H18.2831ZM9.14155 9.19624C9.14155 13.7942 12.8637 17.5179 17.4616 17.5179H20.8561V20.8018C20.8561 25.4001 24.5795 29.1235 29.1778 29.1235V10.7841C29.1771 10.3633 29.0097 9.95986 28.7121 9.66229C28.4145 9.36472 28.0111 9.19727 27.5903 9.19664L9.14155 9.19624ZM0 18.3925C0 22.9908 3.72177 26.7142 8.32008 26.7142H11.7145V29.998C11.7145 34.598 15.4383 38.3197 20.0362 38.3197V19.9819C20.0358 19.5609 19.8684 19.1573 19.5709 18.8595C19.2733 18.5617 18.8698 18.394 18.4488 18.3933L0 18.3925Z" fill="white"/>
</svg>
