<svg width="60" height="48" viewBox="0 0 60 48" fill="none" xmlns="http://www.w3.org/2000/svg">
<path d="M9.375 0C6.8886 0 4.50403 0.987721 2.74587 2.74587C0.987721 4.50403 0 6.8886 0 9.375V38.625C0 41.1114 0.987721 43.496 2.74587 45.2541C4.50403 47.0123 6.8886 48 9.375 48H50.625C53.1114 48 55.496 47.0123 57.2541 45.2541C59.0123 43.496 60 41.1114 60 38.625V9.375C60 6.8886 59.0123 4.50403 57.2541 2.74587C55.496 0.987721 53.1114 0 50.625 0H9.375ZM3.75 9.375C3.75 7.88316 4.34263 6.45242 5.39752 5.39752C6.45242 4.34263 7.88316 3.75 9.375 3.75H50.625C52.1168 3.75 53.5476 4.34263 54.6025 5.39752C55.6574 6.45242 56.25 7.88316 56.25 9.375V10.71L30.003 24.525L3.75 10.5945V9.375ZM3.75 14.841L29.121 28.302C29.3907 28.4451 29.6913 28.5202 29.9966 28.5207C30.302 28.5212 30.6028 28.4472 30.873 28.305L56.25 14.9475V38.625C56.25 40.1168 55.6574 41.5476 54.6025 42.6025C53.5476 43.6574 52.1168 44.25 50.625 44.25H9.375C7.88316 44.25 6.45242 43.6574 5.39752 42.6025C4.34263 41.5476 3.75 40.1168 3.75 38.625V14.841Z" fill="white"/>
</svg>
