<svg width="42" height="42" viewBox="0 0 42 42" fill="none" xmlns="http://www.w3.org/2000/svg">
<path d="M38.1818 21C38.1818 17.1245 36.9027 13.5355 34.3636 10.2709V31.7482C36.9027 28.5791 38.1818 24.99 38.1818 21ZM31.7482 34.3636H10.2709C11.5691 35.4136 13.2682 36.2727 15.3682 37.0555C17.4491 37.8 19.3391 38.1818 21 38.1818C22.68 38.1818 24.5509 37.8 26.6318 37.0555C28.7318 36.2727 30.4309 35.4136 31.7482 34.3636ZM19.0909 30.5455L11.4545 15.2727V30.5455H19.0909ZM30.5455 15.2727L22.9091 30.5455H30.5455V15.2727ZM21 25.83L28.1591 11.4545H13.8409L21 25.83ZM31.7482 7.63636C28.5791 5.09727 24.99 3.81818 21 3.81818C17.01 3.81818 13.4209 5.09727 10.2709 7.63636H31.7482ZM7.63636 31.7482V10.2709C5.09727 13.5355 3.81818 17.1245 3.81818 21C3.81818 24.99 5.09727 28.5791 7.63636 31.7482ZM42 21C42 26.7845 39.9764 31.7482 35.8527 35.8527C31.7482 39.9764 26.7845 42 21 42C15.2155 42 10.2709 39.9764 6.14727 35.8527C2.02364 31.7482 0 26.7845 0 21C0 15.2155 2.02364 10.2709 6.14727 6.14727C10.2709 2.02364 15.2155 0 21 0C26.7845 0 31.7482 2.02364 35.8527 6.14727C39.9764 10.2709 42 15.2155 42 21Z" fill="white"/>
</svg>
