<svg width="162" height="162" viewBox="0 0 162 162" fill="none" xmlns="http://www.w3.org/2000/svg">
<path fill-rule="evenodd" clip-rule="evenodd" d="M27 28.6875C22.0769 28.6875 17.3555 30.6432 13.8743 34.1243C10.3932 37.6055 8.4375 42.3269 8.4375 47.25V114.75C8.4375 119.673 10.3932 124.395 13.8743 127.876C17.3555 131.357 22.0769 133.312 27 133.312H135C139.923 133.312 144.645 131.357 148.126 127.876C151.607 124.395 153.562 119.673 153.562 114.75V47.25C153.562 42.3269 151.607 37.6055 148.126 34.1243C144.645 30.6432 139.923 28.6875 135 28.6875H27ZM128.702 84.3818C129.164 83.8908 129.523 83.3127 129.758 82.6814C129.993 82.05 130.1 81.378 130.072 80.7049C130.044 80.0317 129.882 79.3709 129.595 78.7611C129.309 78.1514 128.903 77.6049 128.403 77.1539C127.902 76.7028 127.317 76.3562 126.681 76.1343C126.044 75.9125 125.37 75.8198 124.698 75.8618C124.026 75.9038 123.368 76.0796 122.765 76.3789C122.161 76.6782 121.623 77.0949 121.183 77.6047L121.115 77.679C120.654 78.1699 120.295 78.748 120.06 79.3794C119.825 80.0108 119.718 80.6827 119.746 81.3559C119.774 82.0291 119.936 82.6899 120.222 83.2996C120.509 83.9094 120.914 84.4558 121.415 84.9069C121.915 85.3579 122.501 85.7046 123.137 85.9264C123.773 86.1483 124.447 86.241 125.12 86.199C125.792 86.157 126.449 85.9812 127.053 85.6819C127.656 85.3826 128.194 84.9658 128.635 84.456L128.702 84.3818ZM40.581 77.2267C41.0756 77.6719 41.4776 78.2102 41.764 78.8109C42.0504 79.4115 42.2155 80.0627 42.25 80.7273C42.2845 81.3918 42.1876 82.0566 41.9649 82.6837C41.7422 83.3108 41.3981 83.8878 40.9522 84.3818L40.8848 84.456C40.4443 84.9658 39.9065 85.3826 39.3029 85.6819C38.6992 85.9812 38.0419 86.157 37.3695 86.199C36.6971 86.241 36.023 86.1483 35.3869 85.9264C34.7507 85.7046 34.1652 85.3579 33.6647 84.9069C33.1643 84.4558 32.7588 83.9094 32.4723 83.2996C32.1857 82.6899 32.0237 82.0291 31.9958 81.3559C31.9679 80.6827 32.0747 80.0108 32.3098 79.3794C32.545 78.748 32.9038 78.1699 33.3652 77.679L33.4328 77.6047C34.3316 76.6079 35.5895 76.0088 36.93 75.9391C38.2705 75.8695 39.5837 76.3351 40.581 77.2335M81 55.6875C74.2867 55.6875 67.8484 58.3543 63.1014 63.1014C58.3543 67.8484 55.6875 74.2867 55.6875 81C55.6875 87.7133 58.3543 94.1516 63.1014 98.8986C67.8484 103.646 74.2867 106.312 81 106.312C87.7133 106.312 94.1516 103.646 98.8986 98.8986C103.646 94.1516 106.312 87.7133 106.312 81C106.312 74.2867 103.646 67.8484 98.8986 63.1014C94.1516 58.3543 87.7133 55.6875 81 55.6875Z" fill="white"/>
</svg>
