<svg width="210" height="210" viewBox="0 0 210 210" fill="none" xmlns="http://www.w3.org/2000/svg">
<path d="M140 17.5H70C65.3587 17.5 60.9075 19.3437 57.6256 22.6256C54.3437 25.9075 52.5 30.3587 52.5 35V175C52.5 179.641 54.3437 184.092 57.6256 187.374C60.9075 190.656 65.3587 192.5 70 192.5H140C144.641 192.5 149.092 190.656 152.374 187.374C155.656 184.092 157.5 179.641 157.5 175V35C157.5 30.3587 155.656 25.9075 152.374 22.6256C149.092 19.3437 144.641 17.5 140 17.5ZM113.75 183.75H96.25V175H113.75V183.75ZM140 166.25H70V43.75H140V166.25Z" fill="white"/>
</svg>
