<svg width="53" height="52" viewBox="0 0 53 52" fill="none" xmlns="http://www.w3.org/2000/svg">
<path fill-rule="evenodd" clip-rule="evenodd" d="M47.9761 38.8984C45.2017 38.8231 43.0495 39.1017 41.2441 39.8499C40.7265 40.0557 39.8926 40.0557 39.8238 40.6984C40.1043 40.9696 40.1349 41.4114 40.3797 41.7855C40.7953 42.4633 41.5246 43.3797 42.1825 43.8542L44.401 45.4157C45.7551 46.2317 47.2825 46.7062 48.6009 47.5196C49.3633 47.9966 50.1258 48.6066 50.8908 49.1163C51.2784 49.3874 51.513 49.8293 52 50V49.8971C51.7577 49.5908 51.6864 49.1514 51.4467 48.81L50.4037 47.8259C49.3874 46.5074 48.1703 45.3515 46.7955 44.399C45.6862 43.6508 43.2586 42.6341 42.8073 41.3788L42.7384 41.3035C43.5009 41.2282 44.4036 40.962 45.1329 40.7587C46.3135 40.4549 47.3871 40.5202 48.6009 40.2164L50.266 39.7394V39.4381C49.6413 38.8256 49.1899 38.0096 48.532 37.4347C46.7365 35.8991 44.8225 34.5032 42.8073 33.2597C41.7312 32.5818 40.344 32.1375 39.199 31.5626C38.7808 31.3592 38.0898 31.2563 37.8476 30.9174C37.2203 30.1717 36.876 29.1851 36.4247 28.3039L33.5789 22.3966C32.9541 21.0735 32.5716 19.7505 31.8092 18.5303C28.2392 12.7561 24.3505 9.26141 18.3835 5.83201C17.1008 5.11902 15.5759 4.81273 13.9516 4.44117L11.3506 4.30309C10.7947 4.0671 10.2388 3.42189 9.75431 3.1156C7.77807 1.89297 2.67809 -0.753142 1.2195 2.73651C0.281101 4.94077 2.60669 7.11239 3.39719 8.2346C3.98624 9.01287 4.74868 9.89658 5.16688 10.7803C5.39893 11.3577 5.47798 11.9678 5.72023 12.5778C6.27613 14.0716 6.79633 15.7361 7.52562 17.1269C7.91322 17.8399 8.32122 18.5881 8.80827 19.2333C9.08622 19.6124 9.57326 19.7756 9.67526 20.3881C9.19077 21.066 9.15507 22.0828 8.87712 22.9338C7.62762 26.7699 8.11212 31.5199 9.88436 34.3442C10.4403 35.1928 11.7484 37.0607 13.5257 36.3477C15.0889 35.7351 14.7395 33.802 15.1909 32.1048C15.2954 31.6981 15.2266 31.427 15.4331 31.1533V31.2287L16.856 34.048C17.9321 35.71 19.8064 37.4423 21.367 38.5971C22.1983 39.2072 22.8562 40.2591 23.8966 40.6307V40.5302H23.8303C23.6212 40.2265 23.3075 40.0884 23.0296 39.8524C22.3732 39.2223 21.7703 38.5405 21.2267 37.8138C19.7603 35.8649 18.4612 33.7991 17.3431 31.6379C16.7872 30.5835 16.3001 29.4311 15.8513 28.3792C15.6397 27.9725 15.6397 27.3599 15.2954 27.1566C14.7727 27.9022 14.0128 28.5499 13.6277 29.4663C12.9699 30.9224 12.901 32.7224 12.6588 34.5903C12.5185 34.6254 12.5823 34.5903 12.5185 34.6656C11.4093 34.397 11.0268 33.2748 10.6111 32.3258C9.57072 29.9157 9.39732 26.0469 10.2975 23.2627C10.5423 22.5497 11.5827 20.3078 11.167 19.63C10.9579 18.9847 10.2643 18.6132 9.88181 18.1035C9.39958 17.4183 8.98138 16.6915 8.63232 15.9319C7.80357 14.0289 7.38537 11.9251 6.48268 10.0246C6.06703 9.14091 5.33773 8.22456 4.74868 7.41114C4.08824 6.4948 3.36149 5.84959 2.84129 4.76252C2.66789 4.38343 2.42564 3.77839 2.70359 3.37168C2.76989 3.10054 2.91014 2.99008 3.18809 2.92982C3.63689 2.55073 4.92208 3.03025 5.37343 3.2336C6.65608 3.74324 7.73217 4.21773 8.80827 4.93073C9.29277 5.26965 9.81296 5.91486 10.4403 6.08558H11.167C12.2788 6.32408 13.5257 6.16089 14.5661 6.46718C16.4021 7.0446 18.0698 7.89066 19.5641 8.80952C24.1537 11.6653 27.8888 15.672 30.3863 20.4183C30.8019 21.199 30.9728 21.912 31.3553 22.728C32.0871 24.3899 32.9873 26.0871 33.7166 27.7164C34.4459 29.3131 35.1395 30.9425 36.1799 32.2655C36.7001 32.9785 38.7809 33.3526 39.7167 33.7267C40.4103 34.0279 41.4864 34.3041 42.1137 34.6756C43.2892 35.3886 44.4699 36.2046 45.5791 36.9853C46.1325 37.3921 47.869 38.2406 47.9736 38.9185L47.9761 38.8984ZM12.5976 9.402C12.1186 9.39899 11.6413 9.45636 11.1772 9.57272V9.64804H11.2461C11.524 10.1903 12.0111 10.5644 12.3553 11.0414L13.1534 12.6707L13.2223 12.5954C13.7068 12.254 13.9516 11.7117 13.9516 10.8983C13.7425 10.6598 13.7093 10.4213 13.5359 10.1853C13.3268 9.84637 12.8755 9.67565 12.5976 9.40452" fill="white"/>
<path d="M12.5976 9.402C12.1186 9.39899 11.6413 9.45636 11.1772 9.57272V9.64804H11.2461C11.524 10.1903 12.0111 10.5644 12.3553 11.0414L13.1534 12.6707L13.2223 12.5954C13.7068 12.254 13.9516 11.7117 13.9516 10.8983C13.7425 10.6598 13.7093 10.4213 13.5359 10.1853C13.3268 9.84637 12.8755 9.67565 12.5976 9.40452M47.9761 38.8984C45.2017 38.8231 43.0495 39.1017 41.2441 39.8499C40.7265 40.0557 39.8926 40.0557 39.8238 40.6984C40.1043 40.9696 40.1349 41.4114 40.3797 41.7855C40.7953 42.4633 41.5246 43.3797 42.1825 43.8542L44.401 45.4157C45.7551 46.2317 47.2825 46.7062 48.6009 47.5196C49.3633 47.9966 50.1258 48.6066 50.8908 49.1163C51.2784 49.3874 51.513 49.8293 52 50V49.8971C51.7577 49.5908 51.6864 49.1514 51.4467 48.81L50.4037 47.8259C49.3874 46.5074 48.1703 45.3515 46.7955 44.399C45.6862 43.6508 43.2586 42.6341 42.8073 41.3788L42.7384 41.3035C43.5009 41.2282 44.4036 40.962 45.1329 40.7587C46.3135 40.4549 47.3871 40.5202 48.6009 40.2164L50.266 39.7394V39.4381C49.6413 38.8256 49.1899 38.0096 48.532 37.4347C46.7365 35.8991 44.8225 34.5032 42.8073 33.2597C41.7312 32.5818 40.344 32.1375 39.199 31.5626C38.7808 31.3592 38.0898 31.2563 37.8476 30.9174C37.2203 30.1717 36.876 29.1851 36.4247 28.3039L33.5789 22.3966C32.9541 21.0735 32.5716 19.7505 31.8092 18.5303C28.2392 12.7561 24.3505 9.26141 18.3835 5.83201C17.1008 5.11902 15.5759 4.81273 13.9516 4.44117L11.3506 4.30309C10.7947 4.0671 10.2388 3.42189 9.75431 3.1156C7.77807 1.89297 2.67809 -0.753142 1.2195 2.73651C0.281101 4.94077 2.60669 7.11239 3.39719 8.2346C3.98624 9.01287 4.74868 9.89658 5.16688 10.7803C5.39893 11.3577 5.47798 11.9678 5.72023 12.5778C6.27613 14.0716 6.79633 15.7361 7.52562 17.1269C7.91322 17.8399 8.32122 18.5881 8.80827 19.2333C9.08622 19.6124 9.57326 19.7756 9.67526 20.3881C9.19077 21.066 9.15507 22.0828 8.87712 22.9338C7.62762 26.7699 8.11212 31.5199 9.88436 34.3442C10.4403 35.1928 11.7484 37.0607 13.5257 36.3477C15.0889 35.7351 14.7395 33.802 15.1909 32.1048C15.2954 31.6981 15.2266 31.427 15.4331 31.1533V31.2287L16.856 34.048C17.9321 35.71 19.8064 37.4423 21.367 38.5971C22.1983 39.2072 22.8562 40.2591 23.8966 40.6307V40.5302H23.8303C23.6212 40.2265 23.3075 40.0884 23.0296 39.8524C22.3732 39.2223 21.7703 38.5405 21.2267 37.8138C19.7603 35.8649 18.4612 33.7991 17.3431 31.6379C16.7872 30.5835 16.3001 29.4311 15.8513 28.3792C15.6397 27.9725 15.6397 27.3599 15.2954 27.1566C14.7727 27.9022 14.0128 28.5499 13.6277 29.4663C12.9699 30.9224 12.901 32.7224 12.6588 34.5903C12.5185 34.6254 12.5823 34.5903 12.5185 34.6656C11.4093 34.397 11.0268 33.2748 10.6111 32.3258C9.57072 29.9157 9.39732 26.0469 10.2975 23.2627C10.5423 22.5497 11.5827 20.3078 11.167 19.63C10.9579 18.9847 10.2643 18.6132 9.88181 18.1035C9.39958 17.4183 8.98138 16.6915 8.63232 15.9319C7.80357 14.0289 7.38537 11.9251 6.48268 10.0246C6.06703 9.14091 5.33773 8.22456 4.74868 7.41114C4.08824 6.4948 3.36149 5.84959 2.84129 4.76252C2.66789 4.38343 2.42564 3.77839 2.70359 3.37168C2.76989 3.10054 2.91014 2.99008 3.18809 2.92982C3.63689 2.55073 4.92208 3.03025 5.37343 3.2336C6.65608 3.74324 7.73217 4.21773 8.80827 4.93073C9.29277 5.26965 9.81296 5.91486 10.4403 6.08558H11.167C12.2788 6.32408 13.5257 6.16089 14.5661 6.46718C16.4021 7.0446 18.0698 7.89066 19.5641 8.80952C24.1537 11.6653 27.8888 15.672 30.3863 20.4183C30.8019 21.199 30.9728 21.912 31.3553 22.728C32.0871 24.3899 32.9873 26.0871 33.7166 27.7164C34.4459 29.3131 35.1395 30.9425 36.1799 32.2655C36.7001 32.9785 38.7809 33.3526 39.7167 33.7267C40.4103 34.0279 41.4864 34.3041 42.1137 34.6756C43.2892 35.3886 44.4699 36.2046 45.5791 36.9853C46.1325 37.3921 47.869 38.2406 47.9736 38.9185L47.9761 38.8984Z" stroke="white" stroke-width="1.5"/>
</svg>
