<svg width="117" height="115" viewBox="0 0 117 115" fill="none" xmlns="http://www.w3.org/2000/svg">
<path d="M48.5 7H5.5L5.50012 109H110.5V67" stroke="white" stroke-width="11"/>
<path d="M116.5 7.05786C116.532 4.02047 114.095 1.53225 111.058 1.50028L61.5606 0.979253C58.5232 0.94728 56.035 3.38366 56.0031 6.42106C55.9711 9.45845 58.4075 11.9467 61.4449 11.9786L105.442 12.4418L104.979 56.4393C104.947 59.4767 107.384 61.965 110.421 61.9969C113.458 62.0289 115.947 59.5925 115.979 56.5551L116.5 7.05786ZM52.9171 63.8728L56.7651 67.8026L114.848 10.9298L111 6.99997L107.152 3.07017L49.0692 59.943L52.9171 63.8728Z" fill="white"/>
</svg>
