<svg width="48" height="50" viewBox="0 0 48 50" fill="none" xmlns="http://www.w3.org/2000/svg">
<path d="M8.68542 9.41834C10.2104 10.6561 10.7796 10.5621 13.6416 10.3715L40.6211 8.75244C41.1956 8.75244 40.7177 8.17795 40.5271 8.08394L36.0462 4.84586C35.1871 4.17996 34.0433 3.41484 31.8525 3.60546L5.72686 5.51175C4.77637 5.60576 4.58574 6.08364 4.96438 6.4649L8.68542 9.41834ZM10.3044 15.7065V44.0919C10.3044 45.6195 11.0669 46.1888 12.7851 46.0948L42.4333 44.3791C44.1489 44.2851 44.3395 43.2354 44.3395 41.995V13.8002C44.3395 12.5624 43.8643 11.8939 42.8145 11.9905L11.8294 13.8002C10.6856 13.8942 10.3044 14.4661 10.3044 15.7065ZM39.5766 17.2289C39.7646 18.0854 39.5766 18.9446 38.7149 19.0412L37.2865 19.3258V40.2819C36.0462 40.9504 34.9024 41.3291 33.9493 41.3291C32.4243 41.3291 32.0431 40.8538 30.8994 39.4254L21.5537 24.7548V38.9501L24.5122 39.616C24.5122 39.616 24.5122 41.3291 22.1256 41.3291L15.5478 41.7103C15.3572 41.3291 15.5478 40.3785 16.2163 40.1879L17.9319 39.7127V20.9449L15.5478 20.7542C15.3572 19.8951 15.835 18.6573 17.1694 18.5607L24.225 18.0854L33.9493 32.9492V19.8011L31.4686 19.5164C31.2806 18.4667 32.0431 17.7068 32.9962 17.6102L39.5766 17.2289ZM3.53341 2.93957L30.7061 0.939272C34.0407 0.652023 34.8998 0.845263 36.9993 2.36768L45.6713 8.46519C47.1022 9.51235 47.5801 9.79698 47.5801 10.9408V44.3791C47.5801 46.4761 46.8176 47.7138 44.1489 47.9045L12.5919 49.8108C10.589 49.9048 9.63591 49.6201 8.58619 48.2857L2.19906 39.9973C1.05533 38.4723 0.580078 37.3311 0.580078 35.9941V6.27166C0.580078 4.55861 1.33995 3.1302 3.53341 2.93957Z" fill="white"/>
</svg>
