<svg width="47" height="47" viewBox="0 0 47 47" fill="none" xmlns="http://www.w3.org/2000/svg">
<path d="M42.0982 9.13655C34.1691 -1.13312 19.4109 -3.03195 9.13654 4.90178C-1.13312 12.8308 -3.03195 27.5891 4.90178 37.8634C12.8332 48.1331 27.5914 50.032 37.8634 42.0982L37.8681 42.0935C48.1354 34.1598 50.0295 19.4062 42.0982 9.13655ZM36.0844 14.9999L34.2514 13.1951L33.8542 12.8003L33.9647 12.6898L36.7471 10.0625C37.2453 10.6664 37.5179 11.4255 37.5179 12.2128C37.5156 13.1293 37.149 14.0105 36.498 14.6592C36.368 14.7845 36.2301 14.8981 36.0844 14.9999ZM11.0401 34.6345L11.3667 34.94L13.0705 36.6438L9.27755 36.397L11.0401 34.6345ZM34.0516 8.76525C34.8154 8.76995 35.558 9.02375 36.1667 9.48906L33.1116 12.5629C33.0663 12.5994 33.0314 12.6472 33.0106 12.7016L33.0082 12.7133L33.0035 12.7274C32.9864 12.7862 32.9873 12.8488 33.0062 12.907C33.025 12.9653 33.061 13.0165 33.1093 13.0541L35.4217 15.3642C34.7893 15.6391 34.0887 15.7172 33.4112 15.5881C32.7338 15.4589 32.111 15.1287 31.6241 14.6403C31.1461 14.1579 30.821 13.5452 30.6893 12.8789C30.5577 12.2127 30.6253 11.5224 30.8838 10.8944C31.1416 10.2657 31.5804 9.72771 32.1443 9.34866C32.7083 8.96961 33.3721 8.76656 34.0516 8.76525ZM31.9155 16.4405C31.9112 16.5899 31.876 16.7368 31.8121 16.8719C31.7482 17.007 31.6569 17.1273 31.5442 17.2254L22.3908 25.1897L22.3602 25.2155L22.0265 24.8818L21.8808 24.7361L21.8103 24.6656L21.6058 24.4612L21.5283 24.3836L21.3708 24.2262L30.0354 15.6391C30.2121 15.4588 30.4462 15.346 30.6973 15.3202C30.9484 15.2945 31.2006 15.3574 31.4102 15.4981C31.4725 15.5395 31.5308 15.5867 31.5841 15.6391L31.6711 15.7284C31.7463 15.8412 31.8113 15.9587 31.8661 16.0809C31.9021 16.1984 31.9186 16.3183 31.9155 16.4405ZM21.345 25.2296L21.3614 25.2743L21.4413 25.3518L21.7844 25.6879L21.6575 25.7043L19.7564 25.937L19.9914 25.702L20.9102 24.7855L21.345 25.2296ZM30.5806 14.6568C30.1888 14.7085 29.8251 14.8886 29.5466 15.1691L20.9102 23.7656L19.2182 22.0735C23.695 17.6132 26.4328 15.2866 28.1366 14.5228C28.5076 14.2891 28.9421 14.1764 29.38 14.2004C29.8178 14.2244 30.2374 14.3839 30.5806 14.6568ZM18.7176 22.5717L18.7529 22.607L20.1512 24.0053L16.5039 24.7855L18.7176 22.5717ZM13.94 33.9882C13.8258 34.0418 13.7339 34.1336 13.6803 34.2477C13.6266 34.3619 13.6146 34.4912 13.6463 34.6133L14.0364 36.3171C14.0511 36.3372 14.059 36.3615 14.059 36.3864C14.059 36.4114 14.0511 36.4357 14.0364 36.4558C14.0149 36.4746 13.9874 36.485 13.9588 36.485C13.9303 36.485 13.9027 36.4746 13.8813 36.4558L11.5688 34.1245L18.6894 26.8982L22.3767 26.3271L23.7303 27.6807C20.7339 30.1714 17.4465 32.2894 13.94 33.9882ZM24.3765 27.1731L22.9477 25.7443L31.946 17.8529C31.3068 20.3909 27.9133 23.8314 24.3765 27.1731ZM36.773 11.7804C36.7361 11.7182 36.6775 11.6719 36.6086 11.6502C36.5397 11.6286 36.4652 11.633 36.3993 11.6628C36.3672 11.6795 36.3387 11.7023 36.3153 11.7299C36.292 11.7576 36.2744 11.7896 36.2635 11.8241C36.2526 11.8586 36.2486 11.8949 36.2517 11.931C36.2549 11.967 36.2651 12.0021 36.2818 12.0342C36.3493 12.1759 36.3761 12.3336 36.359 12.4896C36.342 12.6457 36.2819 12.7939 36.1855 12.9178C36.1605 12.9415 36.141 12.9704 36.1284 13.0025C36.1158 13.0346 36.1104 13.069 36.1126 13.1034C36.1126 13.1755 36.1361 13.2374 36.1831 13.2891C36.234 13.3072 36.2897 13.3072 36.3406 13.2891C36.3863 13.3008 36.4343 13.2997 36.4795 13.286C36.5246 13.2724 36.5652 13.2466 36.5967 13.2115C36.7595 13.0146 36.8626 12.7753 36.8939 12.5217C36.9251 12.2681 36.8832 12.0109 36.773 11.7804Z" fill="white"/>
</svg>
