<svg width="384" height="384" viewBox="0 0 384 384" fill="none" xmlns="http://www.w3.org/2000/svg">
<path d="M156.938 158.25C154.063 162.875 150.75 167.062 147 170.812C143.25 174.562 139 177.938 134.25 180.938L143.812 204.188L121.688 213.188L112.125 190.125C107.125 191.375 101.75 192 96 192C90.25 192 84.875 191.375 79.875 190.125L70.3125 213.188L48.1875 204.188L57.75 180.938C53.125 178.063 48.9375 174.75 45.1875 171C41.4375 167.25 38.0625 163 35.0625 158.25L11.8125 167.812L2.8125 145.688L25.875 136.125C24.625 131.125 24 125.75 24 120C24 114.25 24.625 108.875 25.875 103.875L2.8125 94.3125L11.8125 72.1875L35.0625 81.75C40.8125 72.375 48.375 64.8125 57.75 59.0625L48.1875 35.8125L70.3125 26.8125L79.875 49.875C84.875 48.625 90.25 48 96 48C101.75 48 107.125 48.625 112.125 49.875L121.688 26.8125L143.812 35.8125L134.25 59.0625C143.625 64.8125 151.188 72.375 156.938 81.75L180.188 72.1875L189.188 94.3125L166.125 103.875C167.375 108.875 168 114.25 168 120C168 125.75 167.375 131.125 166.125 136.125L189.188 145.688L180.188 167.812L156.938 158.25ZM96 168C102.625 168 108.813 166.75 114.562 164.25C120.312 161.75 125.438 158.313 129.938 153.938C134.438 149.562 137.875 144.5 140.25 138.75C142.625 133 143.875 126.75 144 120C144 113.375 142.75 107.187 140.25 101.438C137.75 95.6875 134.313 90.5625 129.938 86.0625C125.562 81.5625 120.5 78.125 114.75 75.75C109 73.375 102.75 72.125 96 72C89.375 72 83.1875 73.25 77.4375 75.75C71.6875 78.25 66.5625 81.6875 62.0625 86.0625C57.5625 90.4375 54.125 95.5 51.75 101.25C49.375 107 48.125 113.25 48 120C48 126.625 49.25 132.813 51.75 138.562C54.25 144.312 57.6875 149.438 62.0625 153.938C66.4375 158.438 71.5 161.875 77.25 164.25C83 166.625 89.25 167.875 96 168ZM360 252C360 258.875 359.125 265.813 357.375 272.812L383.062 283.312L374.062 305.625L348.188 294.938C340.813 307.188 331.062 316.937 318.938 324.188L329.625 349.875L307.312 359.062L296.812 333.375C289.813 335.125 282.875 336 276 336C269.125 336 262.187 335.125 255.188 333.375L244.688 359.062L222.375 349.875L233.062 324.188C220.812 316.937 211.063 307.188 203.812 294.938L177.938 305.625L168.938 283.312L194.625 272.812C192.875 265.813 192 258.875 192 252C192 245.125 192.875 238.187 194.625 231.188L168.938 220.688L177.938 198.375L203.812 209.062C211.063 196.938 220.812 187.187 233.062 179.812L222.375 153.938L244.688 144.938L255.188 170.625C262.187 168.875 269.125 168 276 168C282.875 168 289.813 168.875 296.812 170.625L307.312 144.938L329.625 153.938L318.938 179.812C331.062 187.187 340.813 196.938 348.188 209.062L374.062 198.375L383.062 220.688L357.375 231.188C359.125 238.187 360 245.125 360 252ZM276 312C284.25 312 292 310.437 299.25 307.312C306.5 304.188 312.813 299.937 318.188 294.562C323.562 289.188 327.875 282.812 331.125 275.438C334.375 268.063 336 260.25 336 252C336 243.75 334.437 236 331.312 228.75C328.188 221.5 323.875 215.187 318.375 209.812C312.875 204.438 306.5 200.125 299.25 196.875C292 193.625 284.25 192 276 192C267.75 192 260 193.563 252.75 196.688C245.5 199.812 239.125 204.125 233.625 209.625C228.125 215.125 223.812 221.5 220.688 228.75C217.563 236 216 243.75 216 252C216 260.25 217.563 268 220.688 275.25C223.812 282.5 228.063 288.875 233.438 294.375C238.812 299.875 245.188 304.188 252.562 307.312C259.937 310.437 267.75 312 276 312Z" fill="white"/>
</svg>
