<svg width="60" height="55" viewBox="0 0 60 55" fill="none" xmlns="http://www.w3.org/2000/svg">
<path d="M13.6353 18.4001C5.98799 20.3721 1 23.7506 1 27.6076C1 33.7179 13.7745 38.7001 29.5649 38.7001C31.7109 38.7001 33.2189 38.587 35.2199 38.4188" stroke="white" stroke-width="2" stroke-linecap="round" stroke-linejoin="round"/>
<path d="M23.7273 38.4106C22.5296 36.6822 21.3899 35.1249 20.3053 33.1906C12.3274 18.9806 10.1901 4.85764 15.5783 1.65894C18.9133 -0.362353 24.4146 2.39264 30.0029 8.19554" stroke="white" stroke-width="2" stroke-linecap="round" stroke-linejoin="round"/>
<path d="M13.8444 36.9226C11.8086 44.7178 12.2204 50.599 15.4684 52.5681C20.6391 55.7001 31.0906 46.8899 38.793 32.8365C39.837 30.8935 40.7737 28.9824 41.6002 27.1003" stroke="white" stroke-width="2" stroke-linecap="round" stroke-linejoin="round"/>
<path d="M30 46.0082C35.5912 51.8082 41.0693 54.5632 44.4362 52.5419C49.8012 49.3461 47.6871 35.2232 39.7005 21.0103C38.5869 19.047 37.4472 17.5187 36.2785 15.7903" stroke="white" stroke-width="2" stroke-linecap="round" stroke-linejoin="round"/>
<path d="M46.4142 35.8005C53.989 33.8082 59.0002 30.4355 59.0002 26.5901C59.0002 20.4711 46.217 15.5005 30.4498 15.5005C28.2835 15.5005 26.7784 15.5846 24.7803 15.7528" stroke="white" stroke-width="2" stroke-linecap="round" stroke-linejoin="round"/>
<path d="M18.3994 27.0998C19.2259 25.1858 20.1597 23.3066 21.2066 21.3636C28.8829 7.31598 39.3403 -1.51741 44.54 1.64069C47.759 3.60979 48.1998 9.48808 46.164 17.2804M30.7534 27.1433H30.7244C30.6954 27.5203 30.3764 27.8393 29.9704 27.8393C29.7762 27.8297 29.593 27.7463 29.4583 27.6061C29.3235 27.466 29.2474 27.2797 29.2454 27.0853C29.2454 26.6793 29.5644 26.3603 29.9414 26.3603H29.9124C30.2894 26.3313 30.6374 26.6793 30.6374 27.0563" stroke="white" stroke-width="2" stroke-linecap="round" stroke-linejoin="round"/>
</svg>
