<svg width="49" height="44" viewBox="0 0 49 44" fill="none" xmlns="http://www.w3.org/2000/svg">
<mask id="path-1-inside-1_117_41" fill="white">
<path d="M24.5 17.6764C26.8474 17.6764 28.7619 19.598 28.7619 22C28.7619 24.2876 26.8474 26.2321 24.5 26.2321C22.1526 26.2321 20.2381 24.2876 20.2381 22C20.2381 19.598 22.1526 17.6764 24.5 17.6764ZM13.9479 40.3009C15.3837 41.1702 18.5288 39.8433 22.1526 36.4119C20.9674 35.0622 19.8051 33.5982 18.7112 32.0655C16.8746 31.8891 15.0487 31.6142 13.2414 31.2419C12.0791 36.1374 12.5121 39.5002 13.9479 40.3009ZM15.566 27.17L14.9051 26.0033C14.6544 26.6667 14.4037 27.3301 14.2442 27.9707C14.8595 28.1079 15.5433 28.2223 16.2498 28.3367L15.566 27.17ZM30.4712 25.4314L32.3172 22L30.4712 18.5686C29.7874 17.3562 29.0581 16.281 28.3972 15.2058C27.1665 15.1372 25.8674 15.1372 24.5 15.1372C23.1326 15.1372 21.8335 15.1372 20.6028 15.2058C19.9419 16.281 19.2126 17.3562 18.5288 18.5686L16.6828 22L18.5288 25.4314C19.2126 26.6438 19.9419 27.719 20.6028 28.7942C21.8335 28.8628 23.1326 28.8628 24.5 28.8628C25.8674 28.8628 27.1665 28.8628 28.3972 28.7942C29.0581 27.719 29.7874 26.6438 30.4712 25.4314ZM24.5 10.0587C24.067 10.562 23.6112 11.0881 23.1554 11.7058H25.8447C25.3888 11.0881 24.933 10.562 24.5 10.0587ZM24.5 33.9413C24.933 33.438 25.3888 32.9119 25.8447 32.2942H23.1554C23.6112 32.9119 24.067 33.438 24.5 33.9413ZM35.0293 3.69914C33.6163 2.82985 30.4712 4.15666 26.8474 7.58807C28.0326 8.93776 29.1949 10.4018 30.2888 11.9345C32.1577 12.1175 34.0037 12.392 35.7586 12.7581C36.9209 7.86258 36.4879 4.4998 35.0293 3.69914ZM33.434 16.83L34.0949 17.9967C34.3456 17.3333 34.5963 16.6699 34.7558 16.0293C34.1405 15.8921 33.4567 15.7777 32.7502 15.6633L33.434 16.83ZM36.7386 0.702371C40.0888 2.62396 40.4535 7.67957 39.0405 13.5816C44.8293 15.2973 49 18.1339 49 22C49 25.8661 44.8293 28.7027 39.0405 30.4184C40.4535 36.3204 40.0888 41.376 36.7386 43.2976C33.4112 45.2192 28.8758 43.0231 24.5 38.8368C20.1242 43.0231 15.5888 45.2192 12.2386 43.2976C8.91116 41.376 8.54651 36.3204 9.95953 30.4184C4.1707 28.7027 0 25.8661 0 22C0 18.1339 4.1707 15.2973 9.95953 13.5816C8.54651 7.67957 8.91116 2.62396 12.2386 0.702371C15.5888 -1.21922 20.1242 0.976883 24.5 5.16321C28.8758 0.976883 33.4112 -1.21922 36.7386 0.702371ZM36.0777 22C36.8526 23.7157 37.5363 25.4314 38.106 27.17C42.8921 25.7288 45.5814 23.67 45.5814 22C45.5814 20.33 42.8921 18.2712 38.106 16.83C37.5363 18.5686 36.8526 20.2843 36.0777 22ZM12.9223 22C12.1474 20.2843 11.4637 18.5686 10.894 16.83C6.10791 18.2712 3.4186 20.33 3.4186 22C3.4186 23.67 6.10791 25.7288 10.894 27.17C11.4637 25.4314 12.1474 23.7157 12.9223 22ZM33.434 27.17L32.7502 28.3367C33.4567 28.2223 34.1405 28.1079 34.7558 27.9707C34.5963 27.3301 34.3456 26.6667 34.0949 26.0033L33.434 27.17ZM26.8474 36.4119C30.4712 39.8433 33.6163 41.1702 35.0293 40.3009C36.4879 39.5002 36.9209 36.1374 35.7586 31.2419C34.0037 31.608 32.1577 31.8825 30.2888 32.0655C29.1949 33.5982 28.0326 35.0622 26.8474 36.4119ZM15.566 16.83L16.2498 15.6633C15.5433 15.7777 14.8595 15.8921 14.2442 16.0293C14.4037 16.6699 14.6544 17.3333 14.9051 17.9967L15.566 16.83ZM22.1526 7.58807C18.5288 4.15666 15.3837 2.82985 13.9479 3.69914C12.5121 4.4998 12.0791 7.86258 13.2414 12.7581C15.0487 12.3859 16.8746 12.1109 18.7112 11.9345C19.8051 10.4018 20.9674 8.93776 22.1526 7.58807Z"/>
</mask>
<path d="M13.9479 40.3009L22.2345 26.6139L21.99 26.4659L21.7404 26.3267L13.9479 40.3009ZM22.1526 36.4119L33.1538 48.0297L44.343 37.4344L34.1755 25.855L22.1526 36.4119ZM18.7112 32.0655L31.7342 22.7703L27.4986 16.8359L20.2411 16.1388L18.7112 32.0655ZM13.2414 31.2419L16.4688 15.5708L1.261 12.4388L-2.32584 27.5458L13.2414 31.2419ZM15.566 27.17L1.64473 35.0565L1.70256 35.1586L1.76187 35.2598L15.566 27.17ZM14.9051 26.0033L28.8264 18.1168L12.0032 -11.5797L-0.061858 20.3474L14.9051 26.0033ZM14.2442 27.9707L-1.2815 24.1037L-5.2449 40.0167L10.7609 43.5869L14.2442 27.9707ZM16.2498 28.3367L13.6927 44.131L47.2332 49.561L30.0539 20.2469L16.2498 28.3367ZM30.4712 25.4314L44.4079 33.2907L44.4861 33.152L44.5615 33.0118L30.4712 25.4314ZM32.3172 22L46.4076 29.5804L50.4857 22L46.4076 14.4196L32.3172 22ZM30.4712 18.5686L44.5615 10.9882L44.4861 10.848L44.4079 10.7093L30.4712 18.5686ZM28.3972 15.2058L42.0278 6.82683L37.6447 -0.303377L29.288 -0.769376L28.3972 15.2058ZM20.6028 15.2058L19.712 -0.769376L11.3553 -0.303377L6.97221 6.82683L20.6028 15.2058ZM18.5288 18.5686L4.59213 10.7093L4.51393 10.848L4.4385 10.9882L18.5288 18.5686ZM16.6828 22L2.59245 14.4196L-1.48569 22L2.59245 29.5804L16.6828 22ZM18.5288 25.4314L4.4385 33.0118L4.51393 33.152L4.59213 33.2907L18.5288 25.4314ZM20.6028 28.7942L6.97221 37.1732L11.3553 44.3034L19.712 44.7694L20.6028 28.7942ZM28.3972 28.7942L29.288 44.7694L37.6447 44.3034L42.0278 37.1732L28.3972 28.7942ZM24.5 10.0587L36.6285 -0.37682L24.5 -14.4729L12.3715 -0.37682L24.5 10.0587ZM23.1554 11.7058L10.2814 2.20512L-8.53743 27.7058H23.1554V11.7058ZM25.8447 11.7058V27.7058H57.5374L38.7186 2.20512L25.8447 11.7058ZM24.5 33.9413L12.3715 44.3768L24.5 58.4729L36.6285 44.3768L24.5 33.9413ZM25.8447 32.2942L38.7186 41.7949L57.5374 16.2942H25.8447V32.2942ZM23.1554 32.2942V16.2942H-8.53743L10.2814 41.7949L23.1554 32.2942ZM35.0293 3.69914L26.6456 17.3268L26.983 17.5344L27.3302 17.725L35.0293 3.69914ZM26.8474 7.58807L15.8462 -4.02971L4.65705 6.56564L14.8245 18.145L26.8474 7.58807ZM30.2888 11.9345L17.2658 21.2297L21.491 27.1495L28.7295 27.8584L30.2888 11.9345ZM35.7586 12.7581L32.4918 28.421L47.73 31.5992L51.3258 16.4542L35.7586 12.7581ZM33.434 16.83L47.3553 8.94354L47.2975 8.84143L47.2381 8.74018L33.434 16.83ZM34.0949 17.9967L20.1735 25.8831L36.9967 55.5798L49.0619 23.6526L34.0949 17.9967ZM34.7558 16.0293L50.2815 19.8963L54.2449 3.98328L38.2391 0.41311L34.7558 16.0293ZM32.7502 15.6633L35.3073 -0.131029L1.76671 -5.56106L18.9461 23.7531L32.7502 15.6633ZM36.7386 0.702371L28.7371 14.5579L28.7575 14.5697L28.778 14.5814L36.7386 0.702371ZM39.0405 13.5816L23.4802 9.85627L19.9478 24.6108L34.4938 28.922L39.0405 13.5816ZM39.0405 30.4184L34.4938 15.078L19.9478 19.3892L23.4802 34.1437L39.0405 30.4184ZM36.7386 43.2976L28.778 29.4186L28.7575 29.4303L28.7371 29.4421L36.7386 43.2976ZM24.5 38.8368L35.5606 27.2755L24.5 16.6939L13.4394 27.2755L24.5 38.8368ZM12.2386 43.2976L4.23707 57.1532L4.25752 57.165L4.27799 57.1767L12.2386 43.2976ZM9.95953 30.4184L25.5198 34.1437L29.0522 19.3892L14.5062 15.078L9.95953 30.4184ZM9.95953 13.5816L14.5062 28.922L29.0522 24.6108L25.5198 9.85627L9.95953 13.5816ZM12.2386 0.702371L4.27799 -13.1767L4.25752 -13.165L4.23707 -13.1532L12.2386 0.702371ZM24.5 5.16321L13.4394 16.7245L24.5 27.3061L35.5606 16.7245L24.5 5.16321ZM36.0777 22L21.4959 15.4143L18.5215 22L21.4959 28.5857L36.0777 22ZM38.106 27.17L22.9017 32.1528L27.7653 46.9935L42.7194 42.4905L38.106 27.17ZM38.106 16.83L42.7194 1.50953L27.7653 -2.9935L22.9017 11.8472L38.106 16.83ZM12.9223 22L27.5041 28.5857L30.4785 22L27.5041 15.4143L12.9223 22ZM10.894 16.83L26.0983 11.8472L21.2347 -2.9935L6.28059 1.50953L10.894 16.83ZM10.894 27.17L6.28059 42.4905L21.2347 46.9935L26.0983 32.1528L10.894 27.17ZM33.434 27.17L47.2381 35.2598L47.2975 35.1586L47.3553 35.0565L33.434 27.17ZM32.7502 28.3367L18.9461 20.2469L1.76674 49.5611L35.3073 44.131L32.7502 28.3367ZM34.7558 27.9707L38.2391 43.5869L54.2449 40.0167L50.2815 24.1037L34.7558 27.9707ZM34.0949 26.0033L49.0619 20.3474L36.9968 -11.5798L20.1735 18.1168L34.0949 26.0033ZM26.8474 36.4119L14.8245 25.855L4.65705 37.4344L15.8462 48.0297L26.8474 36.4119ZM35.0293 40.3009L27.3302 26.275L26.983 26.4656L26.6456 26.6732L35.0293 40.3009ZM35.7586 31.2419L51.3258 27.5458L47.73 12.4008L32.4918 15.579L35.7586 31.2419ZM30.2888 32.0655L28.7295 16.1416L21.491 16.8505L17.2658 22.7703L30.2888 32.0655ZM15.566 16.83L1.76188 8.7402L1.70256 8.84143L1.64473 8.94351L15.566 16.83ZM16.2498 15.6633L30.0539 23.7531L47.2332 -5.56105L13.6927 -0.131029L16.2498 15.6633ZM14.2442 16.0293L10.7609 0.41311L-5.2449 3.98328L-1.2815 19.8963L14.2442 16.0293ZM14.9051 17.9967L-0.061858 23.6526L12.0032 55.5797L28.8264 25.8832L14.9051 17.9967ZM22.1526 7.58807L34.1755 18.145L44.343 6.56564L33.1538 -4.02971L22.1526 7.58807ZM13.9479 3.69914L21.7404 17.6733L21.99 17.5341L22.2345 17.3861L13.9479 3.69914ZM13.2414 12.7581L-2.32584 16.4542L1.261 31.5612L16.4688 28.4292L13.2414 12.7581ZM18.7112 11.9345L20.2411 27.8612L27.4986 27.1641L31.7342 21.2297L18.7112 11.9345ZM24.5 17.6764V33.6764C17.844 33.6764 12.7619 28.2668 12.7619 22H28.7619H44.7619C44.7619 10.9292 35.8509 1.67642 24.5 1.67642V17.6764ZM28.7619 22H12.7619C12.7619 15.4517 18.0102 10.2321 24.5 10.2321V26.2321V42.2321C35.6846 42.2321 44.7619 33.1235 44.7619 22H28.7619ZM24.5 26.2321V10.2321C30.9898 10.2321 36.2381 15.4517 36.2381 22H20.2381H4.23814C4.23814 33.1235 13.3154 42.2321 24.5 42.2321V26.2321ZM20.2381 22H36.2381C36.2381 28.2668 31.156 33.6764 24.5 33.6764V17.6764V1.67642C13.1491 1.67642 4.23814 10.9292 4.23814 22H20.2381ZM13.9479 40.3009L5.66135 53.9878C13.6727 58.8382 21.6168 55.5617 23.9108 54.5075C27.4226 52.8937 30.5476 50.4976 33.1538 48.0297L22.1526 36.4119L11.1513 24.7941C10.1338 25.7576 9.8744 25.7407 10.5487 25.4308C10.8839 25.2768 11.9953 24.7971 13.722 24.6231C15.4369 24.4503 18.7481 24.5031 22.2345 26.6139L13.9479 40.3009ZM22.1526 36.4119L34.1755 25.855C33.3475 24.912 32.5186 23.8693 31.7342 22.7703L18.7112 32.0655L5.68809 41.3606C7.09162 43.327 8.58742 45.2125 10.1296 46.9689L22.1526 36.4119ZM18.7112 32.0655L20.2411 16.1388C18.9745 16.0171 17.7153 15.8275 16.4688 15.5708L13.2414 31.2419L10.014 46.9131C12.3821 47.4008 14.7746 47.761 17.1813 47.9922L18.7112 32.0655ZM13.2414 31.2419L-2.32584 27.5458C-3.15787 31.0502 -3.66373 34.9427 -3.31275 38.7686C-3.08732 41.2259 -1.99513 49.73 6.15541 54.275L13.9479 40.3009L21.7404 26.3267C25.3211 28.3234 27.0004 31.189 27.6872 32.7332C28.385 34.3019 28.5207 35.4885 28.5534 35.8453C28.6195 36.5658 28.4783 36.3292 28.8086 34.938L13.2414 31.2419ZM15.566 27.17L29.4874 19.2835L28.8264 18.1168L14.9051 26.0033L0.983802 33.8898L1.64473 35.0565L15.566 27.17ZM14.9051 26.0033L-0.061858 20.3474C-0.239025 20.8162 -0.85336 22.3848 -1.2815 24.1037L14.2442 27.9707L29.7699 31.8376C29.7296 31.9993 29.6954 32.1154 29.6769 32.1756C29.6584 32.236 29.6498 32.2595 29.6585 32.2344C29.6674 32.2086 29.6866 32.1544 29.7238 32.054C29.742 32.0049 29.7628 31.9491 29.7879 31.8825C29.8134 31.8145 29.8399 31.7443 29.8721 31.6593L14.9051 26.0033ZM14.2442 27.9707L10.7609 43.5869C11.8968 43.8402 13.0165 44.0216 13.6927 44.131L16.2498 28.3367L18.8068 12.5423C18.07 12.423 17.8223 12.3756 17.7275 12.3544L14.2442 27.9707ZM16.2498 28.3367L30.0539 20.2469L29.3702 19.0802L15.566 27.17L1.76187 35.2598L2.4456 36.4265L16.2498 28.3367ZM30.4712 25.4314L44.5615 33.0118L46.4076 29.5804L32.3172 22L18.2269 14.4196L16.3808 17.851L30.4712 25.4314ZM32.3172 22L46.4076 14.4196L44.5615 10.9882L30.4712 18.5686L16.3808 26.149L18.2269 29.5804L32.3172 22ZM30.4712 18.5686L44.4079 10.7093C43.568 9.21994 42.1615 7.0443 42.0278 6.82683L28.3972 15.2058L14.7666 23.5848C15.9548 25.5177 16.0069 25.4924 16.5345 26.4279L30.4712 18.5686ZM28.3972 15.2058L29.288 -0.769376C27.5306 -0.867376 25.7698 -0.862823 24.5 -0.862823V15.1372V31.1372C25.9651 31.1372 26.8024 31.1417 27.5064 31.181L28.3972 15.2058ZM24.5 15.1372V-0.862823C23.2302 -0.862823 21.4694 -0.867376 19.712 -0.769376L20.6028 15.2058L21.4936 31.181C22.1976 31.1417 23.0349 31.1372 24.5 31.1372V15.1372ZM20.6028 15.2058L6.97221 6.82683C6.83851 7.04433 5.43203 9.21993 4.59213 10.7093L18.5288 18.5686L32.4656 26.4279C32.9931 25.4924 33.0452 25.5176 34.2334 23.5848L20.6028 15.2058ZM18.5288 18.5686L4.4385 10.9882L2.59245 14.4196L16.6828 22L30.7731 29.5804L32.6192 26.149L18.5288 18.5686ZM16.6828 22L2.59245 29.5804L4.4385 33.0118L18.5288 25.4314L32.6192 17.851L30.7731 14.4196L16.6828 22ZM18.5288 25.4314L4.59213 33.2907C5.43204 34.7801 6.8385 36.9557 6.97221 37.1732L20.6028 28.7942L34.2334 20.4152C33.0452 18.4824 32.9931 18.5076 32.4656 17.5721L18.5288 25.4314ZM20.6028 28.7942L19.712 44.7694C21.4694 44.8674 23.2302 44.8628 24.5 44.8628V28.8628V12.8628C23.0349 12.8628 22.1976 12.8583 21.4936 12.819L20.6028 28.7942ZM24.5 28.8628V44.8628C25.7698 44.8628 27.5306 44.8674 29.288 44.7694L28.3972 28.7942L27.5064 12.819C26.8024 12.8583 25.9651 12.8628 24.5 12.8628V28.8628ZM28.3972 28.7942L42.0278 37.1732C42.1615 36.9557 43.568 34.7801 44.4079 33.2907L30.4712 25.4314L16.5345 17.5721C16.0069 18.5076 15.9548 18.4824 14.7666 20.4152L28.3972 28.7942ZM24.5 10.0587L12.3715 -0.37682C12.0045 0.0496947 11.1519 1.02554 10.2814 2.20512L23.1554 11.7058L36.0293 21.2064C36.033 21.2013 36.0655 21.1575 36.1571 21.0469C36.2668 20.9146 36.3807 20.7822 36.6285 20.4942L24.5 10.0587ZM23.1554 11.7058V27.7058H25.8447V11.7058V-4.29424H23.1554V11.7058ZM25.8447 11.7058L38.7186 2.20512C37.8481 1.02553 36.9954 0.0496694 36.6285 -0.37682L24.5 10.0587L12.3715 20.4942C12.6193 20.7822 12.7333 20.9146 12.8429 21.0469C12.9345 21.1575 12.967 21.2013 12.9707 21.2064L25.8447 11.7058ZM24.5 33.9413L36.6285 44.3768C36.9954 43.9503 37.8481 42.9745 38.7186 41.7949L25.8447 32.2942L12.9707 22.7936C12.967 22.7987 12.9345 22.8425 12.8429 22.9531C12.7333 23.0854 12.6193 23.2178 12.3715 23.5058L24.5 33.9413ZM25.8447 32.2942V16.2942H23.1554V32.2942V48.2942H25.8447V32.2942ZM23.1554 32.2942L10.2814 41.7949C11.1519 42.9745 12.0045 43.9503 12.3715 44.3768L24.5 33.9413L36.6285 23.5058C36.3807 23.2178 36.2668 23.0854 36.1571 22.9531C36.0655 22.8425 36.033 22.7987 36.0293 22.7936L23.1554 32.2942ZM35.0293 3.69914L43.413 -9.92852C39.1663 -12.5411 34.8685 -12.7465 32.051 -12.4609C29.2146 -12.1735 26.8216 -11.3065 25.0753 -10.5024C21.5738 -8.89011 18.4527 -6.49785 15.8462 -4.02971L26.8474 7.58807L37.8487 19.2059C38.8659 18.2426 39.1292 18.2557 38.4595 18.5641C38.1291 18.7163 37.0138 19.2 35.2777 19.376C33.5606 19.55 30.1858 19.5047 26.6456 17.3268L35.0293 3.69914ZM26.8474 7.58807L14.8245 18.145C15.6525 19.088 16.4814 20.1307 17.2658 21.2297L30.2888 11.9345L43.3119 2.63939C41.9084 0.672964 40.4126 -1.21251 38.8704 -2.96887L26.8474 7.58807ZM30.2888 11.9345L28.7295 27.8584C30.0823 27.9908 31.3548 28.1839 32.4918 28.421L35.7586 12.7581L39.0254 -2.90488C36.6527 -3.39977 34.233 -3.75577 31.8482 -3.98931L30.2888 11.9345ZM35.7586 12.7581L51.3258 16.4542C52.1569 12.954 52.6671 9.04812 52.3072 5.2024C52.0719 2.68782 50.9332 -5.82291 42.7284 -10.3267L35.0293 3.69914L27.3302 17.725C23.7547 15.7623 22.0487 12.9198 21.3378 11.3441C20.6222 9.75805 20.4809 8.55215 20.4464 8.18368C20.3771 7.44339 20.5227 7.66666 20.1914 9.06196L35.7586 12.7581ZM33.434 16.83L19.5126 24.7165L20.1735 25.8831L34.0949 17.9967L48.0162 10.1102L47.3553 8.94354L33.434 16.83ZM34.0949 17.9967L49.0619 23.6526C49.239 23.1839 49.8534 21.6153 50.2815 19.8963L34.7558 16.0293L19.2301 12.1624C19.2704 12.0007 19.3046 11.8846 19.3231 11.8243C19.3416 11.764 19.3502 11.7405 19.3415 11.7656C19.3326 11.7913 19.3134 11.8455 19.2762 11.9459C19.258 11.9951 19.2372 12.0509 19.2121 12.1175C19.1866 12.1855 19.1601 12.2557 19.1279 12.3407L34.0949 17.9967ZM34.7558 16.0293L38.2391 0.41311C37.1032 0.159752 35.9835 -0.0215553 35.3073 -0.131029L32.7502 15.6633L30.1932 31.4577C30.93 31.577 31.1777 31.6244 31.2725 31.6456L34.7558 16.0293ZM32.7502 15.6633L18.9461 23.7531L19.6298 24.9198L33.434 16.83L47.2381 8.74018L46.5544 7.5735L32.7502 15.6633ZM36.7386 0.702371L28.778 14.5814C26.9722 13.5457 25.6681 12.1046 24.8564 10.6996C24.1055 9.40007 23.9041 8.36781 23.8497 8.0023C23.767 7.44563 23.9346 7.95835 23.4802 9.85627L39.0405 13.5816L54.6007 17.3069C55.5594 13.3028 56.2512 8.33673 55.5018 3.29635C54.7295 -1.89785 52.0418 -8.96524 44.6992 -13.1767L36.7386 0.702371ZM39.0405 13.5816L34.4938 28.922C36.3395 29.469 36.6774 29.8619 36.2225 29.4995C35.9257 29.2631 35.136 28.5709 34.3911 27.2769C33.5871 25.8801 33 24.0516 33 22H49H65C65 13.5939 60.2792 7.75067 56.1596 4.46931C52.1721 1.29318 47.5303 -0.59011 43.5871 -1.75881L39.0405 13.5816ZM49 22H33C33 19.9484 33.5871 18.1199 34.3911 16.7231C35.136 15.4291 35.9257 14.7369 36.2225 14.5005C36.6774 14.1381 36.3395 14.531 34.4938 15.078L39.0405 30.4184L43.5871 45.7588C47.5303 44.5901 52.1721 42.7068 56.1596 39.5307C60.2792 36.2493 65 30.4061 65 22H49ZM39.0405 30.4184L23.4802 34.1437C23.9346 36.0416 23.767 36.5544 23.8497 35.9977C23.9041 35.6322 24.1055 34.5999 24.8564 33.3004C25.6681 31.8954 26.9722 30.4543 28.778 29.4186L36.7386 43.2976L44.6992 57.1767C52.0418 52.9652 54.7295 45.8978 55.5018 40.7037C56.2512 35.6633 55.5594 30.6972 54.6007 26.6931L39.0405 30.4184ZM36.7386 43.2976L28.7371 29.4421C30.535 28.4038 32.4322 27.9982 34.0558 28C35.5595 28.0017 36.5598 28.3453 36.9144 28.486C37.4606 28.7028 36.952 28.6067 35.5606 27.2755L24.5 38.8368L13.4394 50.3981C16.4238 53.2532 20.3708 56.3484 25.1105 58.2293C29.9984 60.1692 37.4383 61.37 44.7401 57.1532L36.7386 43.2976ZM24.5 38.8368L13.4394 27.2755C12.0483 28.6064 11.5421 28.7003 12.0896 28.4833C12.4457 28.3422 13.4409 28.0017 14.9347 28C16.5463 27.9982 18.4223 28.3994 20.1992 29.4186L12.2386 43.2976L4.27799 57.1767C11.5609 61.354 18.9739 60.1764 23.8798 58.2321C28.6265 56.3508 32.5759 53.2536 35.5606 50.3981L24.5 38.8368ZM12.2386 43.2976L20.2401 29.4421C22.0546 30.49 23.3536 31.9404 24.157 33.3403C24.9002 34.6352 25.0976 35.6599 25.1503 36.0174C25.2306 36.5615 25.066 36.0392 25.5198 34.1437L9.95953 30.4184L-5.60073 26.6931C-6.55994 30.6996 -7.24869 35.6562 -6.50756 40.684C-5.74625 45.8486 -3.0888 52.9225 4.23707 57.1532L12.2386 43.2976ZM9.95953 30.4184L14.5062 15.078C12.6605 14.531 12.3226 14.1381 12.7775 14.5005C13.0743 14.7369 13.864 15.4291 14.6089 16.7231C15.4129 18.1199 16 19.9484 16 22H0H-16C-16 30.4061 -11.2792 36.2493 -7.1596 39.5307C-3.1721 42.7068 1.46969 44.5901 5.41292 45.7588L9.95953 30.4184ZM0 22H16C16 24.0516 15.4129 25.8801 14.6089 27.2769C13.864 28.5709 13.0743 29.2631 12.7775 29.4995C12.3226 29.8619 12.6605 29.469 14.5062 28.922L9.95953 13.5816L5.41292 -1.75881C1.46969 -0.59011 -3.1721 1.29318 -7.1596 4.46931C-11.2792 7.75067 -16 13.5939 -16 22H0ZM9.95953 13.5816L25.5198 9.85627C25.066 7.96076 25.2306 7.43852 25.1503 7.98262C25.0976 8.34015 24.9002 9.36476 24.157 10.6597C23.3536 12.0596 22.0546 13.51 20.2401 14.5579L12.2386 0.702371L4.23707 -13.1532C-3.0888 -8.92248 -5.74625 -1.84863 -6.50756 3.31602C-7.24869 8.34383 -6.55994 13.3004 -5.60073 17.3069L9.95953 13.5816ZM12.2386 0.702371L20.1992 14.5814C18.4223 15.6006 16.5463 16.0018 14.9347 16C13.4409 15.9983 12.4457 15.6578 12.0896 15.5167C11.5421 15.2997 12.0483 15.3936 13.4394 16.7245L24.5 5.16321L35.5606 -6.39806C32.5759 -9.25356 28.6265 -12.3508 23.8798 -14.2321C18.9739 -16.1764 11.5609 -17.354 4.27799 -13.1767L12.2386 0.702371ZM24.5 5.16321L35.5606 16.7245C36.952 15.3933 37.4606 15.2972 36.9144 15.514C36.5598 15.6547 35.5595 15.9983 34.0558 16C32.4322 16.0018 30.535 15.5962 28.7371 14.5579L36.7386 0.702371L44.7401 -13.1532C37.4383 -17.37 29.9984 -16.1692 25.1105 -14.2293C20.3708 -12.3484 16.4238 -9.25322 13.4394 -6.39806L24.5 5.16321ZM36.0777 22L21.4959 28.5857C22.0784 29.8754 22.5408 31.0516 22.9017 32.1528L38.106 27.17L53.3104 22.1872C52.5317 19.8112 51.6267 17.556 50.6594 15.4143L36.0777 22ZM38.106 27.17L42.7194 42.4905C46.1604 41.4543 49.7769 39.9389 52.9114 37.7097C55.0142 36.2143 61.5814 31.1048 61.5814 22H45.5814H29.5814C29.5814 18.045 31.16 15.2582 32.1379 13.9109C33.1282 12.5466 34.0685 11.8431 34.3656 11.6319C34.9589 11.2099 34.8378 11.4445 33.4927 11.8495L38.106 27.17ZM45.5814 22H61.5814C61.5814 12.8952 55.0142 7.78573 52.9114 6.29032C49.7769 4.06113 46.1604 2.54569 42.7194 1.50953L38.106 16.83L33.4927 32.1505C34.8378 32.5555 34.9589 32.7901 34.3656 32.3681C34.0685 32.1569 33.1282 31.4534 32.1379 30.0891C31.16 28.7418 29.5814 25.955 29.5814 22H45.5814ZM38.106 16.83L22.9017 11.8472C22.5408 12.9484 22.0784 14.1246 21.4959 15.4143L36.0777 22L50.6594 28.5857C51.6267 26.444 52.5317 24.1888 53.3104 21.8128L38.106 16.83ZM12.9223 22L27.5041 15.4143C26.9216 14.1246 26.4592 12.9484 26.0983 11.8472L10.894 16.83L-4.31039 21.8128C-3.53172 24.1888 -2.62673 26.444 -1.65945 28.5857L12.9223 22ZM10.894 16.83L6.28059 1.50953C2.83962 2.54569 -0.7769 4.06113 -3.91142 6.29032C-6.01415 7.78573 -12.5814 12.8952 -12.5814 22H3.4186H19.4186C19.4186 25.955 17.84 28.7418 16.8621 30.0891C15.8718 31.4534 14.9315 32.1569 14.6344 32.3681C14.0411 32.7901 14.1622 32.5555 15.5073 32.1505L10.894 16.83ZM3.4186 22H-12.5814C-12.5814 31.1048 -6.01415 36.2143 -3.91142 37.7097C-0.7769 39.9389 2.83962 41.4543 6.28059 42.4905L10.894 27.17L15.5073 11.8495C14.1622 11.4445 14.0411 11.2099 14.6344 11.6319C14.9315 11.8431 15.8718 12.5466 16.8621 13.9109C17.84 15.2582 19.4186 18.045 19.4186 22H3.4186ZM10.894 27.17L26.0983 32.1528C26.4592 31.0516 26.9216 29.8754 27.5041 28.5857L12.9223 22L-1.65945 15.4143C-2.62673 17.556 -3.53172 19.8112 -4.31039 22.1872L10.894 27.17ZM33.434 27.17L19.6298 19.0802L18.9461 20.2469L32.7502 28.3367L46.5544 36.4265L47.2381 35.2598L33.434 27.17ZM32.7502 28.3367L35.3073 44.131C35.9835 44.0216 37.1032 43.8402 38.2391 43.5869L34.7558 27.9707L31.2725 12.3544C31.1777 12.3756 30.93 12.423 30.1932 12.5423L32.7502 28.3367ZM34.7558 27.9707L50.2815 24.1037C49.8534 22.3847 49.239 20.8161 49.0619 20.3474L34.0949 26.0033L19.1279 31.6593C19.1601 31.7443 19.1866 31.8145 19.2121 31.8825C19.2372 31.9491 19.258 32.0049 19.2762 32.0541C19.3134 32.1545 19.3326 32.2087 19.3415 32.2344C19.3502 32.2595 19.3416 32.236 19.3231 32.1757C19.3046 32.1154 19.2704 31.9993 19.2301 31.8376L34.7558 27.9707ZM34.0949 26.0033L20.1735 18.1168L19.5126 19.2835L33.434 27.17L47.3553 35.0565L48.0162 33.8898L34.0949 26.0033ZM26.8474 36.4119L15.8462 48.0297C18.4527 50.4979 21.5738 52.8901 25.0752 54.5024C26.8216 55.3065 29.2146 56.1735 32.051 56.4609C34.8685 56.7465 39.1663 56.5411 43.413 53.9285L35.0293 40.3009L26.6456 26.6732C30.1858 24.4953 33.5606 24.45 35.2777 24.624C37.0138 24.8 38.1291 25.2837 38.4595 25.4359C39.1292 25.7443 38.8659 25.7574 37.8487 24.7941L26.8474 36.4119ZM35.0293 40.3009L42.7284 54.3267C50.9332 49.8229 52.0719 41.3122 52.3072 38.7976C52.6671 34.9519 52.1569 31.046 51.3258 27.5458L35.7586 31.2419L20.1914 34.938C20.5227 36.3333 20.3771 36.5566 20.4464 35.8163C20.4809 35.4479 20.6222 34.2419 21.3378 32.6559C22.0487 31.0802 23.7547 28.2377 27.3302 26.275L35.0293 40.3009ZM35.7586 31.2419L32.4918 15.579C31.3548 15.8161 30.0824 16.0092 28.7295 16.1416L30.2888 32.0655L31.8482 47.9893C34.233 47.7558 36.6527 47.3998 39.0254 46.9049L35.7586 31.2419ZM30.2888 32.0655L17.2658 22.7703C16.4814 23.8693 15.6525 24.912 14.8245 25.855L26.8474 36.4119L38.8704 46.9689C40.4126 45.2125 41.9084 43.327 43.3119 41.3606L30.2888 32.0655ZM15.566 16.83L29.3702 24.9198L30.0539 23.7531L16.2498 15.6633L2.4456 7.57352L1.76188 8.7402L15.566 16.83ZM16.2498 15.6633L13.6927 -0.131029C13.0165 -0.0215535 11.8968 0.159753 10.7609 0.41311L14.2442 16.0293L17.7275 31.6456C17.8223 31.6244 18.07 31.577 18.8068 31.4577L16.2498 15.6633ZM14.2442 16.0293L-1.2815 19.8963C-0.85336 21.6152 -0.239025 23.1838 -0.061858 23.6526L14.9051 17.9967L29.8721 12.3407C29.8399 12.2557 29.8134 12.1855 29.7879 12.1175C29.7628 12.0509 29.742 11.9951 29.7238 11.946C29.6866 11.8456 29.6674 11.7914 29.6585 11.7656C29.6498 11.7405 29.6584 11.764 29.6769 11.8244C29.6954 11.8846 29.7296 12.0007 29.7699 12.1624L14.2442 16.0293ZM14.9051 17.9967L28.8264 25.8832L29.4874 24.7165L15.566 16.83L1.64473 8.94351L0.983796 10.1102L14.9051 17.9967ZM22.1526 7.58807L33.1538 -4.02971C30.5476 -6.49764 27.4226 -8.89369 23.9108 -10.5075C21.6168 -11.5617 13.6727 -14.8382 5.66135 -9.98783L13.9479 3.69914L22.2345 17.3861C18.7481 19.4969 15.4369 19.5497 13.722 19.3769C11.9953 19.2029 10.884 18.7232 10.5487 18.5692C9.8744 18.2593 10.1338 18.2424 11.1513 19.2059L22.1526 7.58807ZM13.9479 3.69914L6.15541 -10.275C-1.99514 -5.72997 -3.08732 2.77407 -3.31275 5.23138C-3.66373 9.05735 -3.15787 12.9498 -2.32584 16.4542L13.2414 12.7581L28.8086 9.06196C28.4783 7.67081 28.6195 7.43417 28.5534 8.1547C28.5207 8.51152 28.385 9.69813 27.6872 11.2668C27.0004 12.811 25.3211 15.6766 21.7404 17.6733L13.9479 3.69914ZM13.2414 12.7581L16.4688 28.4292C17.7154 28.1725 18.9746 27.9829 20.2411 27.8612L18.7112 11.9345L17.1813 -3.99216C14.7746 -3.76098 12.3821 -3.40075 10.014 -2.91305L13.2414 12.7581ZM18.7112 11.9345L31.7342 21.2297C32.5186 20.1307 33.3475 19.088 34.1755 18.145L22.1526 7.58807L10.1296 -2.96887C8.58742 -1.21251 7.09162 0.672964 5.68809 2.63939L18.7112 11.9345Z" fill="white" mask="url(#path-1-inside-1_117_41)"/>
</svg>
