<svg width="64" height="58" viewBox="0 0 64 58" fill="none" xmlns="http://www.w3.org/2000/svg">
<path d="M15.6353 20.4001C7.98799 22.3721 3 25.7506 3 29.6076C3 35.7179 15.7745 40.7001 31.5649 40.7001C33.7109 40.7001 35.2189 40.587 37.2199 40.4188" stroke="white" stroke-width="5" stroke-linecap="round" stroke-linejoin="round"/>
<path d="M25.7273 40.4106C24.5296 38.6822 23.3899 37.1249 22.3053 35.1906C14.3274 20.9806 12.1901 6.85764 17.5783 3.65894C20.9133 1.63765 26.4146 4.39264 32.0029 10.1955" stroke="white" stroke-width="5" stroke-linecap="round" stroke-linejoin="round"/>
<path d="M15.8444 38.9226C13.8086 46.7178 14.2204 52.599 17.4684 54.5681C22.6391 57.7001 33.0906 48.8899 40.793 34.8365C41.837 32.8935 42.7737 30.9824 43.6002 29.1003" stroke="white" stroke-width="5" stroke-linecap="round" stroke-linejoin="round"/>
<path d="M32 48.0082C37.5912 53.8082 43.0693 56.5632 46.4362 54.5419C51.8012 51.3461 49.6871 37.2232 41.7005 23.0103C40.5869 21.047 39.4472 19.5187 38.2785 17.7903" stroke="white" stroke-width="5" stroke-linecap="round" stroke-linejoin="round"/>
<path d="M48.4142 37.8005C55.989 35.8082 61.0002 32.4355 61.0002 28.5901C61.0002 22.4711 48.217 17.5005 32.4498 17.5005C30.2835 17.5005 28.7784 17.5846 26.7803 17.7528" stroke="white" stroke-width="5" stroke-linecap="round" stroke-linejoin="round"/>
<path d="M20.3994 29.0998C21.2259 27.1858 22.1597 25.3066 23.2066 23.3636C30.8829 9.31598 41.3403 0.482592 46.54 3.64069C49.759 5.60979 50.1998 11.4881 48.164 19.2804M32.7534 29.1433H32.7244C32.6954 29.5203 32.3764 29.8393 31.9704 29.8393C31.7762 29.8297 31.593 29.7463 31.4583 29.6061C31.3235 29.466 31.2474 29.2797 31.2454 29.0853C31.2454 28.6793 31.5644 28.3603 31.9414 28.3603H31.9124C32.2894 28.3313 32.6374 28.6793 32.6374 29.0563" stroke="white" stroke-width="5" stroke-linecap="round" stroke-linejoin="round"/>
</svg>
