<svg width="56" height="53" viewBox="0 0 56 53" fill="none" xmlns="http://www.w3.org/2000/svg">
<path d="M31.7826 50.781C32.7765 50.0703 34.1965 48.9327 34.9774 48.2219C48.5898 53.6367 53.0308 43.0535 52.6762 39.0142C52.2836 34.5417 46.7373 21.7778 27.8779 21.7774C26.9911 23.8585 24.3979 24.9025 22.2531 23.6586C19.6209 22.1319 19.6209 18.2949 22.2531 16.7684C24.2978 15.5823 26.7496 16.4762 27.7424 18.3652C39.1923 18.3069 52.0286 23.1762 55.6181 36.7253C58.207 46.4967 47.3456 57.8878 31.7826 50.781ZM38.827 36.9611C40.7213 36.7375 42.3634 35.1544 42.3634 33.0092C42.3634 29.9561 39.0378 28.0375 36.3917 29.5641C34.0705 30.9033 33.7861 34.0203 35.5375 35.7959C29.2547 47.5247 15.2229 52.1106 7.81822 47.6591C3.71776 45.1939 -0.510674 36.369 9.3475 28.2463C9.06345 27.3223 8.63744 25.7583 8.42448 24.6209C-9.29938 37.9943 3.45898 59.2738 23.443 50.987C28.8459 48.7466 34.704 44.8309 38.8269 36.9611M17.214 41.5015C19.8638 43.0282 23.194 41.1095 23.194 38.0564C23.194 35.5085 20.8747 33.7525 18.5671 34.1278C3.90938 6.71352 34.77 -9.56633 38.7402 16.3748L42.2901 17.4411C39.7089 -3.42597 24.1266 -1.51659 19.1347 2.70968C15.3935 5.87716 5.39229 17.0227 15.7251 36.1145C14.7295 37.9095 15.2256 40.356 17.214 41.5015Z" fill="white"/>
</svg>
