<svg width="60" height="54" viewBox="0 0 60 54" fill="none" xmlns="http://www.w3.org/2000/svg">
<path d="M59.2338 23.7569L47.4093 3.24311C46.3843 1.46366 43.8669 0 41.8095 0H18.1855C16.1356 0 13.6082 1.46366 12.5857 3.24311L0.768718 23.7569C-0.256239 25.5363 -0.256239 28.4511 0.768718 30.2331L12.5807 50.7569C13.6057 52.5363 16.1231 54 18.1805 54H41.817C43.8669 54 46.3818 52.5363 47.4168 50.7569L59.2313 30.2306C60.2562 28.4511 60.2562 25.5363 59.2313 23.7569H59.2338ZM27.4426 11.3484C27.4426 10.0025 28.5376 8.90476 29.8775 8.90476C31.2174 8.90476 32.3149 10.0025 32.3149 11.3484V25.9373C32.2752 26.5577 32.0014 27.1397 31.5492 27.565C31.0969 27.9902 30.5001 28.2269 29.88 28.2269C29.2599 28.2269 28.6631 27.9902 28.2108 27.565C27.7586 27.1397 27.4848 26.5577 27.4451 25.9373L27.4426 11.3484ZM29.8775 42.5012C25.4979 42.4953 21.2995 40.7481 18.2032 37.6429C15.1068 34.5377 13.3653 30.3281 13.3607 25.9373C13.367 23.3549 13.9727 20.8093 15.1299 18.5021C16.2871 16.1949 17.964 14.1893 20.0279 12.6441C20.2565 12.4734 20.5165 12.3496 20.7929 12.2798C21.0694 12.2101 21.3568 12.1957 21.6388 12.2377C21.9208 12.2796 22.1918 12.3769 22.4361 12.5241C22.6805 12.6712 22.8934 12.8653 23.0628 13.0952C23.233 13.324 23.3565 13.5842 23.4262 13.8609C23.496 14.1377 23.5106 14.4254 23.4693 14.7078C23.4279 14.9902 23.3314 15.2616 23.1853 15.5066C23.0392 15.7515 22.8464 15.9652 22.6178 16.1353C20.1134 18.0996 18.4738 20.9673 18.0487 24.1265C17.6236 27.2857 18.4467 30.4864 20.3424 33.0458C22.238 35.6052 25.0562 37.3206 28.1957 37.8262C31.3352 38.3317 34.5474 37.5874 37.1472 35.7519C38.6733 34.6135 39.9127 33.1332 40.7665 31.4291C41.6203 29.725 42.0648 27.8443 42.0645 25.9373C42.0589 24.0232 41.607 22.1368 40.745 20.4289C39.883 18.7209 38.6347 17.2386 37.0997 16.1002C36.6376 15.7568 36.3301 15.2439 36.2443 14.6736C36.1586 14.1034 36.3017 13.5224 36.6422 13.0576C36.9848 12.5944 37.4964 12.286 38.0652 12.2001C38.634 12.1141 39.2136 12.2576 39.6771 12.599C41.7578 14.1421 43.449 16.1523 44.6155 18.4685C45.782 20.7847 46.3912 23.3426 46.3943 25.9373C46.391 30.3287 44.6495 34.5392 41.5523 37.6444C38.455 40.7495 34.2552 42.4954 29.875 42.4987" fill="white"/>
</svg>
