<svg width="60" height="36" viewBox="0 0 60 36" fill="none" xmlns="http://www.w3.org/2000/svg">
<path fill-rule="evenodd" clip-rule="evenodd" d="M15 12.001C17 4.00033 22 0 30 0C42 0 43.5 9 49.5 10.5005C53.5 11.5008 57 10.0003 60 5.99901C58 13.9997 53 18 45 18C33 18 31.5 9 25.5 7.49951C21.5 6.50115 18 8.00263 15 12.0039M0 30.0039C2 22.0013 7 18 15 18C27 18 28.5 27 34.5 28.5005C38.5 29.4989 42 27.9984 45 23.999C43 31.9997 38 36 30 36C18 36 16.5 27 10.5 25.4995C6.5 24.4992 3 26.0026 0 30.0039Z" fill="white"/>
</svg>
