<svg width="51" height="50" viewBox="0 0 51 50" fill="none" xmlns="http://www.w3.org/2000/svg">
<path d="M25.4651 35.6548C28.343 35.6548 31.1031 34.5115 33.1381 32.4765C35.1731 30.4415 36.3164 27.6814 36.3164 24.8035C36.3164 21.9255 35.1731 19.1654 33.1381 17.1304C31.1031 15.0954 28.343 13.9521 25.4651 13.9521C22.5871 13.9521 19.8271 15.0954 17.792 17.1304C15.757 19.1654 14.6138 21.9255 14.6138 24.8035C14.6138 27.6814 15.757 30.4415 17.792 32.4765C19.8271 34.5115 22.5871 35.6548 25.4651 35.6548Z" stroke="white" stroke-width="3.10038" stroke-linecap="round" stroke-linejoin="round"/>
<path d="M25.4651 27.9034C26.2874 27.9034 27.076 27.5767 27.6574 26.9953C28.2389 26.4139 28.5655 25.6253 28.5655 24.803C28.5655 23.9807 28.2389 23.1921 27.6574 22.6107C27.076 22.0293 26.2874 21.7026 25.4651 21.7026C24.6429 21.7026 23.8543 22.0293 23.2728 22.6107C22.6914 23.1921 22.3647 23.9807 22.3647 24.803C22.3647 25.6253 22.6914 26.4139 23.2728 26.9953C23.8543 27.5767 24.6429 27.9034 25.4651 27.9034Z" stroke="white" stroke-width="3.10038" stroke-linecap="round" stroke-linejoin="round"/>
<path d="M44.0673 24.8034C44.0673 27.2463 43.5861 29.6653 42.6513 31.9222C41.7164 34.1791 40.3462 36.2298 38.6188 37.9572C36.8914 39.6846 34.8407 41.0548 32.5838 41.9897C30.3269 42.9245 27.9079 43.4057 25.465 43.4057C23.0222 43.4057 20.6032 42.9245 18.3463 41.9897C16.0893 41.0548 14.0386 39.6846 12.3113 37.9572C10.5839 36.2298 9.21366 34.1791 8.2788 31.9222C7.34395 29.6653 6.86279 27.2463 6.86279 24.8034C6.86279 19.8698 8.82267 15.1382 12.3113 11.6496C15.7999 8.16105 20.5314 6.20117 25.465 6.20117C30.3987 6.20117 35.1302 8.16105 38.6188 11.6496C42.1074 15.1382 44.0673 19.8698 44.0673 24.8034Z" stroke="white" stroke-width="3.10038" stroke-linecap="round" stroke-linejoin="round"/>
</svg>
