<svg width="51" height="51" viewBox="0 0 51 51" fill="none" xmlns="http://www.w3.org/2000/svg">
<path d="M25.274 6.3252C24.445 6.3252 23.6242 6.48846 22.8584 6.80568C22.0926 7.1229 21.3967 7.58785 20.8106 8.17399C20.2244 8.76013 19.7595 9.45598 19.4423 10.2218C19.125 10.9876 18.9618 11.8085 18.9618 12.6374C18.9618 13.4663 19.125 14.2871 19.4423 15.053C19.7595 15.8188 20.2244 16.5146 20.8106 17.1008C21.3967 17.6869 22.0926 18.1519 22.8584 18.4691C23.6242 18.7863 24.445 18.9496 25.274 18.9496C26.9481 18.9496 28.5536 18.2845 29.7373 17.1008C30.9211 15.917 31.5861 14.3115 31.5861 12.6374C31.5861 10.9633 30.9211 9.35776 29.7373 8.17399C28.5536 6.99023 26.9481 6.3252 25.274 6.3252ZM39.4906 9.47813C38.2338 9.47813 37.0284 9.9774 36.1397 10.8661C35.251 11.7548 34.7517 12.9602 34.7517 14.217C34.7517 15.4738 35.251 16.6792 36.1397 17.5679C37.0284 18.4566 38.2338 18.9559 39.4906 18.9559C40.7474 18.9559 41.9528 18.4566 42.8415 17.5679C43.7302 16.6792 44.2295 15.4738 44.2295 14.217C44.2295 12.9602 43.7302 11.7548 42.8415 10.8661C41.9528 9.9774 40.7474 9.47813 39.4906 9.47813ZM11.0573 9.47813C9.80049 9.47813 8.59513 9.9774 7.70642 10.8661C6.81771 11.7548 6.31843 12.9602 6.31843 14.217C6.31843 15.4738 6.81771 16.6792 7.70642 17.5679C8.59513 18.4566 9.80049 18.9559 11.0573 18.9559C12.3141 18.9559 13.5195 18.4566 14.4082 17.5679C15.2969 16.6792 15.7962 15.4738 15.7962 14.217C15.7962 12.9602 15.2969 11.7548 14.4082 10.8661C13.5195 9.9774 12.3141 9.47813 11.0573 9.47813ZM15.7962 25.2523C15.802 24.4182 16.1375 23.6203 16.7293 23.0326C17.3211 22.4449 18.1214 22.1151 18.9554 22.1151H31.5925C32.4304 22.1151 33.2339 22.448 33.8264 23.0405C34.4189 23.6329 34.7517 24.4365 34.7517 25.2744V34.7522C34.7525 35.7465 34.5969 36.7348 34.2905 37.6808C33.5909 39.825 32.1499 41.6496 30.2261 42.8269C28.3024 44.0042 26.0219 44.4572 23.7943 44.1044C21.5666 43.7517 19.5376 42.6163 18.0717 40.9022C16.6059 39.1881 15.799 37.0076 15.7962 34.7522V25.2523ZM12.6369 25.2744C12.6369 24.1213 12.9434 23.044 13.4836 22.1151H6.31843C5.48055 22.1151 4.67698 22.448 4.0845 23.0405C3.49203 23.6329 3.15918 24.4365 3.15918 25.2744V33.1725C3.15875 34.4656 3.47582 35.7391 4.08254 36.881C4.68927 38.0229 5.56709 38.9984 6.63892 39.7218C7.71074 40.4452 8.94379 40.8943 10.2298 41.0298C11.5157 41.1653 12.8153 40.983 14.0144 40.4988C13.107 38.7181 12.635 36.7476 12.6369 34.749V25.2744ZM37.911 25.2744V34.7522C37.911 36.8215 37.415 38.7739 36.5335 40.4988C37.7326 40.983 39.0322 41.1653 40.3181 41.0298C41.6041 40.8943 42.8372 40.4452 43.909 39.7218C44.9808 38.9984 45.8586 38.0229 46.4654 36.881C47.0721 35.7391 47.3892 34.4656 47.3887 33.1725V25.2744C47.3887 24.4365 47.0559 23.6329 46.4634 23.0405C45.8709 22.448 45.0674 22.1151 44.2295 22.1151H37.0643C37.6014 23.044 37.911 24.1213 37.911 25.2744Z" fill="white"/>
</svg>
