<svg width="60" height="60" viewBox="0 0 60 60" fill="none" xmlns="http://www.w3.org/2000/svg">
<mask id="mask0_265_19" style="mask-type:luminance" maskUnits="userSpaceOnUse" x="0" y="0" width="60" height="60">
<path d="M0 0H60V60H0V0Z" fill="white"/>
</mask>
<g mask="url(#mask0_265_19)">
<path d="M58.5725 8.77273e-06H1.425C1.23766 8.48442e-06 1.05215 0.0369499 0.8791 0.108719C0.706048 0.180488 0.548846 0.285677 0.41649 0.418265C0.284134 0.550854 0.179221 0.70824 0.107755 0.881417C0.0362897 1.05459 -0.000326477 1.24016 2.19704e-06 1.42751V58.575C-0.000327136 58.7626 0.0363715 58.9483 0.107993 59.1217C0.179615 59.295 0.284752 59.4525 0.417373 59.5851C0.549994 59.7178 0.707491 59.8229 0.880832 59.8945C1.05417 59.9661 1.23995 60.0028 1.4275 60.0025H58.575C58.7626 60.0028 58.9483 59.9661 59.1217 59.8945C59.295 59.8229 59.4525 59.7178 59.5851 59.5851C59.7177 59.4525 59.8229 59.295 59.8945 59.1217C59.9661 58.9483 60.0028 58.7626 60.0025 58.575V1.42501C60.0025 1.23745 59.9655 1.05174 59.8936 0.878528C59.8216 0.705312 59.7162 0.547999 59.5834 0.41561C59.4505 0.283221 59.2928 0.17836 59.1194 0.107042C58.9459 0.0357237 58.7601 -0.000649316 58.5725 8.77273e-06ZM35.715 32.065H28.5725V54.285H22.8575V32.065H15.715V27.1425H35.715V32.065ZM37.315 53.015V47.0775C37.315 47.0775 40.56 49.5225 44.4525 49.5225C48.345 49.5225 48.195 46.9775 48.195 46.6275C48.195 42.935 37.165 42.935 37.165 34.75C37.165 23.62 53.2375 28.0125 53.2375 28.0125L53.0375 33.3025C53.0375 33.3025 50.3425 31.505 47.2975 31.505C44.2525 31.505 43.155 32.955 43.155 34.5C43.155 38.4925 54.285 38.095 54.285 46.13C54.285 58.505 37.315 53.0175 37.315 53.0175" fill="white"/>
</g>
</svg>
