<svg width="256" height="193" viewBox="0 0 256 193" fill="none" xmlns="http://www.w3.org/2000/svg">
<g clip-path="url(#clip0_332_5)">
<path d="M192.44 144.645H224.22V68.339L188.415 32.535L165.943 55.007L192.44 81.504V144.645ZM224.304 160.576H113.452L86.954 134.08L98.191 122.844L120.076 144.729H165.104L120.747 100.288L132.067 88.968L176.424 133.326V88.296L154.623 66.495L165.775 55.342L110.685 0H0L31.696 31.696V31.78H97.436L120.663 55.007L86.703 88.967L63.476 65.74V47.712H31.696V78.905L86.703 133.912L64.314 156.3L100.119 192.105H256L224.304 160.576Z" fill="white"/>
</g>
<defs>
<clipPath id="clip0_332_5">
<rect width="256" height="193" fill="white"/>
</clipPath>
</defs>
</svg>
