<svg width="47" height="46" viewBox="0 0 47 46" fill="none" xmlns="http://www.w3.org/2000/svg">
<path d="M34.6964 0.00243095C34.1799 0.0174469 33.6696 0.119814 33.1873 0.305192C32.9624 0.391695 32.6406 0.564461 32.2221 0.823489C31.91 1.01643 31.5946 1.20389 31.2759 1.38576C30.888 1.73687 30.4982 2.08601 30.1067 2.43317C29.7303 2.81433 29.3989 3.23749 29.1191 3.69431C29.1122 3.70586 29.1079 3.71947 29.1066 3.73426C29.1053 3.74904 29.107 3.76466 29.1116 3.78009C29.1274 3.83344 29.1135 3.86551 29.0697 3.87633C29.0312 3.88617 29.0011 3.89964 28.9861 3.91381C28.7978 4.10141 28.666 4.33823 28.6059 4.59719C28.5809 4.69811 28.5398 4.79951 28.4826 4.90139C28.4274 4.9929 28.3866 5.09233 28.3615 5.19622C28.3363 5.32453 28.3114 5.45273 28.2869 5.5808C28.2756 5.62317 28.2551 5.66253 28.2269 5.69611C28.1987 5.72968 28.1634 5.75664 28.1236 5.77507C25.8489 5.12493 23.484 4.84682 21.1205 4.95149C21.0164 4.95557 20.9131 4.97092 20.8123 4.99726C20.7114 5.02418 20.611 5.05373 20.511 5.08593C18.0141 5.21301 15.5608 5.79083 13.2696 6.79148C13.1018 6.71961 12.9618 6.59547 12.8702 6.43754L12.7318 6.20218C12.3573 5.669 11.9265 5.17767 11.4469 4.73667C11.2857 4.53387 11.0186 4.31881 10.6457 4.0915C9.77103 3.55807 8.87428 3.27729 7.95543 3.24918L7.74422 3.25891C7.64913 3.26313 7.55403 3.25093 7.46308 3.22287C7.2037 3.21375 6.94781 3.28487 6.73033 3.42651L6.43694 3.6161C5.67139 4.05822 5.06707 4.65233 4.62398 5.39842C4.1201 6.24903 3.75486 7.1775 3.52827 8.18382C3.38843 8.80184 3.33388 9.48689 3.36464 10.239C3.39179 10.3063 3.41161 10.3755 3.42411 10.4466C3.4342 10.5023 3.42783 10.5718 3.405 10.6549C3.37402 10.7689 3.3579 10.8864 3.35707 11.0045C3.35563 11.091 3.38266 11.2023 3.43816 11.3383C3.5511 11.617 3.59099 11.9095 3.55783 12.2156C3.74093 13.0181 3.88546 13.613 3.99142 14.0001C4.01978 14.1039 4.0211 14.1923 3.99539 14.2653L3.89122 14.4823C3.63515 14.7182 3.41424 14.9896 3.23524 15.2882C3.02427 15.64 2.91302 15.8252 2.90148 15.8437C2.77317 16.0534 2.66024 16.2726 2.56268 16.5011C1.34262 18.5506 0.551244 20.8264 0.236469 23.1907C0.134556 23.4662 0.091342 23.76 0.109598 24.0532C0.0209236 24.6607 -0.0140532 25.2748 0.00507348 25.8885L0.040756 26.9925C0.0482049 27.6612 0.0711522 28.1199 0.109598 28.3686C0.286999 29.5134 0.563157 30.6407 0.934982 31.7379L1.05032 31.9361C1.39227 32.981 1.8215 33.9952 2.33345 34.9681C2.59512 35.4645 2.796 35.8021 2.93609 35.9809C3.27799 36.5415 3.6529 37.0813 4.05882 37.5974L4.33419 37.9672C4.49663 38.1842 4.68153 38.3819 4.88889 38.5605C5.10683 38.8253 5.32393 39.0904 5.54019 39.3559C5.90703 39.6629 6.26543 39.9799 6.61499 40.3064C6.96437 40.6322 7.28034 40.89 7.56292 41.0799C8.1507 41.4735 8.75914 41.8354 9.38561 42.164C9.83803 42.4876 10.3001 42.7974 10.7711 43.0932C11.0638 43.3054 11.4057 43.4861 11.7969 43.6353C12.5975 43.9417 13.3386 44.1888 14.02 44.3767C14.2723 44.4459 14.6111 44.5834 15.0364 44.789C15.0649 44.8032 15.0971 44.8091 15.1294 44.806C15.3299 44.7864 15.5319 44.7878 15.7321 44.8103C16.0471 44.8901 16.3624 44.9687 16.6782 45.046C16.9408 45.1097 17.9674 45.2013 19.7581 45.3207C20.2559 45.354 20.7554 45.3528 21.2531 45.3171C22.234 45.3681 23.2174 45.342 24.1942 45.2389C24.4934 45.2074 24.8595 45.1417 25.2924 45.0417C25.6563 44.9589 26.0215 44.8818 26.3878 44.8103C26.7816 44.665 27.1842 44.5444 27.5931 44.4492C28.2179 44.1822 28.8468 43.925 29.4796 43.6775C29.6564 43.6078 29.8627 43.5021 30.0984 43.3603C30.3267 43.2221 30.5383 43.1209 30.7331 43.0565C31.1954 42.9048 31.5919 42.7036 31.9226 42.4527C32.0206 42.3783 32.1371 42.3197 32.2722 42.2772C32.483 42.2109 32.6802 42.1071 32.8543 41.9708C33.2946 41.7422 33.7181 41.4825 34.1215 41.1938C34.5233 40.9047 34.9157 40.603 35.2983 40.2891C35.9784 39.7365 36.607 39.1236 37.1765 38.4577C37.3473 38.2575 37.546 38.083 37.7666 37.9394C38.0488 37.6152 38.3127 37.2753 38.557 36.9216C39.7536 35.448 40.7282 33.8072 41.4498 32.0515C41.5224 31.9217 41.5901 31.7899 41.6531 31.6561C41.6942 31.5691 41.7331 31.4283 41.7698 31.2337C41.7924 31.11 41.8311 30.9898 41.8848 30.8761C41.9266 30.7872 41.9585 30.6841 41.9803 30.5669C42.0006 30.4579 42.0388 30.3531 42.0932 30.2565C42.1556 30.1472 42.1938 30.0546 42.2078 29.9786C42.2265 29.8772 42.2442 29.7761 42.2607 29.6752C42.2657 29.648 42.2589 29.6171 42.2416 29.5887C42.1811 29.4877 42.2063 29.4086 42.3173 29.3511C42.4113 29.2196 42.4574 29.0598 42.4478 28.8984C42.4461 28.8663 42.453 28.8353 42.4676 28.809C42.5775 28.6073 42.6357 28.3814 42.637 28.1516C42.7533 27.5021 42.8365 26.8491 42.8865 26.1927C42.8872 26.1903 42.9069 26.0509 42.9456 25.7746C42.9672 25.6196 42.967 25.4576 42.9448 25.2887C42.8959 24.911 42.8898 24.5289 42.9268 24.1498C42.8786 23.9595 42.8749 23.7607 42.916 23.5688C42.9221 23.5394 42.9187 23.5079 42.9063 23.4786C42.8847 23.426 42.8699 23.3716 42.8619 23.3154C42.8555 23.2721 42.8646 23.2029 42.8893 23.1078C42.9117 23.0229 42.91 22.9505 42.8843 22.8904C42.8216 22.7383 42.7868 22.5762 42.7816 22.4118C42.7808 22.3896 42.7887 22.368 42.8034 22.3514C42.8182 22.3349 42.8388 22.3246 42.8609 22.3228C43.2565 22.2934 43.6371 22.1593 43.9638 21.9342C44.1963 21.7753 44.4197 21.6036 44.6331 21.4199C44.8897 21.2899 45.0905 21.0713 45.1982 20.8046C45.2891 20.6821 45.375 20.5571 45.456 20.4298C45.4714 20.4056 45.477 20.3739 45.4715 20.3411C45.4561 20.2496 45.4825 20.1879 45.5508 20.1562C45.5843 20.1413 45.6099 20.1215 45.6228 20.1003C45.9636 19.554 46.128 18.916 46.0936 18.273C46.0934 18.2419 46.0999 18.2112 46.1127 18.1829C46.1382 18.1288 46.1414 18.0669 46.1217 18.0106L46.0773 17.8794C45.9953 17.4951 45.8484 17.1276 45.643 16.7927C45.62 16.7537 45.5877 16.721 45.549 16.6975C45.4132 16.6151 45.3347 16.5368 45.3136 16.4625C45.2979 16.4088 45.2621 16.3633 45.2137 16.3357C44.9237 16.1698 44.6486 15.979 44.3916 15.7655C44.2993 15.6886 44.0682 15.6065 43.6981 15.5193C43.5309 15.5222 43.364 15.5158 43.1975 15.5002C42.9531 15.4778 42.7879 15.4697 42.7019 15.4757C42.3466 15.4997 42.0012 15.6031 41.6913 15.7784C41.4038 15.8662 41.1208 15.9684 40.8435 16.0844C40.8315 16.0895 40.8179 16.0898 40.8055 16.0854C40.7931 16.0811 40.7826 16.0722 40.7761 16.0606C39.7974 14.239 38.5596 12.569 37.1012 11.1029C37.0181 11.0198 36.9993 10.9219 37.045 10.8092L37.6469 9.32602C38.0693 8.22167 38.3426 7.04727 38.4669 5.80282C38.5877 4.59082 38.4412 3.4354 38.0271 2.33657C37.9949 2.26599 37.9565 2.19844 37.9122 2.13473C37.4859 1.30478 36.8716 0.679798 36.0693 0.259778H36.0686C35.805 0.121865 35.5163 0.0388534 35.2198 0.0157669C35.0457 0.0014518 34.871 -0.00312081 34.6964 0.00207051V0.00243095ZM34.5432 0.666342C34.714 0.673362 34.8839 0.695556 35.0507 0.732661C35.1611 0.758071 35.2699 0.789964 35.3765 0.828175C35.1087 0.731818 34.8277 0.677235 34.5432 0.666342ZM36.855 1.87378C36.8614 1.89854 36.8652 1.92392 36.8662 1.94947C36.866 1.96924 36.8617 1.98874 36.8536 2.00678C36.8577 1.99866 36.8607 1.9897 36.8626 1.98083C36.867 1.95872 36.8673 1.93598 36.8633 1.91379C36.8613 1.90031 36.8585 1.88695 36.855 1.87378ZM33.8015 2.37514C33.704 2.37615 33.6065 2.38157 33.5095 2.39136C33.6054 2.38127 33.7024 2.37574 33.8011 2.37478L33.8015 2.37514ZM34.1031 2.38559C34.3078 2.40119 34.5106 2.43619 34.7087 2.49012C35.0868 2.59307 35.4385 2.77595 35.7399 3.02643V3.02679C35.4385 2.77632 35.0868 2.59343 34.7087 2.49048C34.5106 2.43643 34.3079 2.40131 34.1031 2.38559ZM31.9362 3.05347C31.6876 3.25555 31.4405 3.46015 31.1952 3.66728C30.8852 3.92709 30.608 4.22375 30.3698 4.55069C30.1329 4.87914 29.9364 5.23492 29.7845 5.61035L29.3952 6.59361L29.7838 5.61035C29.9392 5.2283 30.1343 4.87508 30.3698 4.55069C30.6076 4.22356 30.8848 3.92666 31.1945 3.66656C31.4401 3.45991 31.6873 3.25531 31.9362 3.05347ZM33.9709 2.89091C34.4329 2.88154 34.8562 3.01274 35.2407 3.2845C35.3752 3.37893 35.4822 3.51121 35.5614 3.68133C35.7815 4.14656 35.9551 4.63237 36.0797 5.1317L36.1662 5.82769C36.1689 5.85071 36.184 5.8803 36.2088 5.91059C36.2813 6.0007 36.2837 6.09753 36.216 6.2011C36.1011 6.3741 36.0668 6.57895 36.1129 6.81563C36.1211 6.85854 36.12 6.90267 36.1095 6.94499C36.0991 6.9873 36.0796 7.02679 36.0524 7.06072C36.0188 7.09932 35.9971 7.14675 35.9897 7.19737C35.9824 7.24798 35.9897 7.29963 36.0109 7.34618C35.9124 7.43365 35.8802 7.53817 35.9143 7.65976L35.8426 7.99676L35.7463 8.23825C35.7439 8.26498 35.7328 8.29018 35.7146 8.30997L35.7161 8.3143L35.7139 8.30997C35.6964 8.3574 35.6902 8.40828 35.6958 8.45853C35.7015 8.50878 35.7188 8.55702 35.7463 8.5994C35.5733 8.72915 35.4688 8.89783 35.4328 9.10544H35.4321C35.4019 9.20868 35.3935 9.31706 35.4075 9.4237C35.422 9.55105 35.3801 9.574 35.2821 9.49254C33.6746 8.16135 31.9159 7.13317 30.0061 6.40798C29.9989 6.40507 29.9926 6.40086 29.9879 6.39579C29.9832 6.39072 29.9803 6.38498 29.9795 6.37915L29.9766 6.35789L30.4588 5.61035C31.13 4.53291 32.02 3.70717 33.1289 3.13312C33.4297 2.97742 33.7104 2.89668 33.9709 2.89091ZM36.1187 3.94625H36.1223V3.94697L36.1187 3.94625ZM8.34109 4.22775C8.35599 4.22633 8.37027 4.22756 8.38326 4.23135C8.3569 4.22429 8.326 4.22774 8.29603 4.24108C8.31088 4.23419 8.32613 4.22968 8.34109 4.22775ZM36.527 4.31209C36.5571 4.32963 36.5751 4.35005 36.5811 4.37336C36.5869 4.39715 36.5805 4.4237 36.562 4.45301C36.58 4.42346 36.5864 4.39667 36.5811 4.37336C36.5751 4.34981 36.5571 4.32975 36.527 4.31245V4.31209ZM8.95418 4.32903L8.98157 4.33191L9.00067 4.3384C8.99443 4.33624 8.98806 4.33431 8.98157 4.33263L8.95418 4.32903ZM9.90968 4.47572L9.92229 4.48041L9.92626 4.48113H9.92229L9.90968 4.47572ZM38.1396 4.88048L38.1346 4.89851C38.1358 4.89226 38.1374 4.88625 38.1396 4.88048ZM38.1313 5.04989L38.1335 5.0607C38.1674 5.20055 38.1962 5.34171 38.22 5.4842H38.2193C38.1957 5.342 38.1669 5.20074 38.1328 5.0607L38.1313 5.04989ZM28.7955 5.10431C28.8037 5.12155 28.8147 5.13737 28.8279 5.15117C28.8644 5.18889 28.9127 5.19622 28.9728 5.17315C28.913 5.19622 28.8645 5.18901 28.8275 5.15153C28.8143 5.13762 28.8037 5.12168 28.7955 5.10431ZM29.0593 5.16342C29.0603 5.16341 29.0612 5.16341 29.0622 5.16342C29.073 5.16594 29.0831 5.17027 29.0939 5.17315L29.0622 5.16414C29.0612 5.16389 29.0603 5.16365 29.0593 5.16342ZM23.1558 5.29065C23.1269 5.29012 23.0981 5.29132 23.0693 5.29426C23.0972 5.29065 23.126 5.28945 23.1558 5.29065ZM37.8397 5.55809C37.8683 5.57347 37.8851 5.59233 37.8902 5.61468C37.8959 5.6363 37.8902 5.66141 37.8729 5.69001C37.8902 5.66165 37.8961 5.63643 37.8905 5.61432C37.885 5.59269 37.8678 5.57395 37.8397 5.55809ZM17.3717 5.80318C17.2568 5.82313 16.8238 5.94916 16.0727 6.18127C16.8243 5.94916 17.2572 5.82313 17.3713 5.80318H17.3717ZM38.0686 5.80607C38.0753 5.80438 38.0823 5.80463 38.0888 5.80679C38.0619 5.80006 38.0279 5.81904 37.9868 5.86374C38.018 5.82962 38.0453 5.81039 38.0686 5.80607ZM38.1501 5.90807C38.1674 5.99001 38.1742 6.0705 38.1706 6.14956C38.167 6.22861 38.1532 6.3061 38.1291 6.38203C38.1329 6.66853 38.0923 6.95389 38.0088 7.22796C37.9919 7.28323 37.9398 7.38138 37.8523 7.52243C37.9398 7.38187 37.9919 7.28371 38.0088 7.22796C38.0921 6.95476 38.1323 6.67278 38.1291 6.38203C38.1778 6.22866 38.185 6.06513 38.1501 5.90807ZM28.1701 5.85761C28.1771 5.90651 28.168 5.95636 28.1442 5.99962C28.1558 5.97753 28.164 5.95385 28.1687 5.92933C28.1732 5.90556 28.1737 5.88155 28.1701 5.85761ZM21.9761 5.91023L21.988 5.91095L21.9635 5.91167L21.9761 5.91023ZM21.0123 5.9178L21.0242 5.91852L21.0005 5.91924L21.0123 5.9178ZM22.3506 5.92645L22.3618 5.92717H22.3625V5.92789L22.3506 5.92645ZM21.6038 5.94195L21.5908 5.94411L21.5836 5.94339H21.5901L21.6038 5.94195ZM19.9026 5.94736C19.8831 5.98288 19.8583 6.01522 19.8291 6.04323C19.8545 6.02088 19.8788 5.98893 19.9026 5.94736ZM23.4045 5.96574H23.4276L23.4045 5.96646V5.96574ZM20.9208 6.0317C20.7218 6.05632 20.5237 6.08757 20.3268 6.12541C20.4348 6.10863 20.5425 6.08988 20.6498 6.06918C20.7399 6.05548 20.8302 6.04275 20.9208 6.0317ZM28.097 6.06774C28.2277 6.1206 28.3572 6.17707 28.4855 6.23714C28.566 6.25108 28.6425 6.2697 28.7151 6.29301C28.6399 6.26926 28.5632 6.25084 28.4855 6.23714C28.3575 6.17734 28.2279 6.12062 28.097 6.06774ZM17.9109 6.09657C17.9115 6.09657 17.9121 6.09657 17.9127 6.09657C17.9121 6.09681 17.9114 6.09704 17.9109 6.09729V6.09657ZM17.9865 6.09657C17.9873 6.09656 17.988 6.09656 17.9887 6.09657C18.0452 6.1343 18.1064 6.15881 18.1725 6.1701L18.1916 6.16794L18.1736 6.17046C18.1074 6.15958 18.0444 6.13463 17.9887 6.09729C17.9881 6.09705 17.9871 6.09681 17.9865 6.09657ZM23.0769 6.1546C23.0769 6.15821 23.0751 6.16181 23.0715 6.16542C23.0751 6.16133 23.0769 6.15797 23.0769 6.1546ZM16.986 6.98431C16.3365 7.06745 15.8035 7.16957 15.3871 7.29068C15.2591 7.32748 15.1328 7.37017 15.0087 7.41863C15.0058 7.42007 15.0043 7.41971 15.0015 7.42079L15.0087 7.41863C15.1328 7.37017 15.2591 7.32748 15.3871 7.29068C15.8038 7.16933 16.337 7.06721 16.986 6.98431ZM18.1347 6.42492C18.1262 6.42501 18.1178 6.42659 18.1098 6.42961C18.1176 6.4261 18.1261 6.4245 18.1347 6.42492ZM37.489 6.88952C37.4813 6.96881 37.48 7.06517 37.4851 7.17858L37.4843 7.19228V7.1793C37.4794 7.08271 37.481 6.9859 37.489 6.88952ZM8.35226 7.19084C8.36713 7.19113 8.38253 7.1947 8.39732 7.20129C8.46291 7.23085 8.54533 7.23877 8.64457 7.22508C8.69719 7.21835 8.75822 7.22916 8.82767 7.25752C8.88264 7.28186 8.94019 7.29988 8.99923 7.31122C9.7124 7.43016 10.2591 7.79732 10.6392 8.41269C10.68 8.47853 10.7611 8.54077 10.8825 8.5994L11.9511 9.80503L12.672 10.8661C12.6805 10.8786 12.6853 10.8932 12.686 10.9084C12.6867 10.9235 12.6832 10.9386 12.676 10.9519C12.586 11.1232 12.4509 11.2665 12.2853 11.3664C12.2787 11.3702 12.2716 11.3728 12.2644 11.3741C12.2571 11.3754 12.2499 11.3754 12.2431 11.3741C12.2363 11.3727 12.2302 11.3701 12.225 11.3663C12.2199 11.3625 12.2158 11.3576 12.2132 11.352L12.144 11.2031C12.1428 11.1053 12.1024 11.0399 12.0229 11.0067C12.0098 11.0013 11.995 10.9995 11.98 11.0015C11.9649 11.0036 11.9501 11.0093 11.9367 11.0182C11.6448 11.209 11.6481 11.4058 11.9468 11.6086V11.6093C11.9706 11.6269 11.98 11.6522 11.9749 11.6854C11.9386 11.7184 11.9113 11.76 11.8956 11.8065L11.8982 11.8177L11.8946 11.8069L11.4559 12.2141C11.4435 12.2257 11.4285 12.234 11.4122 12.2384C11.3959 12.2427 11.3788 12.243 11.3624 12.2392C11.346 12.2354 11.3308 12.2276 11.3183 12.2165C11.3057 12.2054 11.2962 12.1913 11.2905 12.1756L11.1344 11.7377C11.1293 11.7235 11.1206 11.7114 11.1096 11.7029C11.0986 11.6944 11.0858 11.69 11.0731 11.6904C10.8725 11.6952 10.8148 11.8006 10.9001 12.0065C10.9771 12.1935 11.0193 12.393 11.0245 12.5951C11.0255 12.6263 11.0158 12.657 10.9971 12.6823C10.8021 12.954 10.5662 13.1939 10.2979 13.3935C10.2853 13.4028 10.2704 13.4079 10.2563 13.4076C10.2421 13.4073 10.2299 13.4017 10.2222 13.392C10.1974 13.3589 10.1866 13.3046 10.1897 13.2291C10.1905 13.2155 10.188 13.202 10.1826 13.1895C10.1771 13.1771 10.1688 13.1661 10.1583 13.1575C10.1478 13.1488 10.1354 13.1428 10.1222 13.1398C10.1089 13.1369 10.0951 13.1371 10.082 13.1404C9.73186 13.2279 9.71072 13.3845 10.0185 13.6101L9.91761 13.831L9.22306 14.4859C9.15054 14.4022 9.10066 14.3013 9.07817 14.1929C9.04922 14.0208 8.97705 13.8588 8.8684 13.7222C8.86487 13.7176 8.86028 13.714 8.85502 13.7116C8.84977 13.7092 8.84401 13.7081 8.83825 13.7085C8.83248 13.7088 8.8269 13.7106 8.82197 13.7136C8.81705 13.7166 8.81294 13.7208 8.81001 13.7258C8.77735 13.7748 8.75152 13.828 8.73324 13.884C8.71882 13.9287 8.69359 13.9812 8.65755 14.0415C8.5994 14.1398 8.63256 14.2042 8.75702 14.2347C8.767 14.2372 8.77597 14.2431 8.78269 14.2515C8.7894 14.2599 8.79354 14.2704 8.79451 14.2816L8.841 14.8197C8.78093 15.1083 8.6042 15.261 8.31081 15.2778C8.28811 15.082 8.21163 14.8964 8.08987 14.7415C8.08085 14.7303 8.06835 14.7226 8.05454 14.7197C8.04072 14.7167 8.02645 14.7187 8.01418 14.7253C7.90076 14.7848 7.88394 14.8824 7.96372 15.0179C8.01874 15.2265 8.07809 15.4337 8.14177 15.6397C7.97021 15.8124 7.76116 15.8927 7.51462 15.8804C7.33121 15.5391 7.17874 15.1821 7.05904 14.8136C6.96404 14.6451 6.90582 14.4583 6.8882 14.2657L6.78367 14.0242C6.72307 14.0425 6.65905 14.0466 6.59661 14.0361C6.54755 14.0262 6.50418 13.9978 6.4755 13.9568C6.45051 13.921 6.42 13.8362 6.38396 13.7024C6.3657 13.6326 6.35328 13.5615 6.34683 13.4897C6.35356 13.563 6.36593 13.6339 6.38396 13.7024C6.42 13.8364 6.45051 13.9215 6.4755 13.9568C6.50418 13.9978 6.54755 14.0262 6.59661 14.0361C6.64779 14.0474 6.7099 14.0432 6.78367 14.0242H6.78475C6.77555 13.9238 6.755 13.8248 6.72348 13.729C6.6895 13.6362 6.6684 13.5392 6.66077 13.4407C6.63656 12.9769 6.56825 12.5165 6.45676 12.0656C6.43153 11.9635 6.41231 11.7887 6.39909 11.5412C6.39549 11.5423 6.39188 11.5416 6.38828 11.5427L6.39801 11.5405C6.41645 11.3774 6.39873 11.2123 6.34611 11.0568C6.33621 11.0263 6.33398 10.9939 6.33962 10.9624C6.38359 10.7317 6.4045 10.4985 6.40234 10.2628C6.43258 10.1303 6.4151 9.99145 6.35296 9.87063C6.34689 9.85851 6.34461 9.84473 6.3464 9.83097C6.3482 9.8172 6.35398 9.80406 6.36305 9.79314C6.39017 9.76394 6.41039 9.72903 6.42224 9.69098C6.43409 9.65293 6.43727 9.61271 6.43153 9.57328C6.41302 9.45728 6.42635 9.33844 6.4701 9.22943C6.61026 8.86889 6.78239 8.52162 6.98443 8.19175C7.09321 8.01536 7.23787 7.86383 7.40902 7.74698C7.69791 7.54537 7.99936 7.36238 8.31153 7.19913C8.32355 7.19326 8.33747 7.19042 8.35226 7.19084ZM10.3952 7.20634C10.4572 7.2902 10.5212 7.37201 10.5873 7.45179C10.5212 7.37249 10.4572 7.29068 10.3952 7.20634ZM20.4641 7.21967C20.591 7.20958 20.7087 7.26052 20.8174 7.37249C21.0213 7.58328 21.1886 7.82668 21.3122 8.09263C21.3233 8.11666 21.3425 8.14069 21.3699 8.16472C21.4389 8.22815 21.4884 8.32487 21.5184 8.45486C21.559 8.63123 21.632 8.79823 21.7375 8.95586C21.7447 8.96691 21.749 8.97954 21.7501 8.99264C21.7512 9.00574 21.7491 9.01892 21.744 9.03102C21.7388 9.04312 21.7308 9.05376 21.7205 9.06203C21.7103 9.07029 21.6982 9.07591 21.6853 9.07841C21.5159 9.10868 21.3885 9.06447 21.3032 8.94577C21.2456 8.86415 21.1871 8.78317 21.1277 8.70284C20.7624 8.32161 20.4733 7.8741 20.276 7.38439C20.2709 7.37169 20.2684 7.35812 20.2685 7.34447C20.2687 7.33081 20.2715 7.31734 20.2769 7.30484C20.2823 7.29234 20.29 7.28105 20.2998 7.27163C20.3095 7.26221 20.321 7.25484 20.3337 7.24995C20.3781 7.23313 20.4216 7.22304 20.4641 7.21967ZM14.0269 7.47846L14.015 7.48495L14.006 7.48783C14.0096 7.48675 14.0106 7.48531 14.0142 7.48423L14.0269 7.47846ZM13.851 7.58226L13.8503 7.58407L13.8495 7.58335L13.851 7.58226ZM13.1759 7.68282C13.2023 7.67762 13.2295 7.67989 13.254 7.68937C13.2785 7.69885 13.2994 7.71511 13.3139 7.73617V7.73689C13.2994 7.71583 13.2785 7.69957 13.254 7.69009C13.2295 7.68061 13.2023 7.67834 13.1759 7.68354L12.6944 7.77978C12.6601 7.78826 12.6247 7.79166 12.5895 7.78987C12.6147 7.79179 12.6497 7.78819 12.6944 7.77906L13.1759 7.68282ZM31.1541 7.72067C31.1671 7.72644 31.1829 7.73148 31.1959 7.73689C31.6345 7.92469 32.0617 8.13795 32.4754 8.37557C32.6427 8.47192 33.0515 8.71738 33.702 9.11193C33.2948 8.86351 32.8857 8.61829 32.4747 8.37629C32.2681 8.25725 32.058 8.14427 31.8447 8.03749C31.6314 7.93124 31.4151 7.83124 31.1959 7.73761L31.1541 7.72067ZM35.9576 7.98234C35.9734 7.99916 35.9872 8.01214 35.999 8.02127C36.0108 8.03088 36.0204 8.03725 36.0278 8.04037C36.0173 8.03559 36.0075 8.02914 35.999 8.02127C35.9847 8.00896 35.9709 7.99573 35.9576 7.98234ZM14.0903 8.05154C14.1155 8.10489 14.1397 8.15823 14.1714 8.20797C14.2539 8.36872 14.343 8.52587 14.4309 8.68374C14.343 8.52587 14.2532 8.36908 14.1707 8.20797C14.139 8.15823 14.1155 8.10453 14.0903 8.05154ZM10.9019 8.07677C10.9289 8.09672 10.9561 8.11558 10.9838 8.13336C11.2274 8.28642 11.402 8.43564 11.5075 8.58101C11.4017 8.43588 11.2272 8.2869 10.9838 8.13408C10.9558 8.11605 10.9285 8.09669 10.9019 8.07677ZM13.8263 8.08487C13.8397 8.08795 13.8507 8.09514 13.8575 8.10525V8.10597C13.8509 8.09563 13.8397 8.08815 13.8263 8.08487ZM27.2298 8.25483C27.2668 8.26333 27.3014 8.28009 27.331 8.30384C27.4024 8.35815 27.4543 8.45667 27.4867 8.5994C27.6886 9.50335 27.7885 9.96158 27.7866 9.97407C27.765 10.1283 27.7955 10.2677 27.8782 10.3922C27.8872 10.4055 27.893 10.4203 27.8948 10.435C27.8967 10.4497 27.8947 10.4639 27.889 10.4762C27.8311 10.6035 27.7303 10.6645 27.5866 10.6593C27.5726 10.6586 27.5588 10.6536 27.5471 10.6447C27.5353 10.6358 27.526 10.6235 27.5203 10.6092C27.419 10.368 27.3543 10.1132 27.3282 9.85297C27.1548 9.45762 27.0126 9.04933 26.9028 8.63183C26.8952 8.60281 26.8936 8.57262 26.8981 8.54315C26.9027 8.51369 26.9132 8.48559 26.9292 8.46063C27.0282 8.30444 27.1284 8.23596 27.2298 8.25519V8.25483ZM33.3253 8.34025C33.7808 8.57284 34.206 8.86058 34.5912 9.19699C34.2057 8.86086 33.7806 8.57315 33.3253 8.34025ZM16.9215 8.34097C16.931 8.33987 16.9409 8.34103 16.9502 8.34436C16.9595 8.34768 16.9681 8.35307 16.9752 8.36007C17.165 8.54413 17.3334 8.74729 17.4805 8.96956C17.5447 9.06687 17.6485 9.20984 17.7919 9.39847C17.9005 9.53952 17.9915 9.69294 18.0648 9.85874C18.1592 10.0736 18.0949 10.1219 17.8719 10.0036C17.7075 9.91746 17.5538 9.81234 17.4138 9.69042C17.2569 9.5549 17.0339 9.24541 16.7449 8.76195C16.7357 8.74664 16.7298 8.7305 16.7277 8.7151C16.7256 8.69969 16.7274 8.68554 16.733 8.674L16.8779 8.37197C16.8818 8.36357 16.8878 8.35638 16.8954 8.35098C16.9029 8.34559 16.9119 8.34215 16.9215 8.34097ZM35.7377 8.35214L35.7406 8.35575H35.7399L35.7377 8.35214ZM13.8438 8.47685C13.8709 8.49001 13.9002 8.49819 13.9303 8.501C13.957 8.50415 13.9821 8.51512 14.0024 8.53252C13.9822 8.5152 13.9572 8.50455 13.9306 8.50136C13.9006 8.49843 13.8709 8.49013 13.8438 8.47685ZM4.23003 8.51578C4.19435 8.65274 4.12983 9.07264 4.04044 9.74196C4.13031 9.06675 4.1935 8.65803 4.23003 8.51578ZM14.5871 8.99028C14.588 9.0042 14.5856 9.0176 14.5801 9.02939C14.5561 9.07504 14.5257 9.10027 14.4889 9.10508C14.5255 9.10027 14.5556 9.07504 14.5794 9.02939C14.585 9.01766 14.5879 9.0042 14.5871 8.99028ZM36.5058 9.06255C36.5877 9.13814 36.6787 9.20316 36.7768 9.2561C36.7321 9.22415 36.6852 9.19525 36.6366 9.1696C36.5909 9.1365 36.5473 9.10076 36.5058 9.06255ZM11.9818 9.24348C12.0195 9.31629 12.0571 9.40964 12.0946 9.52354C12.1047 9.55334 12.1232 9.57963 12.1479 9.59923C12.3291 9.74277 12.4496 9.94932 12.4853 10.1777C12.4495 9.94927 12.3289 9.74271 12.1476 9.59923C12.123 9.57958 12.1046 9.5533 12.0946 9.52354C12.0643 9.42741 12.0266 9.33377 11.9818 9.24348ZM35.7334 9.23447C35.7254 9.26444 35.7126 9.29292 35.6955 9.31881C35.6839 9.33546 35.6747 9.35366 35.6681 9.37288C35.6745 9.3537 35.6834 9.3355 35.6948 9.31881C35.7121 9.29296 35.7252 9.26448 35.7334 9.23447ZM24.0367 9.72502C24.0631 9.72626 24.0887 9.73474 24.1106 9.74953C24.1211 9.75649 24.1294 9.76766 24.1345 9.78174C24.1396 9.79582 24.1413 9.81226 24.1394 9.82918C24.1214 9.98296 24.154 10.1144 24.2371 10.2235C24.3661 10.3936 24.4326 10.4825 24.4364 10.4902C24.497 10.6262 24.547 10.7936 24.5864 10.9923C24.5979 11.0512 24.6225 11.1034 24.6603 11.1491C24.7996 11.3156 24.8772 11.5007 24.8931 11.7045C24.9003 11.7982 24.8628 11.8224 24.7806 11.7769C24.7082 11.7381 24.6501 11.6769 24.6152 11.6025C24.5834 11.5328 24.5497 11.4639 24.5143 11.396C24.4329 11.2708 24.3603 11.1401 24.2969 11.0049C24.0417 10.64 23.8818 10.217 23.832 9.7744C23.8311 9.76739 23.8318 9.76017 23.8338 9.75342C23.8358 9.74668 23.8391 9.74064 23.8435 9.73589C23.8478 9.73114 23.853 9.72785 23.8586 9.72632C23.8642 9.7248 23.8699 9.72509 23.8752 9.72718L23.9041 9.73979C23.9141 9.74365 23.924 9.74584 23.9331 9.74622C23.9421 9.74659 23.9501 9.74514 23.9563 9.74196C23.9815 9.7302 24.009 9.7244 24.0367 9.72502ZM4.03504 9.78052V9.78124H4.03143L4.03504 9.78052ZM27.6338 10.1925C27.6175 10.1937 27.5835 10.2178 27.5318 10.2649C27.5207 10.2752 27.5132 10.2887 27.5102 10.3035C27.5049 10.3391 27.5212 10.3501 27.5592 10.3367C27.5716 10.3323 27.5834 10.3248 27.594 10.3145C27.6045 10.3042 27.6135 10.2914 27.6205 10.2768C27.6479 10.2192 27.6523 10.1911 27.6338 10.1925ZM36.5988 10.6978C36.6018 10.7006 36.6054 10.7026 36.6092 10.704C36.6131 10.7053 36.6172 10.7058 36.6212 10.7054C36.6253 10.7051 36.6292 10.7039 36.6327 10.702C36.6362 10.7001 36.6393 10.6974 36.6417 10.6942L36.6453 10.6888L36.6424 10.6942C36.6421 10.6942 36.6419 10.6942 36.6417 10.6942C36.6393 10.6974 36.6362 10.7001 36.6327 10.702C36.6292 10.7039 36.6253 10.7051 36.6212 10.7054C36.6172 10.7058 36.6131 10.7053 36.6092 10.704C36.6054 10.7026 36.6018 10.7006 36.5988 10.6978ZM12.548 10.4798C12.6153 10.4824 12.6709 10.492 12.7149 10.5086C12.6611 10.4903 12.6048 10.4805 12.548 10.4798ZM20.6436 10.5965C20.8046 10.5898 20.9442 10.6982 21.0624 10.9216C21.1067 11.0053 21.1683 11.0729 21.2473 11.1246C21.3057 11.163 21.3214 11.2219 21.2942 11.3012C21.2788 11.3459 21.2768 11.3942 21.2886 11.4399C21.3003 11.4856 21.3252 11.5267 21.3602 11.5582C21.6761 11.8405 21.8554 12.1143 21.8979 12.3796C21.9143 12.4788 21.8821 12.4985 21.8013 12.4387C21.384 12.1293 20.9959 11.7822 20.6422 11.4017C20.6214 11.3798 20.6078 11.3509 20.6033 11.3188C20.5768 11.1461 20.487 11.0071 20.3337 10.9018C20.3201 10.8925 20.309 10.88 20.3012 10.8656C20.2934 10.8511 20.2891 10.835 20.2887 10.8186C20.2883 10.8021 20.2917 10.7858 20.2988 10.771C20.3059 10.7562 20.3163 10.7432 20.3293 10.7331C20.4418 10.6462 20.5466 10.6005 20.6436 10.5962V10.5965ZM12.783 10.9703L12.7845 10.9739C12.7842 10.9739 12.784 10.9739 12.7837 10.9739C12.783 10.9728 12.7837 10.9714 12.783 10.9703ZM6.18824 11.8404H6.18896L6.18824 11.8418V11.8404ZM36.5133 12.217C36.544 12.2157 36.5744 12.2257 36.5988 12.2451C37.0673 12.6224 37.2932 13.0971 37.2764 13.6692C37.2675 13.9573 37.193 14.1767 37.0529 14.3273C36.9138 14.4766 36.7348 14.539 36.5159 14.5148C36.3472 14.4963 36.1936 14.415 36.0552 14.2711C35.5944 13.7929 35.5542 13.2274 35.9348 12.5746C36.0663 12.3497 36.2591 12.2305 36.5133 12.217ZM28.1013 12.5634V12.5663L28.0004 12.8957L28.1006 12.5663C28.1006 12.5651 28.1008 12.5641 28.1013 12.5634ZM6.40342 12.6283C6.40502 12.6298 6.40658 12.6314 6.4081 12.633C6.40647 12.6312 6.40478 12.6296 6.40306 12.6279L6.40342 12.6283ZM37.8934 12.7195C38.0499 12.9045 38.2072 13.1015 38.3656 13.3106C38.6583 13.6979 38.9554 14.0821 39.2569 14.4632C39.4037 14.6658 39.5279 14.847 39.6293 15.0068C39.5104 14.8221 39.386 14.641 39.2562 14.4639C38.9548 14.0832 38.6577 13.699 38.3649 13.3117C38.2134 13.1098 38.0561 12.9124 37.8934 12.7195ZM6.23185 12.78C6.26724 12.8147 6.28964 12.8605 6.29529 12.9098C6.28909 12.8607 6.26678 12.8151 6.23185 12.78ZM30.0526 12.9873C30.2249 12.9897 30.3973 13.0086 30.5699 13.0442C30.7429 13.0795 30.9161 13.1316 31.0896 13.2003L31.9575 13.449C32.3083 13.5302 32.6458 13.6508 32.97 13.8108C33.3273 13.9521 33.6623 14.1304 33.9752 14.3457C34.1922 14.4957 34.4896 14.7285 34.8676 15.0442C35.7039 15.744 36.4171 16.5789 36.9776 17.5143C36.9902 17.5352 37.0148 17.5481 37.0462 17.5502C37.0777 17.5522 37.1135 17.5434 37.1463 17.5254C37.2513 17.4678 37.3625 17.4281 37.48 17.4065C37.597 17.3856 37.6388 17.4114 37.6054 17.484C37.6008 17.4936 37.592 17.5038 37.5799 17.5137C37.5677 17.5237 37.5523 17.5332 37.5348 17.5417L37.1809 17.7107C37.1693 17.7167 37.1606 17.7271 37.1562 17.7402C37.1518 17.7533 37.1521 17.768 37.1571 17.7817C37.2525 18.0348 37.383 18.2732 37.5449 18.4899C37.9274 19.3774 38.215 20.3028 38.4027 21.2508C38.4079 21.2763 38.4033 21.3077 38.3897 21.3402C38.3472 21.4407 38.3508 21.6047 38.4006 21.8322C38.4102 21.8764 38.4164 21.9215 38.4193 21.9674C38.4265 22.1166 38.4455 22.2663 38.4762 22.4165C38.4998 22.5342 38.5033 22.6457 38.4867 22.7509C38.4591 22.9254 38.4443 23.0381 38.4424 23.089C38.3313 26.0152 37.2163 28.4359 35.0972 30.351C33.6766 31.6355 31.991 32.4239 30.0404 32.7161C30.0346 32.7171 29.9652 32.7368 29.8321 32.7752C29.7533 32.7976 29.6697 32.7963 29.5917 32.7716C29.5619 32.7621 29.5302 32.7597 29.4994 32.7648C28.8266 32.8803 28.2155 32.8935 27.6662 32.8044C27.4147 32.7631 27.2157 32.7508 27.0694 32.7676C27.0383 32.7715 27.0067 32.7671 26.9778 32.755C26.6717 32.6217 26.3503 32.5269 26.0209 32.4728C25.7545 32.3435 25.4826 32.226 25.2059 32.1207C24.254 31.7597 23.3775 31.225 22.6209 30.5438C21.1691 29.239 20.1613 27.5991 19.5973 25.6239C19.5882 25.5921 19.5823 25.5595 19.5796 25.5266C19.5554 25.1984 19.5059 24.9421 19.4311 24.7578C19.3747 24.6178 19.3401 24.47 19.3284 24.3195L19.35 24.0301C19.3683 23.7944 19.2346 23.6735 18.9489 23.6675C18.8336 23.6656 18.8291 23.6424 18.9356 23.598C19.0386 23.5547 19.1516 23.5739 19.2744 23.6556C19.3123 23.6808 19.3294 23.672 19.3255 23.6289L19.256 22.9009C19.2553 22.889 19.2504 22.8763 19.2416 22.8639C19.2328 22.8515 19.2204 22.8398 19.2055 22.8299C19.1279 22.7777 19.1279 22.7253 19.2055 22.6727C19.2332 22.6535 19.253 22.629 19.2617 22.6032C19.3151 22.4326 19.3348 22.2572 19.3209 22.0769V21.8837L19.3165 21.8823L19.3209 21.883C19.3981 21.4383 19.519 21.0024 19.682 20.5815C19.8409 19.6754 20.1534 18.8031 20.6061 18.0023C20.6902 17.9629 20.7131 17.8997 20.6746 17.8127L21.0567 17.3268C21.411 16.6919 21.8795 16.1277 22.4386 15.6627V15.6635L23.0855 15.2093C23.1167 15.1908 23.1427 15.1648 23.1612 15.1336C23.3467 15.0267 23.5364 14.9282 23.7303 14.8381C23.9606 14.6097 24.225 14.4184 24.5139 14.2711C25.1555 14.0308 25.7902 13.7737 26.4181 13.4998C26.6686 13.4755 26.916 13.4259 27.1566 13.352C28.0877 13.0663 29.0049 12.9851 29.9081 13.1084C30.393 13.1744 30.7868 13.2051 31.0896 13.2003C30.9212 13.1332 30.7473 13.0809 30.5699 13.0442C30.3997 13.0089 30.2265 12.9898 30.0526 12.9873ZM18.4108 13.0384C18.4238 13.0407 18.4366 13.0458 18.4483 13.0533C18.46 13.0608 18.4705 13.0706 18.4789 13.0821C18.7348 13.4339 19.011 13.7705 19.3061 14.0902C19.4161 14.1841 19.5201 14.2846 19.6178 14.3915C19.6923 14.472 19.728 14.5466 19.7249 14.6153C19.7196 14.7167 19.6502 14.7754 19.5166 14.7912C19.4871 14.7952 19.4558 14.7878 19.4283 14.7703C19.1527 14.5973 18.851 14.3263 18.5232 13.9572C18.3207 13.7301 18.1853 13.5283 18.117 13.3517C18.1105 13.335 18.1078 13.3179 18.1091 13.3026C18.1105 13.2873 18.1159 13.2745 18.1246 13.2659L18.3416 13.0575C18.3503 13.0492 18.3609 13.0432 18.3728 13.0399C18.3847 13.0366 18.3978 13.0361 18.4108 13.0384ZM24.6884 13.941C24.7371 13.9374 24.7876 13.9374 24.8397 13.941C24.6307 13.927 24.45 13.9691 24.2977 14.0671C24.2965 14.0674 24.2953 14.0676 24.2941 14.0678C24.2953 14.0674 24.2965 14.0669 24.2977 14.0664C24.4153 13.9925 24.5497 13.9494 24.6884 13.941ZM24.0493 14.0974C24.0259 14.0974 24.0024 14.0986 23.979 14.101C24.0007 14.0983 24.0241 14.0971 24.0493 14.0974ZM14.5873 14.2037C14.675 14.1903 14.7853 14.2651 14.9182 14.4283C14.9963 14.5729 15.1009 14.6885 15.2321 14.775C15.3967 14.8843 15.4805 14.9402 15.4834 14.9426C15.7227 15.131 15.9604 15.321 16.1966 15.5128C16.2606 15.544 16.3123 15.6001 16.352 15.6811C16.3586 15.6947 16.3615 15.7099 16.3606 15.725C16.3596 15.7401 16.3548 15.7547 16.3465 15.7674C16.3382 15.7801 16.3268 15.7904 16.3134 15.7974C16.3 15.8044 16.285 15.8078 16.2698 15.8073C15.8383 15.7888 15.5071 15.6017 15.2765 15.2461C15.2596 15.2205 15.234 15.2012 15.204 15.1913C14.9678 15.117 14.7699 14.9536 14.6522 14.7357C14.6379 14.7097 14.6128 14.69 14.5823 14.6809C14.5212 14.662 14.4648 14.6303 14.4168 14.5879C14.406 14.5783 14.398 14.5657 14.3935 14.5513C14.3891 14.5369 14.3884 14.5213 14.3916 14.5061C14.4344 14.3175 14.4996 14.2169 14.5873 14.2037ZM23.5509 14.7588C23.5286 14.7773 23.4978 14.7864 23.4651 14.784C23.3485 14.7754 23.2649 14.8001 23.2142 14.8583C23.2649 14.8001 23.3488 14.7752 23.4658 14.7836C23.4981 14.786 23.5286 14.7769 23.5509 14.7588ZM4.33203 15.2821C4.24977 15.3923 4.15864 15.4956 4.05955 15.591C4.04108 15.7703 3.96125 15.9377 3.83356 16.065C3.83282 16.0658 3.8321 16.0667 3.83139 16.0675C3.83184 16.0663 3.83233 16.0651 3.83283 16.0639C3.96211 15.9341 4.0378 15.7765 4.05991 15.591C4.1589 15.4956 4.24961 15.3927 4.33203 15.2821ZM22.0972 15.3506C22.1117 15.3631 22.1203 15.3785 22.1232 15.3967C22.1257 15.4184 22.1232 15.4403 22.116 15.4609C22.1004 15.5082 22.0629 15.5664 22.0035 15.6353C22.0619 15.5669 22.1005 15.5077 22.116 15.4609C22.1232 15.4403 22.1257 15.4184 22.1232 15.3967C22.1202 15.3787 22.111 15.3623 22.0972 15.3502V15.3506ZM21.7725 15.6173C21.8172 15.6606 21.8585 15.6842 21.8965 15.6883C21.8585 15.6847 21.8172 15.6613 21.7725 15.6173ZM4.6283 15.6487C4.74148 15.9518 4.88745 16.2362 5.08389 16.4928C4.88745 16.2369 4.74148 15.9522 4.6283 15.6487ZM43.0587 15.8909C43.6895 15.852 44.2079 16.0883 44.614 16.5998C44.6344 16.6075 44.6438 16.6248 44.6421 16.6518L45.0195 16.9235C45.0973 16.9797 45.0895 17.01 44.9961 17.0143C44.7481 17.0268 44.7655 17.1329 45.0483 17.3326C45.1331 17.3932 45.1932 17.4722 45.2285 17.5698C45.3011 17.7723 45.3323 18.0186 45.3222 18.3086C45.321 18.338 45.3312 18.3687 45.3511 18.3955C45.4256 18.4943 45.381 18.5332 45.2174 18.5123C45.223 18.5306 45.2324 18.5476 45.245 18.5621C45.2576 18.5765 45.2731 18.5882 45.2905 18.5963C45.3052 18.6029 45.3191 18.6111 45.332 18.6208C45.3738 18.6616 45.3609 18.6804 45.2934 18.677C45.3203 18.8572 45.3143 19.0347 45.2754 19.2094C45.2744 19.2143 45.2721 19.2189 45.2688 19.2227C45.2655 19.2266 45.2612 19.2296 45.2563 19.2316C45.2513 19.2336 45.2458 19.2345 45.2403 19.2342C45.2347 19.2339 45.2292 19.2324 45.2242 19.2299C45.1665 19.2003 45.1187 19.2062 45.0807 19.2476C45.0725 19.2569 45.0683 19.2696 45.0687 19.2836C45.0691 19.2976 45.0741 19.3121 45.0829 19.3247C45.2492 19.565 45.2041 19.775 44.9478 19.9547C44.9381 20.0939 44.898 20.1101 44.8274 20.0034C44.6303 20.1584 44.6411 20.21 44.8598 20.1584C44.8772 20.1544 44.8941 20.1534 44.9084 20.1557C44.9226 20.1579 44.9336 20.1632 44.9398 20.171C44.9499 20.1837 44.9551 20.1999 44.9553 20.2196C45.1178 20.2852 45.1766 20.3889 45.1319 20.5307C45.1275 20.5445 45.1182 20.5561 45.1059 20.5631C45.0936 20.5701 45.0793 20.5719 45.066 20.5682L44.7589 20.4817L44.441 20.8659C44.4204 20.8906 44.3916 20.9062 44.3606 20.9091C44.2397 20.9228 44.1865 20.9663 44.2009 21.0396C44.2637 21.1033 44.2819 21.1714 44.2557 21.244C44.2514 21.2558 44.2426 21.2664 44.2305 21.2746C44.2184 21.2827 44.2034 21.2881 44.1872 21.2901C44.1265 21.2996 44.0682 21.3209 44.0157 21.3528C43.9659 21.4365 43.8842 21.5007 43.7706 21.5457C43.6569 21.5906 43.4789 21.6871 43.2364 21.8351C43.1543 21.9182 43.0509 21.9572 42.9265 21.9519L42.5466 21.9497C42.4334 21.9495 42.3029 21.9193 42.1551 21.8592L41.1243 21.4437C41.0388 21.4088 40.9084 21.3223 40.7332 21.1842C39.9451 20.5637 39.636 19.7482 39.8059 18.7376C39.8066 18.734 39.8092 18.693 39.8138 18.6147C39.8176 18.543 39.8495 18.4835 39.9093 18.4359L39.989 18.2917C39.9849 18.1358 40.0466 18.015 40.1742 17.9295C40.1713 17.8931 40.1767 17.8565 40.19 17.8224C40.2033 17.7884 40.2242 17.7578 40.251 17.733C40.2871 17.7007 40.3145 17.6598 40.3307 17.614C40.3468 17.5683 40.3511 17.5192 40.3433 17.4714C40.3164 17.3909 40.2695 17.362 40.2027 17.3849C40.1939 17.3882 40.1844 17.396 40.175 17.4078C40.1655 17.4196 40.1565 17.4349 40.1486 17.4523L40.0081 17.764C40.0017 17.7772 39.9917 17.7889 39.9787 17.7981C39.9658 17.8073 39.9502 17.8138 39.9335 17.817C39.8782 17.8276 39.8573 17.8027 39.8707 17.7424C39.9152 17.5487 40.0209 17.3877 40.1879 17.2594C40.1986 17.2509 40.2118 17.2446 40.2268 17.2409C40.2417 17.2373 40.258 17.2363 40.2748 17.2382C40.4021 17.2519 40.5055 17.2092 40.5848 17.1102C40.696 16.9004 40.8627 16.7251 41.0666 16.6035C41.5369 16.144 42.1085 15.9178 42.7816 15.9248H42.7823C42.8739 15.9084 42.9659 15.8971 43.0587 15.8909ZM3.79571 16.1435C3.7957 16.1443 3.7957 16.145 3.79571 16.1457L3.82238 16.3584L3.79499 16.145C3.79523 16.1445 3.79547 16.144 3.79571 16.1435ZM28.7573 16.3814C28.6449 16.3792 28.5325 16.3863 28.4213 16.4027C27.3756 16.5553 26.4666 16.9295 25.6943 17.5254C25.357 17.7864 25.1716 18.1424 25.1382 18.5934C25.1262 18.7573 25.1677 18.8964 25.2629 19.0108C25.3814 19.1538 25.5328 19.2661 25.7041 19.338C25.9628 19.45 26.2311 19.5181 26.5089 19.5424L26.8744 19.6037C27.0003 19.6248 27.1274 19.6133 27.2557 19.5691C27.3297 19.5434 27.5628 19.5497 27.9549 19.5882C27.9687 19.5896 27.9815 19.5955 27.9912 19.6049C28.0009 19.6144 28.007 19.6268 28.0083 19.6401C28.0472 20.0505 28.1092 20.4576 28.1943 20.8616C28.2183 20.9757 28.2303 21.1283 28.2303 21.3193C28.2293 21.4755 28.2482 21.6301 28.2869 21.7832C28.2896 21.7939 28.2957 21.8056 28.3049 21.8175C28.3142 21.8295 28.3263 21.8414 28.3406 21.8527L28.4415 21.9317C28.4416 21.9537 28.437 21.9756 28.428 21.9957C28.419 22.0159 28.4058 22.0338 28.3893 22.0485C28.3191 22.1338 28.3041 22.2251 28.3442 22.3224C28.3568 22.3513 28.3639 22.3824 28.3651 22.4139C28.3658 22.7215 28.4365 23.0103 28.577 23.2804C28.5793 23.2851 28.5805 23.2903 28.5805 23.2955C28.5804 23.3007 28.5791 23.3058 28.5767 23.3104C28.5743 23.315 28.5709 23.3189 28.5667 23.3219C28.5625 23.3248 28.5576 23.3266 28.5525 23.3273C27.9874 23.3811 27.6918 23.4061 27.6659 23.4022C27.4689 23.37 27.2667 23.3949 27.0834 23.474V23.4747L27.0391 23.479V23.4783C26.873 23.3924 26.6846 23.3595 26.4992 23.3839C26.3439 23.4048 26.2216 23.4067 26.1322 23.3896C25.8119 23.3294 25.4888 23.2848 25.1641 23.2559C25.1329 23.2526 25.1031 23.2411 25.0776 23.2227C24.9246 23.1177 24.7588 23.0985 24.5802 23.1651L24.0976 23.1896V23.1889C23.8489 23.2179 23.6267 23.3054 23.4308 23.4513C23.2867 23.5589 23.1938 23.6303 23.1522 23.6653C23.0607 23.7442 22.9866 23.8413 22.9349 23.9505C22.8576 24.1103 22.7697 24.2648 22.6718 24.4129C22.5711 24.5597 22.5183 24.7341 22.5204 24.9121C22.5209 25.0387 22.5413 25.2061 22.5817 25.4142C22.6252 25.641 22.722 25.8463 22.8722 26.0301C22.8758 26.0482 22.8838 26.064 22.8963 26.0777V26.0784C22.9179 26.1858 22.9789 26.2601 23.0791 26.3012C23.2677 26.4741 23.4762 26.6241 23.7001 26.7481C23.7149 26.7566 23.7309 26.7613 23.7463 26.7617C23.7616 26.7621 23.7756 26.7581 23.7866 26.7503C23.8032 26.738 23.8166 26.7217 23.8255 26.7031C23.8322 26.6892 23.841 26.6773 23.8509 26.6686C23.8607 26.6599 23.8714 26.6548 23.8817 26.6537C23.9279 26.6489 23.9375 26.6679 23.9106 26.7106C23.8096 26.874 23.8399 26.9766 24.0014 27.0184C24.5485 27.1597 25.1032 27.255 25.6655 27.3042C25.6798 27.3052 25.6935 27.3106 25.7045 27.3196C25.7155 27.3286 25.7233 27.3408 25.7268 27.3543C25.7676 27.5153 25.7327 27.6549 25.6219 27.7732C25.5994 27.7975 25.5863 27.8267 25.5851 27.8553C25.572 28.3721 25.5826 28.8891 25.6168 29.4048C25.6524 29.9767 25.7663 30.5136 25.9585 31.0156C26.0366 31.2213 26.1576 31.3735 26.3215 31.4723C26.8314 31.7791 27.3612 31.8248 27.911 31.6092C28.0941 31.5362 28.2075 31.4849 28.2512 31.4553C28.3632 31.3803 28.4324 31.2671 28.4588 31.1154C28.4692 31.051 28.498 30.9909 28.5417 30.9424C28.6023 30.8759 28.6392 30.8272 28.6524 30.7964C28.8592 30.3467 28.9271 29.8455 28.8474 29.3569C28.9204 28.8107 28.8994 28.2561 28.7854 27.7169C28.7814 27.6986 28.7752 27.682 28.7672 27.6684C28.7591 27.6549 28.7494 27.6447 28.7389 27.6387C28.699 27.6164 28.6718 27.6431 28.6574 27.7187C28.643 27.7908 28.6076 27.8269 28.5511 27.8269C28.5371 27.8268 28.5236 27.8213 28.513 27.8113C28.5024 27.8013 28.4954 27.7875 28.4934 27.7724C28.4852 27.7298 28.4895 27.6857 28.5056 27.6454C28.5216 27.6051 28.549 27.5703 28.5843 27.545C28.6126 27.5234 28.6312 27.4971 28.6362 27.4718C28.6621 27.3421 28.604 27.2874 28.4617 27.3079C28.412 27.3151 28.3817 27.3087 28.3709 27.2887C28.3682 27.2837 28.3672 27.278 28.3682 27.272C28.3692 27.2659 28.3719 27.2597 28.3764 27.2538C28.3808 27.2479 28.3868 27.2424 28.3939 27.2377C28.401 27.2331 28.409 27.2293 28.4174 27.2268C28.6778 27.1419 28.944 27.0845 29.2157 27.0545C29.321 27.0427 29.4502 27.007 29.6035 26.9474C29.7849 26.8773 29.9806 26.8522 30.1737 26.8743C30.1985 26.8767 30.343 26.8445 30.6073 26.7777L30.8932 26.7052C31.4407 26.4912 31.9858 26.2711 32.5284 26.0449C32.6079 26.012 32.6848 25.9735 32.7587 25.9296C32.8325 25.8866 32.9031 25.8384 32.97 25.7854L33.183 25.5021C33.2318 25.4375 33.3189 25.3618 33.4443 25.275C33.5476 25.2037 33.6325 25.1118 33.6991 24.9993C34.0425 24.6352 34.3458 24.2352 34.6038 23.8063C34.6806 23.5196 34.7689 23.2361 34.8683 22.9564C34.889 22.8982 34.889 22.8539 34.8683 22.8234C34.8395 22.7825 34.7872 22.7675 34.7116 22.7783C34.6287 22.7903 34.6214 22.7723 34.6899 22.7243C34.7433 22.6868 34.7899 22.6765 34.8298 22.6933C34.8419 22.6986 34.855 22.7002 34.8667 22.6977C34.8783 22.6953 34.8877 22.6889 34.8928 22.6799C35.001 22.4839 35.0108 22.2783 34.9224 22.0632C34.882 21.9633 34.7875 21.7969 34.6387 21.564C34.4496 21.2659 34.1988 21.1366 33.8862 21.1762C33.8568 21.1802 33.8259 21.1732 33.7989 21.1564C33.7309 21.1119 33.6637 21.0972 33.5971 21.1121V21.1113C33.0223 21.2375 32.4777 21.5156 31.9633 21.9457C31.9099 21.9901 31.8485 22.0237 31.7823 22.0449C31.4395 22.1537 31.094 22.3068 30.7461 22.504C30.3185 22.6568 29.8998 22.8332 29.4918 23.0324C29.4865 23.0348 29.4196 23.0837 29.2911 23.1791C29.2098 23.2397 29.1101 23.2565 28.9919 23.2296C28.8973 23.125 28.8444 22.9893 28.843 22.8483V22.8475C28.8889 22.6913 28.8583 22.5535 28.7511 22.4341L28.7468 22.0041C28.7165 21.2691 28.6068 20.5396 28.4195 19.8282C28.409 19.7105 28.3144 19.6184 28.1359 19.5521C28.0991 19.5392 28.0994 19.5275 28.1366 19.5172C28.4382 19.4323 28.7455 19.3514 29.0586 19.2742C29.2686 19.2219 29.5938 19.0407 30.0343 18.7307C30.3514 18.5084 30.5469 18.1857 30.6207 17.7626C30.6832 17.4082 30.6064 17.1376 30.3904 16.9509C30.2854 16.8608 30.059 16.7473 29.7113 16.6103C29.5051 16.5293 29.2928 16.465 29.0762 16.4182H29.0755C28.9707 16.3965 28.8642 16.3842 28.7573 16.3814ZM32.97 25.7854C32.8351 25.8913 32.6866 25.9786 32.5284 26.0449C31.9858 26.2711 31.4407 26.4912 30.8932 26.7052L30.594 26.9186C30.5589 26.9433 30.5285 26.9689 30.5049 26.9938C30.4813 27.0186 30.465 27.0421 30.457 27.0628C30.3869 27.2545 30.4203 27.3098 30.5572 27.2286C30.7411 27.1204 30.9323 27.0291 31.131 26.9546C31.4545 26.8335 31.6509 26.7563 31.7204 26.7229C32.357 26.4152 32.9619 26.0458 33.5265 25.62C33.5391 25.6107 33.5487 25.5983 33.5536 25.5847C33.5585 25.5711 33.5585 25.5571 33.5535 25.545C33.5247 25.4767 33.4728 25.4838 33.3978 25.5663C33.2904 25.6845 33.1478 25.7578 32.97 25.7854ZM40.4305 16.4744C40.4269 16.4858 40.4214 16.4965 40.4143 16.5061H40.4135C40.4209 16.4966 40.4267 16.4859 40.4305 16.4744ZM5.29402 16.6752H5.29474C5.37403 16.7401 5.41933 16.829 5.43062 16.9419C5.43615 16.9938 5.44936 17.0307 5.47027 17.0525H5.46918C5.44876 17.0309 5.43591 16.994 5.43062 16.9419C5.42716 16.8905 5.41323 16.8403 5.38968 16.7944C5.36613 16.7485 5.33345 16.708 5.29366 16.6752H5.29402ZM3.41438 16.9048L3.41221 16.9131L3.41005 16.9167L3.41149 16.9131L3.41438 16.9048ZM3.45799 17.2028H3.46592C3.46159 17.2028 3.45739 17.2032 3.4533 17.2039L3.45799 17.2028ZM3.31922 17.2987L3.31994 17.3023V17.303L3.11162 17.6087C3.11112 17.6099 3.11064 17.6111 3.11017 17.6123C3.1104 17.6111 3.11064 17.6099 3.11089 17.6087L3.31922 17.3023V17.2987ZM29.787 17.4058H29.7877C29.7887 17.4072 29.7895 17.4086 29.7902 17.4101C29.7892 17.4086 29.7883 17.4071 29.787 17.4058ZM3.08927 17.6938C3.09706 17.7639 3.09006 17.8348 3.06872 17.9021C3.0471 17.9742 3.01106 18.0495 2.9606 18.1281L2.95771 18.1324L2.95951 18.1281C3.00671 18.0585 3.0435 17.9823 3.06872 17.9021C3.09035 17.8298 3.0972 17.7603 3.08927 17.6938ZM14.4341 17.7431C14.4833 17.7407 14.5326 17.7467 14.5798 17.7608C14.8768 17.848 15.0138 17.9879 14.991 18.1803C14.9888 18.2017 14.9925 18.2233 15.0017 18.2426C15.0109 18.2619 15.0253 18.2783 15.0433 18.2899C15.1918 18.3851 15.2524 18.498 15.2253 18.6287C15.2068 18.7181 15.2294 18.8952 15.2931 19.16C15.3202 19.2646 15.3257 19.3736 15.3093 19.4804C15.2928 19.5872 15.2546 19.6895 15.1972 19.781C15.0639 20.0056 14.8787 20.1951 14.6573 20.3335C14.6448 20.3413 14.6307 20.3465 14.6157 20.3488C14.6008 20.3511 14.5852 20.3505 14.57 20.3469L13.9465 20.2063C13.9155 20.1988 13.8884 20.1828 13.869 20.1605C13.5038 19.7309 13.3827 19.2395 13.5057 18.6864C13.5203 18.5995 13.5255 18.5113 13.5212 18.4233C13.5176 18.3074 13.5535 18.2213 13.6289 18.1648C13.8328 18.0085 14.0554 17.8781 14.2914 17.7767C14.3385 17.7569 14.3861 17.7458 14.4341 17.7431ZM39.4494 18.1162C39.3456 18.3356 39.2921 18.55 39.289 18.7595C39.288 18.8295 39.2927 18.8987 39.3031 18.9672C39.3072 18.9981 39.3022 19.0298 39.2886 19.0587C39.2382 19.1663 39.2132 19.2557 39.2137 19.3269C39.2132 19.2555 39.2383 19.1661 39.289 19.0587C39.3022 19.0297 39.3068 18.9979 39.3023 18.9672C39.2924 18.8984 39.2879 18.829 39.289 18.7595C39.2919 18.5505 39.3451 18.3363 39.4487 18.1169L39.4494 18.1162ZM28.3247 18.2121L28.3283 18.2131C28.326 18.2125 28.3235 18.2125 28.3211 18.2131C28.3226 18.2131 28.3237 18.2117 28.3247 18.2121ZM28.3168 18.2146L28.3143 18.216V18.2153C28.315 18.2146 28.3161 18.2153 28.3168 18.2146ZM20.2371 18.2795C20.2114 18.2913 20.1872 18.3062 20.165 18.3238C20.1233 18.3574 20.0919 18.402 20.0742 18.4525C20.0875 18.4137 20.1089 18.3782 20.137 18.3484C20.165 18.3186 20.1992 18.2951 20.2371 18.2795ZM26.9479 18.473C26.9516 18.4896 26.9573 18.5057 26.9648 18.5209C26.9726 18.5372 26.982 18.5525 26.993 18.5667C26.9771 18.5454 26.9642 18.522 26.9548 18.4972L26.9479 18.473ZM1.93193 19.0425H1.93265V19.0446L1.93193 19.0425ZM2.52952 19.1939L2.51691 19.2313L2.52952 19.2411L2.51691 19.2321L2.51258 19.2382L2.51619 19.231C2.52159 19.2158 2.52448 19.209 2.52952 19.1939ZM2.32191 19.7987V19.8041C2.32071 19.8247 2.23433 20.1239 2.06277 20.7015L2.05988 20.7116L2.06204 20.7019C2.23361 20.124 2.31999 19.8249 2.32119 19.8044L2.32191 19.7987ZM38.5451 19.9843C38.5235 19.9956 38.5088 20.032 38.5011 20.0935C38.4993 20.1072 38.5008 20.1218 38.5057 20.1364C38.5105 20.1511 38.5185 20.1654 38.5292 20.1786C38.5545 20.2091 38.5732 20.2391 38.5854 20.2687C38.598 20.2958 38.6044 20.3253 38.6041 20.3551C38.6039 20.385 38.597 20.4144 38.584 20.4413C38.5692 20.4717 38.5497 20.4995 38.5263 20.5238C38.5151 20.5355 38.5068 20.5491 38.5021 20.5633C38.4975 20.5776 38.4966 20.592 38.4997 20.6053C38.5042 20.6244 38.5114 20.6429 38.5209 20.6601H38.5202C38.5109 20.6428 38.504 20.6244 38.4997 20.6053C38.4965 20.5921 38.4972 20.5777 38.5018 20.5634C38.5063 20.5492 38.5145 20.5356 38.5256 20.5238C38.5493 20.4996 38.569 20.4717 38.584 20.4413C38.597 20.4144 38.6039 20.385 38.6041 20.3551C38.6044 20.3253 38.598 20.2958 38.5854 20.2687C38.571 20.236 38.5518 20.2056 38.5285 20.1786C38.5178 20.1654 38.5098 20.1511 38.505 20.1364C38.5001 20.1218 38.4986 20.1072 38.5004 20.0935C38.5083 20.032 38.5235 19.9956 38.5451 19.9843ZM45.3424 20.1443C45.3428 20.1443 45.3431 20.1443 45.3435 20.1443C45.3428 20.1448 45.342 20.1452 45.3413 20.1458C45.3416 20.1453 45.3422 20.1448 45.3424 20.1443ZM38.7913 20.4936C38.8037 20.5032 38.8164 20.5184 38.8291 20.5393C38.836 20.5502 38.8401 20.5638 38.8411 20.579C38.84 20.5638 38.8355 20.5501 38.8284 20.5393C38.8186 20.5222 38.8061 20.5067 38.7913 20.4936ZM38.9408 20.8918L38.9416 20.8926C38.999 21.0572 39.0473 21.2224 39.0864 21.3882C39.2055 21.8847 39.2438 22.3972 39.2 22.9059L39.1243 23.8063L39.1993 22.9052C39.2434 22.3968 39.2051 21.8845 39.0864 21.3882C39.0468 21.2221 38.9985 21.0567 38.9408 20.8918ZM39.6516 21.0151L40.3451 21.6819L39.6516 21.0158V21.0151ZM2.01591 21.1798L2.01663 21.1888C2.01697 21.191 2.01745 21.1932 2.01807 21.1953C2.01721 21.1932 2.01649 21.1911 2.01591 21.1888V21.1798ZM34.4564 21.6037C34.473 21.6047 34.4888 21.6122 34.5003 21.6246V21.6253C34.4889 21.6128 34.4731 21.6052 34.4565 21.6041C34.4398 21.6029 34.4236 21.6084 34.4113 21.6192C34.4235 21.6082 34.4397 21.6027 34.4564 21.6037ZM33.471 21.6408C33.5384 21.6401 33.6059 21.644 33.6728 21.6527C33.6277 21.6508 33.5828 21.6472 33.538 21.6419C33.4509 21.6391 33.3636 21.6441 33.2774 21.657C33.2351 21.6633 33.1933 21.6717 33.152 21.6823C33.1111 21.6933 33.0708 21.7063 33.0309 21.7212C33.1106 21.6913 33.1932 21.6698 33.2774 21.657C33.3415 21.6473 33.4061 21.6419 33.471 21.6408ZM19.1378 21.6978V21.7093L19.1385 21.7129L19.137 21.7093L19.1378 21.6978ZM18.7514 21.8254L18.7521 21.8297H18.7514C18.7507 21.8275 18.7517 21.8272 18.7514 21.8254ZM34.2257 21.8899C34.1776 21.9156 34.1341 21.949 34.0967 21.9886C34.1199 21.9713 34.1416 21.952 34.1615 21.931C34.1817 21.9158 34.2031 21.9021 34.2257 21.8899ZM41.3791 22.0766C41.6495 22.1809 41.8968 22.2869 42.1213 22.3948C42.1213 22.3951 42.1213 22.3953 42.1213 22.3956C41.8782 22.2794 41.6307 22.173 41.3791 22.0766ZM32.1201 22.0942C31.9907 22.1964 31.8555 22.2911 31.7153 22.3779C31.761 22.3461 31.8078 22.3158 31.8555 22.2871C32.0069 22.1813 32.0951 22.1171 32.1201 22.0942ZM33.0543 22.2993C33.0543 22.2992 33.0543 22.2994 33.0543 22.2993V22.2993ZM18.7568 22.4229C18.757 22.4229 18.7573 22.4229 18.7575 22.4229C18.7573 22.4234 18.757 22.4239 18.7568 22.4244C18.7568 22.4239 18.7568 22.4234 18.7568 22.4229ZM32.9671 22.5509C32.8952 22.663 32.836 22.7826 32.7905 22.9077C32.775 22.9495 32.761 22.9918 32.7487 23.0346C32.773 22.9492 32.8036 22.8657 32.8402 22.7848C32.8767 22.7038 32.9191 22.6256 32.9671 22.5509ZM18.7013 22.5531C18.7049 22.5949 18.714 22.6376 18.7287 22.6814C18.7369 22.7059 18.7377 22.7375 18.7308 22.7722L18.6843 22.9867C18.6819 22.9973 18.6823 23.0108 18.6854 23.0263C18.6822 23.0108 18.6814 22.9974 18.6836 22.9867L18.7301 22.7729C18.737 22.7382 18.7362 22.7066 18.7279 22.6821C18.7138 22.6403 18.7049 22.597 18.7013 22.5531ZM32.8031 22.6046H32.8038L32.7995 22.6097L32.8031 22.6046ZM28.5428 22.8003H28.5446L28.5406 22.8018L28.5428 22.8003ZM34.5951 22.8447C34.5954 22.8451 34.5956 22.8456 34.5959 22.8461H34.5951C34.5951 22.8456 34.5951 22.8451 34.5951 22.8447ZM31.5232 23.0151C31.5456 23.0146 31.5676 23.0214 31.5859 23.0346C31.5675 23.0216 31.5455 23.0151 31.5232 23.0159H31.5084L31.5232 23.0151ZM33.7625 23.3284C33.7628 23.3288 33.763 23.3293 33.7633 23.3298C33.7637 23.33 33.7642 23.3303 33.7647 23.3305C33.764 23.3305 33.7633 23.3305 33.7625 23.3305C33.7625 23.3298 33.7625 23.3291 33.7625 23.3284ZM24.3935 23.4282C24.3839 23.4457 24.3637 23.4591 24.333 23.4682C24.3635 23.4586 24.3837 23.445 24.3935 23.4282ZM24.2541 23.4974C24.2543 23.4974 24.2545 23.4974 24.2548 23.4974C24.2524 23.5023 24.2513 23.5077 24.2516 23.5132C24.2518 23.5187 24.2534 23.524 24.2562 23.5287L24.2555 23.528C24.2528 23.5233 24.2512 23.5181 24.2509 23.5127C24.2507 23.5072 24.2518 23.5022 24.2541 23.4974ZM27.9632 23.505C27.9642 23.5052 27.9652 23.5054 27.9661 23.5057C27.9652 23.5057 27.9642 23.5057 27.9632 23.5057H27.9499L27.9632 23.505ZM12.7001 23.5255C13.1759 23.5382 13.5999 23.6351 13.9721 23.816C14.0519 23.7814 14.1176 23.797 14.1692 23.8629C14.1758 23.8709 14.1856 23.8786 14.1983 23.8854C14.211 23.8922 14.2262 23.898 14.2431 23.9025L14.3649 23.9339C14.3763 23.9367 14.3858 23.9454 14.3917 23.9585C14.3976 23.9715 14.3993 23.9878 14.3967 24.0042C14.363 24.1945 14.4317 24.3312 14.6028 24.4143C14.7259 24.5201 14.8508 24.6222 14.9777 24.7207C15.0207 24.7531 15.0447 24.7846 15.0498 24.8151C15.0528 24.8311 15.0521 24.8476 15.0479 24.8633C15.0437 24.8791 15.0359 24.8936 15.0253 24.9059C15.0176 24.9161 15.0136 24.9283 15.0137 24.9404C15.0138 24.9525 15.0182 24.9636 15.026 24.9719C15.0957 25.044 15.1309 25.1316 15.1316 25.2347C15.132 25.2674 15.1407 25.2979 15.1568 25.3226C15.274 25.4983 15.3472 25.6997 15.3702 25.9097C15.3993 25.9758 15.437 26.0361 15.4834 26.0907C15.49 26.0988 15.4958 26.1104 15.5005 26.125C15.5052 26.1397 15.5087 26.1569 15.5108 26.1757L15.5868 26.7957C15.595 26.8594 15.5929 26.9075 15.5807 26.9402C15.5029 27.1609 15.4197 27.3796 15.3313 27.5962L15.1864 27.9919C15.0191 28.4509 14.7202 28.8251 14.2896 29.1147C14.2478 29.1428 14.2117 29.1786 14.1833 29.2203C14.0951 29.3462 13.9865 29.4106 13.8575 29.4135C13.8264 29.4132 13.7957 29.4196 13.7674 29.4322C13.3788 29.616 13.0132 29.6953 12.6706 29.6701C12.5574 29.6619 12.4879 29.7025 12.4622 29.7919C12.4609 29.7972 12.4584 29.8021 12.455 29.8062C12.4516 29.8104 12.4473 29.8136 12.4425 29.8157C12.4377 29.8178 12.4326 29.8187 12.4275 29.8182C12.4225 29.8178 12.4177 29.8161 12.4136 29.8132C12.2401 29.7041 12.0845 29.6647 11.9468 29.695C11.7954 29.7274 11.6709 29.7408 11.5731 29.735C11.5003 29.7305 11.4275 29.7268 11.3546 29.7238C11.1285 29.7263 10.9069 29.66 10.7192 29.5339C10.6199 29.4684 10.5222 29.4005 10.4262 29.3302C10.3293 29.2527 10.2547 29.151 10.2099 29.0354C10.2044 29.022 10.1955 29.0103 10.1841 29.0011C10.1727 28.992 10.1592 28.9858 10.1447 28.9831L9.97528 28.9521C9.9466 28.9467 9.91968 28.9283 9.90031 28.9009L9.373 28.1404C9.35524 28.1152 9.3457 28.0852 9.3457 28.0546C9.3457 28.0239 9.35524 27.9942 9.373 27.9696C9.41265 27.9148 9.4094 27.8708 9.36327 27.8377C9.19483 27.8874 9.12767 27.8386 9.16179 27.6914C9.16824 27.6611 9.16737 27.6297 9.15926 27.5998C9.14641 27.5552 9.14298 27.5083 9.14918 27.4623C9.15539 27.4163 9.17109 27.372 9.19531 27.3324L9.36399 26.4882C9.34332 26.4048 9.34156 26.3178 9.35883 26.2336C9.37611 26.1495 9.41198 26.0702 9.46383 26.0017L9.55682 25.6928C9.75097 25.0092 10.1299 24.4532 10.6936 24.0251C10.7549 23.9239 10.842 23.853 10.9549 23.8124C11.2558 23.6766 11.673 23.5862 12.2067 23.541C12.3771 23.5266 12.5415 23.5214 12.7001 23.5255ZM32.0808 23.5432C32.0363 23.5879 31.9871 23.6282 31.933 23.6643V23.6635C31.9871 23.6277 32.0363 23.5876 32.0808 23.5432ZM32.4354 23.5471L32.8395 23.8986C32.8502 23.9081 32.863 23.9152 32.8772 23.9196C32.863 23.9154 32.8502 23.9087 32.8395 23.8993L32.4354 23.5471ZM34.1583 23.683L34.1619 23.6845C34.1619 23.6847 34.1619 23.6849 34.1619 23.6852L34.1583 23.683ZM30.2462 23.6845C30.2101 23.701 30.1741 23.7183 30.1413 23.7385C30.1773 23.7229 30.2126 23.7048 30.2462 23.6845ZM33.1466 23.7302C33.1463 23.7309 33.1461 23.7317 33.1458 23.7324C33.1451 23.7336 33.1444 23.7348 33.1437 23.736C33.1442 23.7348 33.1447 23.7336 33.1451 23.7324C33.1456 23.7317 33.1461 23.731 33.1466 23.7302ZM25.7527 23.7436C25.753 23.7436 25.7532 23.7436 25.7534 23.7436C25.754 23.7447 25.7545 23.7459 25.7549 23.7472C25.7542 23.7459 25.7535 23.7447 25.7527 23.7436ZM31.4104 23.7436C31.3747 23.78 31.342 23.8193 31.3127 23.8611C31.256 23.9413 31.214 24.031 31.1887 24.126C31.1761 24.1742 31.1676 24.2234 31.1635 24.273C31.1754 24.1248 31.2269 23.9825 31.3127 23.8611C31.3415 23.8205 31.3741 23.781 31.4104 23.7436ZM25.3043 23.7663C25.3126 23.7671 25.3207 23.769 25.3285 23.7717C25.3139 23.7648 25.2974 23.763 25.2816 23.7666C25.2891 23.7652 25.2968 23.7653 25.3043 23.7663ZM25.7578 23.7836C25.7576 23.785 25.7574 23.7865 25.757 23.7879H25.7563C25.7569 23.7865 25.7574 23.785 25.7578 23.7836ZM32.4391 23.8162C32.4259 23.8231 32.4147 23.8334 32.4066 23.8459C32.3598 23.918 32.3262 23.9978 32.3075 24.0816C32.3009 24.1102 32.2961 24.1391 32.2931 24.1682C32.2997 24.1106 32.3123 24.0539 32.3313 23.9991C32.3503 23.9451 32.3757 23.8936 32.407 23.8456C32.415 23.8331 32.4259 23.8231 32.4391 23.8162ZM32.6467 23.8351C32.6742 23.8435 32.6995 23.8578 32.7208 23.8771C32.7421 23.8965 32.7589 23.9203 32.7699 23.9468C32.7552 23.9117 32.7305 23.8816 32.6989 23.8603C32.6822 23.8505 32.6647 23.8421 32.6467 23.8351ZM26.3701 23.8549C26.3932 23.8672 26.416 23.8766 26.4386 23.8831C26.482 23.896 26.5281 23.897 26.572 23.8859C26.5495 23.8859 26.5272 23.8884 26.5053 23.8935C26.4827 23.8929 26.4603 23.8896 26.4386 23.8831C26.4149 23.8762 26.392 23.8665 26.3701 23.8549ZM29.2446 23.9011L29.2438 23.9036C29.1693 23.9931 29.101 24.0876 29.0395 24.1865C29.07 24.1374 29.1022 24.0893 29.1361 24.0424C29.1699 23.9948 29.2059 23.9485 29.2438 23.9036H29.2431L29.2446 23.9011ZM25.1425 23.9054C25.1226 23.9125 25.1033 23.9213 25.0848 23.9317C25.0694 23.9405 25.0545 23.9503 25.0405 23.9613C25.0282 23.9712 25.0173 23.9827 25.0081 23.9955C24.9911 24.0194 24.9818 24.048 24.9814 24.0773C24.9815 24.0547 24.9868 24.0324 24.9971 24.0122C25.0074 23.9921 25.0222 23.9746 25.0405 23.9613C25.0545 23.9503 25.0694 23.9405 25.0848 23.9317C25.1019 23.9223 25.1211 23.9136 25.1425 23.9054ZM31.9034 23.9659C31.9587 23.9651 32.0133 23.9784 32.062 24.0045C32.0355 23.9977 32.0099 23.9879 31.9856 23.9753C31.9587 23.9691 31.9311 23.9659 31.9034 23.9659ZM31.9034 23.9659C31.8744 23.9659 31.8441 23.9696 31.8126 23.9768C31.7643 23.9903 31.717 24.0071 31.671 24.0272C31.633 24.0437 31.5967 24.064 31.5628 24.0878C31.5931 24.0661 31.6292 24.046 31.671 24.0272C31.7125 24.0085 31.7598 23.9917 31.8126 23.9768C31.8424 23.97 31.8729 23.9663 31.9034 23.9659ZM24.9129 23.9912C24.8965 24.005 24.877 24.0145 24.856 24.0189C24.829 24.0243 24.8014 24.0253 24.7742 24.0218L24.7244 24.016C24.7432 24.0182 24.755 24.0186 24.7749 24.0211C24.8018 24.0248 24.8292 24.024 24.856 24.0189C24.8767 24.0141 24.8962 24.0044 24.9129 23.9912ZM28.0793 23.9941C28.1046 24.0249 28.1336 24.0526 28.1654 24.0766C28.1504 24.0659 28.1362 24.0541 28.1229 24.0413C28.1078 24.0263 28.0934 24.0107 28.0796 23.9944L28.0793 23.9941ZM23.9127 23.9955C23.9106 23.9977 23.9077 23.9984 23.9055 24.0005V23.9998L23.9127 23.9955ZM26.2764 23.9969C26.2828 23.9963 26.2893 23.9968 26.2955 23.9984C26.2826 23.9955 26.2691 23.9973 26.2577 24.0036C26.2462 24.0098 26.2376 24.0201 26.2335 24.0323C26.2365 24.0229 26.2422 24.0147 26.2498 24.0084C26.2575 24.0022 26.2665 23.9982 26.2764 23.9969ZM33.5308 24.0005L33.533 24.0027L33.5279 24.0013L33.5308 24.0005ZM24.1452 24.0013C24.2069 24.0012 24.2672 24.0198 24.3182 24.0546C24.2571 24.0114 24.1819 23.993 24.1077 24.0031C24.0825 24.0064 24.0564 24.0124 24.0295 24.0211C24.0668 24.0088 24.106 24.0021 24.1452 24.0013ZM28.5111 24.0049H28.5118L28.5104 24.007L28.5111 24.0049ZM27.8537 24.0676C27.8886 24.0738 27.9213 24.0891 27.9485 24.1119C27.9622 24.1235 27.9745 24.137 27.9856 24.1527C27.9972 24.1695 28.0073 24.1874 28.0159 24.206C28.0252 24.2262 28.0333 24.2483 28.04 24.2723C28.0336 24.2496 28.0256 24.2275 28.0159 24.206C28.0073 24.1874 27.9972 24.1695 27.9856 24.1527C27.9647 24.1229 27.9367 24.0988 27.9041 24.0827C27.888 24.0755 27.871 24.0707 27.8537 24.0676ZM28.4469 24.0647C28.4077 24.0901 28.3704 24.1186 28.3356 24.1498C28.2314 24.2429 28.1524 24.3608 28.106 24.4925H28.1056C28.1222 24.4471 28.1419 24.4042 28.1647 24.3639C28.2322 24.242 28.3292 24.1391 28.4469 24.0647ZM24.6109 24.0953C24.6182 24.0932 24.6257 24.0932 24.6325 24.0953C24.6219 24.0919 24.6101 24.0937 24.5993 24.1005C24.5886 24.1072 24.5798 24.1182 24.5748 24.1314C24.5782 24.1226 24.5833 24.1147 24.5896 24.1083C24.5959 24.102 24.6032 24.0976 24.6109 24.0953ZM25.0001 24.2521C25.0031 24.2697 25.0009 24.2877 24.994 24.304C25.001 24.2876 25.0031 24.2694 25.0001 24.2518V24.2521ZM26.7926 24.2611C26.7935 24.2616 26.7945 24.262 26.7954 24.2626C26.7945 24.2623 26.7935 24.262 26.7926 24.2619H26.7875L26.7926 24.2611ZM18.7117 24.4763C18.7231 24.4885 18.7369 24.4983 18.7521 24.5052H18.7514C18.7363 24.4982 18.723 24.4885 18.7117 24.4763ZM25.4143 24.4486L25.3876 24.4688C25.3963 24.4615 25.4051 24.4551 25.4143 24.4486ZM24.6639 24.6955C24.6494 24.7136 24.6395 24.735 24.635 24.7578C24.6306 24.7808 24.6318 24.8046 24.6386 24.827C24.6465 24.8541 24.6588 24.8797 24.675 24.9027C24.695 24.9335 24.7149 24.9599 24.7349 24.982C24.7129 24.957 24.6926 24.9305 24.6743 24.9027C24.6582 24.8797 24.6463 24.8541 24.6386 24.827C24.6318 24.8046 24.6306 24.7808 24.635 24.7578C24.6395 24.735 24.6494 24.7136 24.6639 24.6955ZM25.8832 24.703L25.8803 24.7149C25.869 24.7645 25.8435 24.8094 25.8071 24.844H25.8064C25.8428 24.8094 25.8683 24.7645 25.8796 24.7149L25.8832 24.703ZM30.9353 24.8025C30.9281 24.8252 30.9254 24.8491 30.9274 24.8729C30.9295 24.8967 30.9362 24.9198 30.9472 24.9409C30.9256 24.8979 30.9213 24.8486 30.9353 24.8025ZM42.3051 24.7917C42.3048 24.8313 42.2909 25.077 42.2633 25.5288L42.2629 25.5295C42.2908 25.0778 42.3048 24.8318 42.3051 24.7917ZM19.0293 24.8476C19.0297 24.8482 19.0302 24.8488 19.0307 24.8494C19.0305 24.8494 19.0302 24.8494 19.03 24.8494C19.0297 24.8488 19.0295 24.8482 19.0293 24.8476ZM29.3231 24.8713C29.2652 25.0413 29.1946 25.2068 29.1119 25.3662C29.1699 25.1962 29.2405 25.0308 29.3231 24.8713ZM28.6419 24.9117C28.5301 25.0645 28.4357 25.2294 28.3608 25.4033C28.3259 25.5977 28.2885 25.6058 28.2483 25.4275C28.2678 25.4314 28.2878 25.4313 28.3073 25.4272C28.3267 25.423 28.345 25.4149 28.3611 25.4033C28.4365 25.2296 28.5307 25.065 28.6419 24.9117ZM24.6404 25.0339C24.6231 25.0297 24.605 25.0301 24.5879 25.0352C24.5708 25.0403 24.5553 25.0498 24.5431 25.0627C24.4184 25.1948 24.3014 25.3341 24.1928 25.4798C24.3015 25.3342 24.4186 25.1951 24.5435 25.0631C24.5557 25.0501 24.5712 25.0406 24.5882 25.0356C24.6053 25.0305 24.6235 25.03 24.6408 25.0343L24.6404 25.0339ZM26.4237 25.0882C26.4231 25.1033 26.4255 25.1189 26.4307 25.1341L26.4898 25.3028V25.3049L26.4891 25.3028L26.4307 25.1341C26.4255 25.1189 26.4231 25.1033 26.4237 25.0882ZM24.8235 25.1417C24.8281 25.1534 24.8305 25.1659 24.8307 25.1784C24.8305 25.193 24.8281 25.2075 24.8235 25.2213C24.8281 25.2074 24.8306 25.1928 24.8307 25.1781C24.8304 25.1657 24.828 25.1532 24.8235 25.1417ZM27.769 25.1961L27.7394 25.2422C27.75 25.2264 27.7598 25.2112 27.769 25.1961ZM27.0106 25.1997C26.9408 25.2493 26.8809 25.3115 26.834 25.3832C26.8179 25.4086 26.7954 25.4912 26.7666 25.6308C26.7952 25.4914 26.8174 25.4089 26.8333 25.3832C26.8803 25.3113 26.9405 25.2493 27.0106 25.1997ZM24.8862 25.2087H24.887C24.8773 25.2175 24.8705 25.2293 24.8675 25.2428C24.8704 25.2293 24.8767 25.2176 24.8862 25.2087ZM26.7713 25.2249C26.7176 25.3816 26.6462 25.5315 26.5583 25.6719C26.5315 25.7145 26.4984 25.7529 26.4602 25.7858C26.4791 25.7698 26.4967 25.7523 26.5129 25.7335C26.5294 25.7145 26.5446 25.694 26.5583 25.6719C26.6454 25.5311 26.7168 25.3812 26.7713 25.2249ZM26.3067 25.2819C26.3366 25.2824 26.3663 25.2877 26.3946 25.2974C26.3751 25.2912 26.3551 25.2868 26.3348 25.284C26.3169 25.2818 26.2987 25.2818 26.2807 25.284C26.2468 25.2891 26.2151 25.3037 26.1892 25.3262C26.2218 25.2978 26.2635 25.2821 26.3067 25.2819ZM25.3804 25.519C25.373 25.5498 25.3562 25.577 25.3325 25.5965H25.3317C25.3557 25.5771 25.3728 25.5499 25.3804 25.519ZM24.7983 25.5486C24.744 25.5963 24.6961 25.651 24.6559 25.7111C24.6796 25.6847 24.7013 25.6565 24.7208 25.6268C24.7446 25.5994 24.7704 25.5733 24.7983 25.5486ZM18.9561 25.6888C18.9434 25.7333 18.9265 25.7616 18.9056 25.7739C18.9265 25.7623 18.9434 25.734 18.9561 25.6888ZM23.6038 25.8744C23.5536 25.892 23.5012 25.9029 23.4481 25.9069C23.4469 25.9073 23.4457 25.9078 23.4445 25.9083C23.4457 25.9075 23.4469 25.9068 23.4481 25.9061C23.5044 25.9018 23.5565 25.8912 23.6038 25.8744ZM25.1631 25.7519H25.1638L25.149 25.7681L25.1631 25.7519ZM19.0657 25.838L19.1724 25.9137C19.1988 25.9425 19.2228 25.9731 19.2444 26.0053C19.2222 25.9735 19.1979 25.9433 19.1716 25.9148C19.137 25.8884 19.1014 25.8628 19.0657 25.838ZM26.6073 25.8568C26.5811 25.8724 26.5564 25.8904 26.5334 25.9105C26.5514 25.8939 26.5761 25.876 26.6073 25.8568ZM30.6391 25.9851L30.6333 25.988C30.6297 25.989 30.6282 25.9887 30.625 25.9901L30.6333 25.9872L30.6391 25.9851ZM27.3368 25.997L27.3163 26.0301C27.3235 26.0193 27.3303 26.0083 27.3368 25.997ZM28.1316 26.2525L28.1485 26.4399V26.4475L28.1478 26.4399L28.1316 26.2525ZM26.5244 26.1992C26.4816 26.2217 26.44 26.2464 26.3997 26.2731C26.4381 26.2471 26.4799 26.2225 26.5244 26.1992ZM24.1618 26.2392C24.1367 26.2859 24.1057 26.3291 24.0695 26.3679C24.0851 26.3468 24.1018 26.3266 24.1196 26.3073C24.135 26.2859 24.149 26.2634 24.1618 26.2392ZM25.7253 26.277L25.7127 26.2968C25.7125 26.2968 25.7122 26.2968 25.712 26.2968L25.7253 26.277ZM24.7785 26.2904L24.7695 26.3084C24.7491 26.3422 24.7265 26.3746 24.7017 26.4053L24.6981 26.4107C24.6995 26.4089 24.6995 26.4071 24.701 26.4053C24.7382 26.3558 24.7608 26.3234 24.7687 26.308L24.7785 26.2904ZM26.9663 26.6367C26.9408 26.7304 26.9144 26.8234 26.887 26.9157C26.8296 27.1063 26.8971 27.2405 27.0896 27.3183C27.104 27.3242 27.117 27.333 27.1276 27.3442C27.1383 27.3554 27.1465 27.3687 27.1515 27.3832C27.2212 27.574 27.1897 27.6149 27.0571 27.5061C26.8841 27.365 26.83 27.4035 26.8949 27.6214C26.9706 27.8785 27.0052 28.1416 26.9987 28.4108C26.998 28.4407 27.0074 28.471 27.0254 28.4973C27.1309 28.6513 27.1675 28.8255 27.1353 29.0199C27.1257 29.08 27.1555 29.2313 27.2247 29.474C27.2345 29.5082 27.253 29.5354 27.2763 29.5497C27.325 29.58 27.3611 29.5667 27.3844 29.5097C27.3967 29.473 27.3989 29.4337 27.3909 29.3958C27.342 29.0961 27.3291 28.7917 27.3523 28.489C27.31 28.0538 27.2729 27.5636 27.2409 27.0184C27.2384 26.9707 27.2248 26.9242 27.2013 26.8825C27.1455 26.7823 27.1329 26.7073 27.1634 26.6573C27.4008 26.6371 27.6104 26.7314 27.792 26.9402C27.8605 27.0181 27.9558 27.0409 28.0778 27.0087C28.085 27.0068 28.0924 27.0061 28.0995 27.0066C28.1067 27.0072 28.1136 27.0089 28.1197 27.0117C28.1258 27.0145 28.131 27.0184 28.1351 27.023C28.1392 27.0277 28.142 27.0331 28.1434 27.039C28.1488 27.0627 28.1493 27.0872 28.1449 27.1111C28.1374 27.1473 28.1382 27.1799 28.1471 27.2037C28.3768 27.846 28.4732 28.5027 28.4365 29.1738C28.4043 29.7663 28.3859 30.0823 28.3813 30.1217C28.3435 30.4477 28.2238 30.7587 28.0335 31.026C27.9275 31.175 27.7846 31.2818 27.6046 31.3465C27.4411 31.4057 27.2644 31.4188 27.0939 31.3843C26.8649 31.3401 26.683 31.2291 26.5482 31.0513C26.4372 30.9054 26.331 30.6936 26.2296 30.4158C26.1451 30.1871 26.107 29.9439 26.1175 29.7004C26.0526 29.3693 25.9889 29.0377 25.9264 28.7056L25.969 28.3974C25.9707 28.385 25.969 28.3713 25.964 28.3573C25.959 28.3432 25.9509 28.3291 25.9401 28.316C25.8753 28.2364 25.8719 28.1508 25.93 28.059C26.0293 28.0167 26.0634 27.9345 26.0324 27.8125C26.0005 27.6856 25.9844 27.5554 25.9845 27.4246C25.9845 27.2901 26.0269 27.1725 26.1117 27.0718C26.3277 26.8142 26.6126 26.6692 26.9663 26.6367ZM16.1094 26.929L16.1008 26.9748C16.1039 26.9597 16.1068 26.9444 16.1094 26.929ZM29.8061 27.0819C29.7406 27.0827 29.6755 27.0909 29.6118 27.1064C29.385 27.1616 29.1543 27.1966 28.9198 27.2113C28.7312 27.2531 28.6836 27.3429 28.7771 27.4809C28.7852 27.4927 28.7965 27.5024 28.81 27.5091C28.8235 27.5157 28.8388 27.5192 28.8546 27.5191C29.2023 27.5203 29.5455 27.4819 29.8843 27.4041C30.0412 27.4248 30.1717 27.3786 30.2757 27.2657C30.3437 27.1917 30.3275 27.1475 30.2271 27.133L29.9171 27.0887C29.8804 27.0835 29.8432 27.0814 29.8061 27.0819ZM28.5897 28.2208C28.5909 28.221 28.5921 28.2213 28.5933 28.2215C28.591 28.2219 28.5889 28.2224 28.5868 28.223C28.5877 28.2222 28.5887 28.2215 28.5897 28.2208ZM41.7882 29.0599C41.7219 29.3392 41.6549 29.6153 41.5828 29.8687H41.5821C41.6541 29.6153 41.7219 29.3392 41.7882 29.0599ZM25.8162 29.159C25.8508 29.1581 25.8923 29.1748 25.9409 29.2091C25.9467 29.2131 25.9517 29.2183 25.9554 29.2244C25.9591 29.2304 25.9615 29.2372 25.9624 29.2442C25.9633 29.2513 25.9628 29.2584 25.9607 29.2652C25.9587 29.2721 25.9552 29.2783 25.9506 29.2837C25.8509 29.4063 25.7772 29.4135 25.7297 29.3054C25.7231 29.2905 25.72 29.2746 25.7205 29.2589C25.721 29.2433 25.7251 29.2283 25.7325 29.2152C25.7537 29.1787 25.7816 29.16 25.8162 29.159ZM36.5584 29.7245C36.4488 29.8538 36.337 29.9782 36.2228 30.0976H36.2221C36.3365 29.9782 36.4486 29.8538 36.5584 29.7245ZM11.9227 30.1765L11.932 30.1772C11.9288 30.1765 11.9259 30.1776 11.9227 30.1772L11.8982 30.178L11.9227 30.1765ZM35.6908 30.617C35.3517 30.9297 34.987 31.2137 34.6005 31.4658C34.3989 31.5979 34.1829 31.7289 33.9525 31.8586V31.8579C34.1727 31.7347 34.3888 31.604 34.6002 31.4661C34.9866 31.2139 35.3517 30.9299 35.6908 30.617ZM41.1229 31.3295C41.138 31.3896 41.1768 31.4408 41.2393 31.4831V31.4838C41.1826 31.4487 41.141 31.3937 41.1229 31.3295ZM40.9394 31.6878H40.9401C40.9065 31.7308 40.8804 31.781 40.8619 31.8385C40.8434 31.8961 40.8326 31.9609 40.8295 32.0327C40.8295 32.0342 40.8273 32.0374 40.8273 32.0388L40.8288 32.0327C40.8324 31.9606 40.8434 31.8961 40.8619 31.8385C40.8802 31.781 40.906 31.7306 40.9394 31.6878ZM20.3744 31.8904C20.5781 31.9849 20.7698 32.1035 20.9453 32.2436V32.2447C20.7701 32.1039 20.5783 31.9849 20.3744 31.8904ZM35.0752 32.6173C34.824 32.8155 34.5573 32.9931 34.2776 33.1486V33.1479C34.5462 33.0001 34.8121 32.823 35.0752 32.6173ZM20.3106 31.9639C20.3649 31.9665 20.3577 32.0228 20.289 32.1326C19.9369 32.6886 19.744 33.033 19.7101 33.1659C19.655 33.3968 19.521 33.6013 19.3313 33.744C19.2936 33.7756 19.2467 33.7941 19.1976 33.7967C19.0902 33.8012 19.0702 33.7377 19.1378 33.606C19.2531 33.4786 19.3349 33.3329 19.3832 33.1688C19.4928 32.8012 19.632 32.4447 19.8009 32.0994C19.825 31.9896 19.8998 31.9514 20.0255 31.9848C20.0942 32.0037 20.1672 32.0017 20.2353 31.979C20.2592 31.9694 20.2848 31.9645 20.3106 31.9639ZM40.7498 32.2854C40.6979 32.4007 40.6215 32.5424 40.517 32.7147C40.5088 32.7279 40.5044 32.7429 40.5044 32.7576C40.5044 32.7723 40.5088 32.7861 40.517 32.7972C40.5691 32.8669 40.644 32.8837 40.7415 32.8477C40.6437 32.8837 40.5687 32.8671 40.5163 32.7979C40.508 32.7868 40.5036 32.7729 40.5036 32.7582C40.5036 32.7434 40.508 32.7283 40.5163 32.715C40.6203 32.5434 40.6982 32.4002 40.7498 32.2854ZM16.161 32.7064C16.2518 32.7126 16.2638 32.7469 16.197 32.8091C16.0162 32.9775 15.8901 33.1962 15.8348 33.437C15.8244 33.4802 15.7776 33.5316 15.6942 33.5912C15.6688 33.6086 15.6511 33.6348 15.6448 33.6644C15.5833 33.9471 15.4415 34.206 15.2365 34.4101C15.2255 34.4211 15.212 34.4288 15.1976 34.4324C15.1833 34.436 15.1686 34.4352 15.1554 34.4303C15.0357 34.3866 15.001 34.2927 15.0512 34.1488C15.0995 34.0087 15.1802 33.9233 15.2934 33.8925C15.2992 33.8908 15.3046 33.888 15.3092 33.8841C15.3138 33.8803 15.3174 33.8757 15.3198 33.8705C15.3222 33.8654 15.3232 33.86 15.3229 33.8547C15.3226 33.8493 15.3209 33.8443 15.3179 33.8399L15.2808 33.7812C15.2714 33.7673 15.2647 33.7527 15.2612 33.7383C15.2577 33.7238 15.2573 33.7099 15.2603 33.6975C15.303 33.5106 15.372 33.3334 15.4671 33.1659C15.5856 32.8348 15.8171 32.6816 16.161 32.7064ZM28.3709 33.1237C28.5542 33.1526 28.7377 33.1808 28.9213 33.2084C28.9554 33.2137 29.0631 33.2158 29.2446 33.2146C29.0631 33.216 28.9554 33.2142 28.9213 33.2092C28.7377 33.1811 28.5542 33.1526 28.3709 33.1237ZM40.1995 33.2942C40.1643 33.3764 40.1412 33.4632 40.1306 33.5519L40.1292 33.5548L40.1299 33.5519C40.1426 33.4551 40.1658 33.3692 40.1995 33.2942ZM2.50213 33.9989L2.67982 34.1683V34.1693L2.50249 33.9996C2.50249 33.9993 2.50213 33.9991 2.50213 33.9989ZM10.7621 34.0165C10.8258 34.0201 10.8371 34.06 10.796 34.1362C10.6852 34.2845 10.586 34.4412 10.4993 34.6047C10.4157 34.7673 10.3167 34.9216 10.2038 35.0654C10.0012 35.3145 9.80885 35.5717 9.6271 35.8363C9.58073 35.8793 9.5472 35.8807 9.52654 35.8403C9.52096 35.8285 9.51865 35.8142 9.51977 35.7986C9.5209 35.783 9.52544 35.7664 9.53303 35.7502C9.79975 35.1706 10.1804 34.6047 10.6749 34.0526C10.6856 34.0405 10.6991 34.031 10.7141 34.0248C10.7292 34.0185 10.7456 34.0157 10.7621 34.0165ZM31.5329 34.1665C30.9182 34.2987 30.2945 34.3849 29.667 34.4242L29.8068 34.489C29.8212 34.4959 29.8335 34.505 29.8421 34.5153C29.8506 34.5256 29.855 34.5365 29.8548 34.5467C29.8526 34.6734 29.808 34.8098 29.721 34.9562C29.6396 35.0943 29.5802 35.2933 29.543 35.553H29.5423L29.455 35.8846C29.451 35.899 29.4435 35.9119 29.4333 35.9218C29.4231 35.9317 29.4106 35.9382 29.3974 35.9405L29.0697 35.9967C29.0546 35.9992 29.0393 35.9979 29.0257 35.9927C29.0121 35.9876 29.0008 35.979 28.993 35.9679C28.9209 35.8636 28.911 35.7495 28.9634 35.6255H28.9641C28.9798 35.5947 29.0036 35.5688 29.0328 35.5505C29.0621 35.5321 29.0958 35.522 29.1303 35.5213C29.1352 35.5212 29.14 35.5198 29.1442 35.5174C29.1484 35.5149 29.152 35.5114 29.1544 35.5071C29.1569 35.5029 29.1583 35.4981 29.1584 35.4932C29.1586 35.4883 29.1574 35.4835 29.1552 35.4791C29.1078 35.3775 29.1237 35.2635 29.2027 35.1371C29.3114 34.963 29.3888 34.7712 29.4316 34.5705C29.4471 34.5264 29.4755 34.4881 29.5133 34.4605C29.551 34.433 29.5962 34.4176 29.6428 34.4162L29.667 34.4242C30.2946 34.3854 30.9183 34.2993 31.5329 34.1665ZM34.7307 34.444C34.7511 34.443 34.78 34.4557 34.8175 34.4818C34.8477 34.5028 34.8785 34.5139 34.904 34.5128L35.0842 34.5049C35.0902 34.5046 35.0962 34.5055 35.1018 34.5076C35.1073 34.5097 35.1123 34.5128 35.1164 34.5169C35.1205 34.5209 35.1235 34.5257 35.1253 34.5309C35.1271 34.5362 35.1276 34.5417 35.1268 34.5471C35.0999 34.6925 35.0135 34.7955 34.8676 34.8563C34.8584 34.8602 34.8485 34.8621 34.8386 34.862C34.8286 34.8619 34.8187 34.8598 34.8096 34.8557C34.8005 34.8517 34.7923 34.8458 34.7856 34.8385C34.7788 34.8311 34.7736 34.8225 34.7703 34.8131C34.6814 34.5697 34.6682 34.4469 34.7307 34.444ZM24.3096 34.7514L24.333 34.7626L24.3406 34.7684L24.333 34.7633L24.3096 34.7514ZM34.6186 34.8329C34.6258 34.8276 34.6359 34.8279 34.6488 34.8336C34.6577 34.8372 34.6654 34.8448 34.6708 34.8555C34.6762 34.8662 34.6791 34.8794 34.6791 34.8935C34.6791 35.0266 34.7717 35.0809 34.957 35.0564C34.9669 35.0551 34.9769 35.0562 34.9864 35.0594C34.9958 35.0626 35.0043 35.0678 35.0113 35.0748C35.0183 35.0818 35.0236 35.0903 35.0268 35.0996C35.0299 35.1089 35.0308 35.1187 35.0295 35.1285C34.9701 35.5235 34.8809 35.9135 34.7627 36.2952C34.7087 36.4701 34.6169 36.4575 34.4874 36.2573C34.4445 36.191 34.4296 36.1107 34.4459 36.0339C34.4647 35.9449 34.487 35.8166 34.513 35.6489C34.4767 35.4041 34.504 35.1542 34.5923 34.923C34.5985 34.9046 34.6026 34.8855 34.6045 34.8661C34.6062 34.8495 34.6109 34.8384 34.6186 34.8329ZM24.9363 35.052L24.9587 35.0596C24.9515 35.0567 24.9436 35.0553 24.9363 35.052ZM27.9827 35.468C28.0512 35.4727 28.0764 35.4752 28.1485 35.4799L28.182 35.4871C28.1708 35.4846 28.1589 35.4835 28.1478 35.4806C28.0458 35.4734 28.0775 35.4745 27.9827 35.468ZM28.625 35.5667L28.6545 35.5707V35.5714L28.625 35.5667ZM38.8435 35.6799C38.8138 35.729 38.7784 35.7744 38.7379 35.8151C38.663 35.8887 38.5981 35.972 38.5451 36.0627H38.5444C38.5869 35.9858 38.6512 35.9033 38.7372 35.8151C38.7779 35.7744 38.8136 35.729 38.8435 35.6799ZM21.7494 35.8489C21.8227 35.8401 21.9069 35.8512 22.0021 35.8825C22.0079 35.8844 22.0133 35.8876 22.0178 35.8918C22.0223 35.8959 22.0258 35.9011 22.0281 35.9067C22.0305 35.9124 22.0315 35.9185 22.0313 35.9247C22.031 35.9308 22.0294 35.9368 22.0266 35.9423C21.8494 36.2754 21.6891 36.6173 21.5465 36.9666C21.355 37.4364 21.0763 37.8199 20.7103 38.1171C20.6075 38.2 20.5685 38.1765 20.5935 38.0465C20.6301 37.8545 20.7124 37.7334 20.8404 37.6832C20.8464 37.6808 20.8519 37.6773 20.8566 37.6729C20.8613 37.6685 20.865 37.6633 20.8676 37.6576C20.8702 37.6519 20.8716 37.6458 20.8717 37.6397C20.8718 37.6335 20.8706 37.6275 20.8682 37.6219L20.8141 37.4777C20.8024 37.4488 20.8024 37.4169 20.8141 37.3891C21.0186 36.8984 21.2697 36.4285 21.5642 35.9859C21.6194 35.9025 21.6812 35.8569 21.7494 35.8489ZM25.5887 36.2487C25.6577 36.2357 25.6759 36.285 25.6435 36.3964C25.5835 36.6019 25.5122 36.8038 25.4298 37.0012C25.4098 37.0488 25.3558 37.1997 25.2676 37.4539C25.2145 37.6072 25.1431 37.7535 25.0549 37.8897C24.9523 38.0497 24.8806 38.1513 24.8397 38.1943C24.7474 38.2886 24.6297 38.3541 24.5009 38.3831C24.3875 38.4108 24.3597 38.3739 24.4173 38.2725C24.4375 38.2386 24.4758 38.2056 24.5323 38.1734C24.5456 38.1657 24.5569 38.1555 24.5655 38.1434C24.5741 38.1313 24.5798 38.1176 24.582 38.1034C24.6401 37.791 24.7559 37.4922 24.9234 37.2222C24.9755 37.0381 25.052 36.8655 25.153 36.7043C25.2121 36.5139 25.3286 36.3731 25.5026 36.2818C25.5299 36.2671 25.5586 36.256 25.5887 36.2487ZM32.6964 36.5316C32.4108 36.7161 32.1173 36.8883 31.8169 37.0477C31.7826 37.2025 31.738 37.3548 31.6836 37.5037C31.6334 37.6409 31.5961 37.7925 31.5719 37.9585C31.5197 38.3131 31.3927 38.6524 31.1992 38.954C31.0966 39.1155 31.0133 39.1064 30.9494 38.9267C30.8814 38.7351 30.9004 38.4976 31.0063 38.2141C31.0748 38.0295 31.1333 37.8419 31.1819 37.6511V37.6504C31.2693 37.3983 31.3188 37.2295 31.3304 37.144C31.3611 36.9193 31.5197 36.7835 31.8061 36.7367C31.8177 36.7348 31.8295 36.7361 31.8404 36.7405C31.8514 36.7448 31.861 36.752 31.8686 36.7615C31.8762 36.7709 31.8814 36.7823 31.8838 36.7945C31.8862 36.8068 31.8856 36.8195 31.8822 36.8315L31.8169 37.0477C32.1178 36.8882 32.4105 36.7161 32.6964 36.5316ZM4.36231 36.6048C4.42195 36.5964 4.48264 36.5996 4.54108 36.6141C4.70375 36.654 4.7899 36.6747 4.79951 36.6761V36.6769C4.71311 36.6572 4.62696 36.6366 4.54108 36.6149C4.48257 36.6009 4.42202 36.5975 4.36231 36.6048ZM5.23094 36.8448C5.30843 36.8845 5.39169 36.9292 5.44359 36.9443V36.945C5.39133 36.9299 5.30879 36.8848 5.23094 36.8448ZM16.8497 37.0647C16.8684 37.065 16.8868 37.0697 16.9033 37.0785C16.9198 37.0872 16.934 37.0997 16.9448 37.115C16.9556 37.1303 16.9626 37.1479 16.9653 37.1664C16.968 37.1849 16.9663 37.2037 16.9604 37.2215C16.9032 37.3944 16.8081 37.5523 16.6821 37.6839C16.5022 37.871 16.3581 38.0894 16.2568 38.3283C16.2463 38.3532 16.2449 38.3853 16.2529 38.4195C16.2851 38.5527 16.2083 38.6673 16.0226 38.7634C15.9031 38.8256 15.8332 38.7899 15.8128 38.6563C15.7962 38.5482 15.8296 38.4006 15.913 38.2134C16.1499 37.6754 16.3145 37.359 16.4068 37.2644C16.5406 37.1274 16.688 37.0608 16.8497 37.0647ZM30.8261 37.5931C30.7858 37.6018 30.7466 37.6151 30.7093 37.6327V37.632C30.7483 37.6142 30.7872 37.6012 30.8261 37.5931ZM7.53012 37.6579C7.62744 37.7034 7.72511 37.7463 7.81847 37.8003V37.801C7.72475 37.747 7.62744 37.7034 7.53012 37.6579ZM28.1463 38.3907C28.3294 38.3917 28.362 38.5053 28.244 38.7317H28.2447C28.1164 38.9732 27.971 39.2053 27.8097 39.4262C27.7412 39.5199 27.6622 39.6612 27.5725 39.8501C27.4786 40.0503 27.3419 40.2274 27.1721 40.3691C27.1615 40.3781 27.1482 40.3831 27.1346 40.3833C27.121 40.3834 27.1081 40.3786 27.0982 40.3698C27.0232 40.303 27.0035 40.2176 27.0391 40.1136L27.7873 38.5381C27.8002 38.5105 27.8181 38.4863 27.8397 38.4672C27.8613 38.4481 27.8862 38.4345 27.9124 38.4275C27.9885 38.4054 28.0671 38.393 28.1463 38.3907ZM12.2031 38.7039C12.2886 38.6907 12.3049 38.7522 12.2517 38.8885C12.1215 39.2321 11.9304 39.5496 11.6877 39.8256C11.6562 39.8616 11.6153 39.9562 11.5651 40.1092C11.5281 40.1813 11.4486 40.2958 11.3265 40.4527C11.1261 40.7098 11.037 40.6596 11.0591 40.3021C11.2955 39.8799 11.445 39.5807 11.5075 39.4046C11.6149 39.1004 11.8103 38.8798 12.0939 38.7428C12.1284 38.7251 12.1651 38.7118 12.2031 38.7039ZM35.8905 39.0737C35.8876 39.0844 35.8881 39.0959 35.8922 39.1062C35.8962 39.1166 35.9034 39.1254 35.9129 39.1314C35.8927 39.117 35.8852 39.0977 35.8905 39.0737ZM9.86462 39.4003C10.0208 39.4716 10.1294 39.5265 10.1905 39.565C10.2741 39.6187 10.3519 39.6594 10.4312 39.7037C10.3519 39.6594 10.2741 39.619 10.1905 39.5657C10.085 39.5045 9.97626 39.4492 9.86462 39.4003ZM7.46669 39.4363C7.92299 39.7307 8.39275 40.0166 8.87597 40.2941C8.39885 40.0205 7.92893 39.7344 7.46669 39.4363ZM35.7964 39.4814C35.7963 39.4814 35.7966 39.4814 35.7964 39.4814V39.4814ZM35.0006 39.7881H35.0013C34.8725 39.9121 34.7428 40.0519 34.6121 40.2076C34.584 40.2425 34.5608 40.2801 34.5425 40.3204H34.5418C34.5605 40.2801 34.5841 40.2422 34.6121 40.2076C34.7423 40.0519 34.8718 39.9121 35.0006 39.7881ZM11.8751 40.1633C11.9289 40.183 11.9847 40.1964 12.0423 40.2037C12.2021 40.2226 12.3115 40.2439 12.3703 40.2675C12.3115 40.2437 12.2021 40.2226 12.0423 40.2044C11.9852 40.1974 11.929 40.1836 11.8751 40.1633ZM26.4905 40.1874C26.2935 40.3292 26.1007 40.4097 25.912 40.4289C26.1002 40.4092 26.293 40.3287 26.4905 40.1874ZM20.2226 40.3093C20.3517 40.3186 20.3756 40.3907 20.2944 40.5255C20.2535 40.5947 20.2289 40.6968 20.2205 40.8319V40.833C20.1955 40.9401 20.1336 41.035 20.0457 41.1011C20.0198 41.1187 19.9989 41.1426 19.9851 41.1707C19.8096 41.5396 19.5719 41.8756 19.2826 42.164C19.279 42.1679 19.2509 42.2039 19.1983 42.2722C19.1512 42.3327 19.0926 42.3459 19.0224 42.3118C19.0043 42.3028 18.9884 42.2899 18.9757 42.2741C18.9631 42.2582 18.9539 42.2398 18.9489 42.2199C18.9439 42.2001 18.9431 42.1793 18.9467 42.159C18.9502 42.1387 18.958 42.1193 18.9694 42.102L19.7141 41.0013C19.7895 40.9177 19.8441 40.8212 19.8777 40.7119C19.926 40.5588 20.0116 40.4342 20.1343 40.3381C20.1606 40.3175 20.1921 40.3072 20.2226 40.3093ZM15.9973 40.4725C16.0257 40.4705 16.0572 40.4786 16.0874 40.4956C16.1362 40.5225 16.1867 40.5425 16.2388 40.5554C16.1857 40.5426 16.1346 40.5227 16.0867 40.4963C16.0567 40.4795 16.0255 40.4714 15.9973 40.4733V40.4725ZM16.4014 40.5735C16.7395 40.6367 17.079 40.6907 17.4199 40.7357C17.7386 40.71 18.0593 40.7321 18.3715 40.8013C18.4613 40.8205 18.5626 40.8264 18.6753 40.8189V40.8196C18.5738 40.8279 18.4716 40.8219 18.3718 40.8016C18.0597 40.7327 17.7389 40.7108 17.4203 40.7367C17.0792 40.6916 16.7395 40.6373 16.4014 40.5735ZM13.7144 40.6358C13.7201 40.6368 13.7258 40.638 13.7313 40.6394V40.6401L13.7144 40.6358ZM29.1177 40.7836C29.2376 40.7846 29.2448 40.901 29.1393 41.1328C29.1338 41.1447 29.125 41.1559 29.1134 41.1658C29.1019 41.1757 29.0878 41.1841 29.0719 41.1905C28.9864 41.2258 28.959 41.2918 28.9897 41.3884C29.0315 41.5208 28.9993 41.6262 28.8931 41.7045C28.8821 41.7128 28.8739 41.7241 28.8696 41.737C28.8654 41.7498 28.8653 41.7636 28.8694 41.7762C28.9349 41.9845 28.8793 42.1668 28.7025 42.323C28.5909 42.4153 28.4607 42.4826 28.3208 42.5201C28.3364 42.22 28.4088 41.9254 28.5342 41.6522C28.5664 41.4107 28.6442 41.1881 28.7677 40.9844C28.8153 40.907 28.8794 40.8526 28.9602 40.8211C29.0251 40.7958 29.0776 40.7834 29.1177 40.7836ZM23.5869 40.8596C23.6506 40.8524 23.7164 40.8608 23.7844 40.8849C23.7825 40.9252 23.7443 41.0062 23.6698 41.1278C23.4235 41.5304 23.1704 41.9287 22.9104 42.3226C22.8527 42.4086 22.8069 42.4032 22.773 42.3064C22.7233 42.1682 22.7408 42.0325 22.8257 41.8991C22.9761 41.5507 23.1683 41.2275 23.4024 40.9296H23.4031C23.4619 40.8902 23.5232 40.8669 23.5869 40.8596ZM23.9077 40.927C23.8812 40.9612 23.8578 40.9749 23.8374 40.9681C23.8576 40.9753 23.881 40.9616 23.9077 40.927ZM15.7966 41.0027C15.8701 40.9775 15.9129 41.0091 15.9249 41.0975C15.9494 41.2751 15.9013 41.4346 15.7807 41.5762C15.6661 41.7098 15.5933 41.8107 15.5623 41.8789C15.4758 42.0707 15.3923 42.2636 15.3118 42.4578C15.2731 42.5503 15.2281 42.6072 15.1766 42.6286C15.1082 42.6575 15.0269 42.6527 14.933 42.6142C14.9216 42.6096 14.9112 42.6027 14.9024 42.5941C14.8936 42.5854 14.8867 42.5751 14.8819 42.5638C14.8771 42.5525 14.8746 42.5403 14.8745 42.528C14.8744 42.5156 14.8768 42.5034 14.8814 42.492C15.0853 41.9863 15.3597 41.5121 15.6967 41.0835C15.7219 41.0478 15.7565 41.0201 15.7966 41.0027ZM32.9368 41.2601H32.9375C32.8783 41.324 32.825 41.3931 32.7782 41.4666C32.778 41.4666 32.7777 41.4666 32.7775 41.4666C32.8242 41.3931 32.8776 41.324 32.9368 41.2601ZM31.601 41.991C31.6014 41.991 31.6018 41.991 31.6021 41.991H31.601ZM11.4116 42.1471C11.4248 42.1634 11.4408 42.1773 11.4588 42.1882V42.1889C11.4409 42.1778 11.4246 42.1637 11.4116 42.1471ZM19.5256 44.7876C19.3951 44.7903 19.2651 44.8043 19.137 44.8294L19.1363 44.8287C19.2661 44.8037 19.3958 44.79 19.5256 44.7876Z" fill="white"/>
</svg>
